{"glyphs":{"0":{"ha":978,"x_min":75,"x_max":913,"o":"m 493 897 q 659 860 582 897 q 792 761 736 824 q 881 616 849 699 q 913 442 913 533 q 881 265 913 347 q 792 120 849 182 q 659 22 736 58 q 493 -14 582 -14 q 329 22 406 -14 q 197 120 253 58 q 108 265 140 182 q 75 442 75 347 q 108 617 75 535 q 197 763 140 700 q 329 861 253 825 q 493 897 406 897 m 493 796 q 370 768 428 796 q 269 692 313 740 q 201 580 226 644 q 176 442 176 515 q 201 304 176 368 q 269 192 226 240 q 370 115 313 143 q 493 88 428 88 q 617 115 560 88 q 717 192 675 143 q 785 304 760 240 q 810 442 810 368 q 785 580 810 515 q 717 692 760 644 q 616 768 674 740 q 493 796 558 796 z "},"1":{"ha":382,"x_min":58,"x_max":275,"o":"m 239 883 l 239 136 q 275 26 239 74 l 193 -36 q 139 136 139 42 l 139 783 l 58 783 l 58 883 l 239 883 z "},"2":{"ha":736,"x_min":63,"x_max":679,"o":"m 92 668 q 132 760 106 718 q 195 832 158 801 q 278 880 232 863 q 376 897 324 897 q 478 878 431 897 q 562 824 526 860 q 617 740 597 789 q 638 631 638 690 q 603 490 638 560 q 508 352 569 419 q 360 222 447 285 q 169 106 274 160 l 679 106 l 679 0 l 63 0 l 63 128 q 281 270 190 206 q 427 393 371 335 q 509 507 483 451 q 535 622 535 563 q 492 749 535 701 q 374 797 449 797 q 248 751 299 797 q 176 632 197 704 l 92 668 z "},"3":{"ha":610,"x_min":76,"x_max":538,"o":"m 538 883 l 538 796 q 476 618 525 701 q 342 482 426 535 q 410 449 379 474 q 465 391 442 425 q 501 316 488 357 q 514 233 514 275 q 422 -11 514 92 q 136 -200 331 -114 l 96 -106 q 326 25 243 -65 q 408 233 408 115 q 394 312 408 276 q 356 374 379 347 q 303 415 332 400 q 244 429 274 429 q 226 428 231 429 l 200 494 q 275 531 236 506 q 349 594 314 557 q 410 678 383 631 q 446 783 436 726 l 76 783 l 76 883 l 538 883 z "},"4":{"ha":815,"x_min":51,"x_max":761,"o":"m 672 883 l 672 100 l 761 100 l 761 0 l 672 0 l 672 -211 l 569 -211 l 569 0 l 57 0 l 51 100 q 183 205 119 139 q 295 351 246 271 q 375 516 344 431 q 408 679 406 601 l 508 663 q 465 485 496 574 q 391 321 433 397 q 297 186 349 244 q 189 100 244 128 l 569 100 l 569 883 l 672 883 z "},"5":{"ha":671,"x_min":24,"x_max":615,"o":"m 582 883 l 582 783 l 239 783 l 183 642 q 335 694 249 694 q 452 670 400 694 q 540 605 504 646 q 596 510 576 564 q 615 399 615 457 q 578 233 615 315 q 469 72 540 150 q 297 -77 399 -6 q 67 -210 194 -149 l 24 -118 q 227 -1 136 -64 q 382 128 318 61 q 480 263 446 194 q 514 399 514 332 q 501 474 514 439 q 466 535 489 510 q 409 576 443 561 q 333 590 375 590 q 218 573 275 590 q 131 524 161 556 l 47 553 l 172 883 l 582 883 z "},"6":{"ha":693,"x_min":53,"x_max":646,"o":"m 518 1060 q 293 767 379 911 q 172 481 207 622 q 382 590 249 590 q 488 568 440 590 q 572 506 536 546 q 626 413 607 467 q 646 297 646 360 q 622 166 646 224 q 556 68 599 108 q 452 7 513 28 q 319 -14 392 -14 q 214 13 263 -14 q 130 83 165 39 q 74 186 94 128 q 53 308 53 244 q 153 720 53 515 q 442 1129 254 925 l 518 1060 m 351 496 q 278 480 313 496 q 217 435 243 464 q 176 369 192 407 q 161 288 161 331 q 177 204 161 243 q 219 138 193 165 q 279 94 244 110 q 351 78 314 78 q 423 94 389 78 q 483 140 457 111 q 524 206 508 168 q 539 288 539 244 q 524 367 539 329 q 484 434 510 406 q 424 479 458 463 q 351 496 390 496 z "},"7":{"ha":632,"x_min":46,"x_max":593,"o":"m 593 883 l 593 813 q 537 756 567 785 q 474 680 507 726 q 402 560 440 633 q 321 371 364 488 q 236 -193 236 140 l 135 -193 q 160 138 135 -11 q 231 406 185 288 q 344 641 288 549 q 457 783 400 733 l 46 783 l 46 883 l 593 883 z "},"8":{"ha":638,"x_min":58,"x_max":574,"o":"m 240 481 q 139 568 179 511 q 99 688 99 625 q 156 840 99 782 q 317 897 213 897 q 476 840 418 897 q 535 688 535 783 q 393 481 535 557 q 574 238 574 374 q 506 53 574 119 q 317 -14 439 -14 q 128 53 197 -14 q 58 238 58 119 q 103 378 58 319 q 240 481 149 438 m 317 532 q 402 608 374 568 q 431 688 431 647 q 317 803 431 803 q 201 688 201 803 q 230 608 201 647 q 317 532 258 568 m 317 432 q 238 377 268 401 q 191 331 208 353 q 167 286 174 308 q 161 238 161 264 q 317 89 161 89 q 472 238 472 89 q 465 287 472 264 q 441 332 458 310 q 394 378 424 354 q 317 432 364 401 z "},"9":{"ha":708,"x_min":60,"x_max":653,"o":"m 188 -178 q 314 -25 256 -106 q 417 133 372 56 q 494 281 463 211 q 540 403 525 351 q 322 293 463 293 q 214 317 263 293 q 131 382 165 342 q 78 475 97 422 q 60 585 60 528 q 82 715 60 657 q 144 813 104 772 q 240 876 183 854 q 364 897 296 897 q 481 872 428 897 q 573 802 535 846 q 632 701 611 758 q 653 583 653 644 q 626 381 653 486 q 550 169 600 276 q 427 -44 500 61 q 263 -247 354 -150 l 188 -178 m 353 804 q 281 788 315 804 q 222 743 247 771 q 181 676 196 715 q 165 594 165 638 q 181 511 165 550 q 222 444 196 472 q 283 401 249 417 q 353 385 317 385 q 425 401 390 385 q 485 447 460 418 q 526 513 511 475 q 542 594 542 551 q 527 674 542 636 q 487 742 513 713 q 426 788 461 771 q 353 804 392 804 z "},"\u0017":{"ha":407,"x_min":0,"x_max":0,"o":""}," ":{"ha":407,"x_min":0,"x_max":0,"o":""},"!":{"ha":311,"x_min":85,"x_max":226,"o":"m 199 1074 l 199 218 l 115 218 l 115 1074 l 199 1074 m 154 136 q 206 112 186 136 q 226 51 226 88 q 206 -10 226 15 q 154 -35 186 -35 q 105 -10 125 -35 q 85 51 85 15 q 105 112 85 88 q 154 136 125 136 z "},"\"":{"ha":469,"x_min":63,"x_max":406,"o":"m 171 1133 l 139 818 l 93 818 l 63 1133 l 171 1133 m 406 1133 l 374 818 l 328 818 l 297 1133 l 406 1133 z "},"#":{"ha":753,"x_min":43,"x_max":710,"o":"m 268 883 l 268 714 l 479 714 l 479 883 l 560 883 l 560 714 l 710 714 l 710 621 l 560 621 l 560 451 l 710 451 l 710 353 l 560 353 l 560 178 l 479 178 l 479 353 l 268 353 l 268 178 l 183 178 l 183 353 l 43 353 l 43 451 l 183 451 l 183 621 l 43 621 l 43 714 l 183 714 l 183 883 l 268 883 m 268 451 l 479 451 l 479 621 l 268 621 l 268 451 z "},"$":{"ha":535,"x_min":36,"x_max":475,"o":"m 314 883 l 314 772 q 365 760 343 769 q 406 732 386 750 l 344 675 q 296 697 326 697 q 246 681 265 697 q 226 633 226 665 q 228 614 226 622 q 234 597 229 606 q 248 578 239 589 q 272 553 257 568 q 306 519 288 538 q 345 482 325 501 q 385 442 365 463 q 421 401 404 422 q 463 335 450 365 q 475 269 475 306 q 429 159 475 204 q 314 99 383 114 l 314 0 l 238 0 l 238 93 q 109 129 165 96 q 36 224 53 163 l 103 268 q 159 192 125 217 q 251 167 193 167 q 352 195 314 167 q 390 271 390 224 q 383 308 390 290 q 356 351 376 325 q 278 435 319 396 q 196 518 236 474 q 154 580 168 550 q 140 644 140 610 q 165 717 140 685 q 238 764 189 750 l 238 883 l 314 883 z "},"%":{"ha":1044,"x_min":75,"x_max":979,"o":"m 307 1092 q 399 1072 356 1092 q 473 1017 442 1051 q 522 936 504 982 q 540 840 540 890 q 522 742 540 788 q 473 661 504 696 q 399 606 442 626 q 307 586 357 586 q 216 606 258 586 q 142 660 174 626 q 93 741 111 694 q 75 840 75 788 q 93 937 75 892 q 142 1017 111 982 q 216 1072 174 1051 q 307 1092 258 1092 m 307 1022 q 244 1008 274 1022 q 192 969 214 994 q 158 911 171 944 q 146 840 146 878 q 158 769 146 803 q 192 711 171 736 q 244 672 214 686 q 307 658 274 658 q 370 672 340 658 q 422 711 400 686 q 457 769 444 736 q 469 840 469 803 q 457 911 469 878 q 422 969 444 944 q 370 1008 400 993 q 307 1022 340 1022 m 928 1074 l 181 0 l 96 0 l 839 1074 l 928 1074 m 746 483 q 838 463 794 483 q 912 408 881 443 q 961 328 943 374 q 979 232 979 282 q 961 133 979 179 q 912 53 943 88 q 838 -2 881 18 q 746 -22 796 -22 q 655 -2 697 -22 q 581 52 613 18 q 532 133 550 86 q 514 232 514 179 q 532 328 514 283 q 581 408 550 374 q 655 463 613 443 q 746 483 697 483 m 746 414 q 683 400 713 414 q 631 361 653 386 q 597 303 610 336 q 585 232 585 269 q 597 161 585 194 q 631 103 610 128 q 683 64 653 78 q 746 50 713 50 q 809 64 779 50 q 861 103 839 78 q 896 161 883 128 q 908 232 908 194 q 896 303 908 269 q 861 360 883 336 q 809 399 839 385 q 746 414 779 414 z "},"&":{"ha":1132,"x_min":50,"x_max":1094,"o":"m 1057 336 q 967 249 1008 288 q 888 185 926 210 q 960 140 908 169 q 1094 63 1011 110 l 1046 -28 q 818 118 933 31 q 394 -14 628 -14 q 265 3 326 -14 q 155 52 203 21 q 78 126 107 83 q 50 222 50 169 q 147 443 50 333 q 208 501 163 460 q 333 614 254 543 q 268 840 268 736 q 312 955 268 911 q 424 999 356 999 q 487 987 457 999 q 539 954 517 975 q 574 904 561 933 q 586 840 586 875 q 465 594 586 719 q 610 424 522 510 q 818 246 697 338 q 891 313 850 272 q 981 406 932 353 l 1057 336 m 744 183 q 557 337 644 249 q 389 538 469 425 q 326 481 357 510 q 263 419 294 453 q 153 222 153 308 q 174 168 153 193 q 231 125 196 143 q 308 97 265 107 q 394 86 351 86 q 583 110 496 86 q 744 183 669 135 m 410 672 q 482 840 482 767 q 425 897 482 897 q 369 840 369 897 q 380 763 369 804 q 410 672 390 721 z "},"'":{"ha":235,"x_min":63,"x_max":171,"o":"m 171 1133 l 139 818 l 93 818 l 63 1133 l 171 1133 z "},"(":{"ha":438,"x_min":183,"x_max":392,"o":"m 392 1176 q 300 872 329 1044 q 271 483 271 700 q 390 -293 271 35 l 301 -293 q 213 60 243 -133 q 183 483 183 253 q 301 1176 183 900 l 392 1176 z "},")":{"ha":438,"x_min":50,"x_max":258,"o":"m 140 1176 q 258 483 258 900 q 228 60 258 253 q 140 -293 199 -133 l 51 -293 q 171 483 171 35 q 142 872 171 700 q 50 1176 113 1044 l 140 1176 z "},"*":{"ha":460,"x_min":50,"x_max":408,"o":"m 199 951 l 178 1074 l 282 1074 l 263 951 l 376 1007 l 408 908 l 288 886 l 375 799 l 292 736 l 231 850 l 172 739 l 88 799 l 175 886 l 50 908 l 86 1007 l 199 951 z "},"+":{"ha":521,"x_min":57,"x_max":464,"o":"m 215 517 l 215 672 l 306 672 l 306 517 l 464 517 l 464 426 l 306 426 l 306 267 l 215 267 l 215 426 l 57 426 l 57 517 l 215 517 z "},",":{"ha":301,"x_min":72,"x_max":214,"o":"m 129 -24 q 88 8 104 -17 q 72 57 72 33 q 91 122 72 94 q 142 150 110 150 q 192 123 169 150 q 214 57 214 96 q 191 -50 214 10 q 144 -168 168 -110 l 97 -168 l 129 -24 z "},"-":{"ha":325,"x_min":51,"x_max":272,"o":"m 272 517 l 272 424 l 51 424 l 51 517 l 272 517 z "},".":{"ha":286,"x_min":72,"x_max":214,"o":"m 142 135 q 194 110 174 135 q 214 50 214 86 q 194 -11 214 14 q 142 -36 174 -36 q 92 -11 111 -36 q 72 50 72 14 q 92 110 72 86 q 142 135 111 135 z "},"/":{"ha":471,"x_min":19,"x_max":450,"o":"m 450 1176 l 97 -187 l 19 -187 l 368 1176 l 450 1176 z "},":":{"ha":311,"x_min":85,"x_max":226,"o":"m 156 135 q 206 110 186 135 q 226 50 226 86 q 206 -11 226 14 q 156 -36 186 -36 q 105 -11 125 -36 q 85 50 85 14 q 105 110 85 86 q 156 135 125 135 m 156 697 q 206 673 186 697 q 226 613 226 649 q 206 551 226 576 q 156 526 186 526 q 105 551 125 526 q 85 613 85 576 q 105 673 85 649 q 156 697 125 697 z "},";":{"ha":311,"x_min":85,"x_max":226,"o":"m 156 696 q 206 672 186 696 q 226 611 226 647 q 206 550 226 575 q 156 525 186 525 q 105 550 125 525 q 85 611 85 575 q 105 672 85 647 q 156 696 125 696 m 142 -24 q 101 8 117 -17 q 85 57 85 33 q 104 123 85 96 q 156 150 124 150 q 204 123 182 150 q 226 57 226 96 q 203 -50 226 10 q 158 -168 181 -110 l 111 -168 l 142 -24 z "},"<":{"ha":521,"x_min":57,"x_max":464,"o":"m 464 750 l 464 649 l 132 464 l 464 286 l 464 183 l 57 406 l 57 521 l 464 750 z "},"=":{"ha":521,"x_min":57,"x_max":464,"o":"m 464 660 l 464 569 l 57 569 l 57 660 l 464 660 m 464 374 l 464 282 l 57 282 l 57 374 l 464 374 z "},">":{"ha":521,"x_min":57,"x_max":464,"o":"m 464 521 l 464 406 l 57 183 l 57 286 l 389 464 l 57 649 l 57 750 l 464 521 z "},"?":{"ha":539,"x_min":61,"x_max":433,"o":"m 61 786 q 260 1089 61 1089 q 388 1042 343 1089 q 433 911 433 994 q 414 781 433 856 q 357 603 394 706 q 301 422 321 500 q 282 290 282 344 l 282 239 l 207 239 l 207 290 q 222 423 207 344 q 268 603 236 501 q 314 783 300 707 q 328 911 328 858 q 260 986 328 986 q 212 979 231 986 q 181 951 193 972 q 163 888 169 929 q 150 778 156 846 l 61 786 m 240 136 q 292 112 272 136 q 313 51 313 88 q 292 -10 313 15 q 240 -35 272 -35 q 191 -10 211 -35 q 171 51 171 15 q 191 112 171 88 q 240 136 211 136 z "},"@":{"ha":1076,"x_min":54,"x_max":1024,"o":"m 743 607 q 726 510 735 563 q 712 407 718 457 q 702 318 706 357 q 699 265 699 279 q 719 221 699 239 q 781 203 740 203 q 890 278 854 203 q 925 493 925 354 q 906 628 925 565 q 844 735 886 690 q 738 805 803 779 q 582 831 672 831 q 413 794 490 831 q 281 695 336 758 q 196 546 226 632 q 165 358 165 460 q 269 48 165 156 q 560 -60 374 -60 q 736 -25 672 -60 l 756 -128 q 667 -165 718 -154 q 556 -176 615 -176 q 358 -145 449 -176 q 199 -49 267 -114 q 92 115 131 15 q 54 351 54 214 q 94 590 54 482 q 203 774 133 697 q 370 894 274 851 q 582 936 467 936 q 772 901 690 936 q 910 806 854 867 q 995 665 967 746 q 1024 493 1024 585 q 1008 333 1024 404 q 960 213 992 263 q 884 135 929 163 q 781 108 839 108 q 681 126 718 108 q 619 188 643 143 q 574 161 600 172 q 511 150 547 150 q 448 167 478 150 q 396 211 418 183 q 360 276 374 239 q 347 356 347 314 q 360 460 347 410 q 396 549 372 511 q 453 610 419 588 q 529 633 486 633 q 592 622 568 633 q 640 575 617 610 l 646 619 l 743 607 m 624 469 q 597 523 624 501 q 538 544 571 544 q 469 496 497 544 q 442 356 442 447 q 463 274 442 303 q 526 244 483 244 q 568 256 549 244 q 603 299 588 267 l 624 469 z "},"A":{"ha":1176,"x_min":31,"x_max":1167,"o":"m 657 1074 q 736 838 688 963 q 850 580 785 713 q 995 308 915 447 q 1167 28 1075 168 l 1076 -24 q 1009 83 1044 25 q 935 208 974 140 l 276 208 q 122 -25 203 88 l 31 28 q 359 606 235 350 q 539 1074 483 861 l 657 1074 m 876 315 q 788 476 831 396 q 708 637 744 556 q 643 803 671 718 q 599 982 615 889 q 554 806 581 888 q 494 646 528 724 q 422 488 461 568 q 336 315 382 407 l 876 315 z "},"B":{"ha":1326,"x_min":50,"x_max":1282,"o":"m 775 1074 q 1030 1005 944 1074 q 1115 818 1115 936 q 1069 685 1115 735 q 933 607 1022 635 q 1194 527 1107 590 q 1282 333 1282 464 q 1244 201 1282 260 q 1136 99 1206 142 q 970 34 1067 57 q 757 11 874 11 l 151 11 l 151 969 l 50 969 l 50 1074 l 775 1074 m 256 647 l 785 647 q 871 658 831 647 q 942 688 911 668 q 992 738 974 708 q 1010 804 1010 767 q 997 869 1010 839 q 957 922 985 900 q 885 957 929 944 q 775 969 840 969 l 256 969 l 256 647 m 256 115 l 757 115 q 922 130 847 115 q 1051 172 997 144 q 1135 241 1106 200 q 1165 336 1165 282 q 1074 489 1165 438 q 788 540 982 540 l 256 540 l 256 115 z "},"C":{"ha":1164,"x_min":57,"x_max":1135,"o":"m 1065 901 q 804 983 967 983 q 570 938 685 983 q 365 814 456 892 q 219 634 275 736 q 164 421 164 532 q 188 288 164 349 q 260 184 213 228 q 376 115 307 140 q 536 90 446 90 q 944 239 756 90 l 1007 158 q 778 28 899 71 q 510 -14 657 -14 q 317 19 401 -14 q 176 109 233 51 q 88 245 118 167 q 57 415 57 324 q 85 581 57 499 q 165 738 114 663 q 286 876 215 813 q 440 988 357 940 q 617 1062 524 1035 q 807 1089 710 1089 q 1135 979 1003 1089 l 1065 901 z "},"D":{"ha":1372,"x_min":47,"x_max":1322,"o":"m 882 1074 q 1067 1051 986 1074 q 1206 978 1149 1028 q 1292 852 1263 929 q 1322 668 1322 775 q 1265 417 1322 538 q 1107 203 1208 296 q 868 56 1006 111 q 569 0 731 0 l 149 0 l 149 969 l 47 969 l 47 1074 l 882 1074 m 253 106 l 569 106 q 835 155 715 106 q 1040 283 954 204 q 1172 462 1125 363 q 1218 663 1218 561 q 1199 804 1218 746 q 1135 899 1179 863 q 1020 953 1092 936 q 844 969 949 969 l 253 969 l 253 106 z "},"E":{"ha":1125,"x_min":92,"x_max":1067,"o":"m 1067 1074 l 1067 969 l 293 969 l 293 624 l 921 624 l 921 518 l 293 518 l 293 106 l 1067 106 l 1067 0 l 189 0 l 189 518 l 92 518 l 92 624 l 189 624 l 189 969 l 92 969 l 92 1074 l 1067 1074 z "},"F":{"ha":1126,"x_min":92,"x_max":1067,"o":"m 1067 1074 l 1067 969 l 293 969 l 293 624 l 922 624 l 922 518 l 293 518 l 293 160 q 335 26 293 82 l 250 -36 q 188 160 188 49 l 188 518 l 92 518 l 92 624 l 188 624 l 188 969 l 92 969 l 92 1074 l 1067 1074 z "},"G":{"ha":1175,"x_min":67,"x_max":1142,"o":"m 1074 901 q 957 963 1022 943 q 813 983 892 983 q 658 961 736 983 q 510 900 581 939 q 377 808 439 861 q 270 691 315 754 q 199 558 225 628 q 172 418 172 489 q 198 286 172 346 q 271 183 224 226 q 386 115 318 139 q 540 90 454 90 q 698 116 619 90 q 839 186 776 142 q 940 290 901 231 q 978 418 978 350 l 978 564 l 1083 564 l 1083 -96 q 1067 -199 1083 -150 q 1021 -293 1051 -249 l 935 -229 q 978 -96 978 -172 l 978 199 q 898 113 946 151 q 792 45 850 74 q 668 1 733 17 q 539 -14 603 -14 q 328 18 417 -14 q 181 108 239 50 q 94 243 122 165 q 67 413 67 321 q 95 577 67 494 q 174 735 124 660 q 295 874 225 810 q 449 987 365 939 q 625 1062 532 1035 q 815 1089 718 1089 q 1142 979 1011 1089 l 1074 901 z "},"H":{"ha":1288,"x_min":92,"x_max":1233,"o":"m 293 1074 l 293 624 l 1089 624 l 1089 1074 l 1192 1074 l 1192 160 q 1201 89 1192 124 q 1233 26 1211 54 l 1149 -36 q 1089 160 1089 49 l 1089 518 l 293 518 l 293 160 q 303 89 293 124 q 333 26 313 54 l 251 -36 q 188 160 188 51 l 188 518 l 92 518 l 92 624 l 188 624 l 188 969 l 92 969 l 92 1074 l 293 1074 z "},"I":{"ha":389,"x_min":92,"x_max":335,"o":"m 293 1074 l 293 160 q 303 89 293 124 q 335 26 313 54 l 251 -36 q 189 160 189 49 l 189 969 l 92 969 l 92 1074 l 293 1074 z "},"J":{"ha":1046,"x_min":31,"x_max":972,"o":"m 972 1074 l 972 686 q 926 401 972 529 q 798 180 881 272 q 599 37 715 88 q 343 -14 483 -14 q 249 -5 290 -14 q 171 24 207 4 q 101 74 135 43 q 31 151 68 106 l 101 219 q 156 163 129 188 q 210 123 182 139 q 272 99 239 107 q 344 90 304 90 q 563 132 465 90 q 728 251 660 174 q 832 439 796 329 q 868 686 868 549 l 868 969 l 772 969 l 772 1074 l 972 1074 z "},"K":{"ha":1175,"x_min":92,"x_max":1175,"o":"m 293 1074 l 293 543 q 481 632 386 571 q 667 773 575 693 q 845 944 758 853 q 1010 1122 932 1035 l 1085 1047 q 928 881 1010 968 q 760 718 846 794 q 589 583 675 642 q 421 501 503 525 q 535 426 478 471 q 653 332 593 382 q 776 231 714 282 q 903 136 839 179 q 1036 61 968 93 q 1175 19 1104 29 l 1149 -82 q 968 -17 1050 -57 q 816 70 886 22 q 683 172 746 118 q 559 278 621 225 q 432 382 497 332 q 293 472 367 432 l 293 160 q 303 89 293 124 q 335 26 313 54 l 251 -36 q 189 160 189 49 l 189 969 l 92 969 l 92 1074 l 293 1074 z "},"L":{"ha":1101,"x_min":92,"x_max":1050,"o":"m 293 1074 l 293 106 l 1050 106 l 1050 0 l 189 0 l 189 969 l 92 969 l 92 1074 l 293 1074 z "},"M":{"ha":1492,"x_min":92,"x_max":1438,"o":"m 292 1074 q 499 886 413 975 q 647 709 586 797 q 747 531 708 621 q 807 342 785 442 q 871 530 836 443 q 961 701 906 617 q 1099 876 1017 786 q 1307 1074 1182 965 l 1396 1074 l 1396 160 q 1406 89 1396 124 q 1438 26 1417 54 l 1356 -36 q 1292 160 1292 51 l 1292 939 q 990 565 1101 751 q 861 176 879 378 l 754 176 q 717 370 747 276 q 631 556 688 464 q 491 743 575 649 q 293 939 407 838 l 293 160 q 303 89 293 124 q 335 26 313 54 l 251 -36 q 189 160 189 49 l 189 969 l 92 969 l 92 1074 l 292 1074 z "},"N":{"ha":1281,"x_min":92,"x_max":1226,"o":"m 336 1074 l 1081 325 l 1081 1074 l 1183 1074 l 1183 160 q 1226 26 1183 85 l 1143 -36 q 1081 160 1081 49 l 1081 196 l 286 982 l 286 160 q 328 26 286 82 l 243 -36 q 197 56 213 7 q 181 160 181 106 l 181 969 l 92 969 l 92 1074 l 336 1074 z "},"O":{"ha":1346,"x_min":63,"x_max":1288,"o":"m 63 422 q 91 585 63 504 q 170 741 119 667 q 291 878 221 815 q 445 988 361 942 q 622 1062 529 1035 q 814 1089 715 1089 q 1002 1058 915 1089 q 1152 970 1089 1026 q 1251 837 1215 914 q 1288 668 1288 760 q 1258 501 1288 585 q 1178 342 1229 418 q 1056 201 1126 267 q 901 88 985 136 q 726 13 818 40 q 538 -14 633 -14 q 348 20 435 -14 q 197 113 261 54 q 98 251 133 172 q 63 422 63 331 m 168 426 q 194 293 168 354 q 270 187 221 232 q 388 116 319 142 q 542 90 457 90 q 776 141 661 90 q 983 273 892 192 q 1129 457 1074 354 q 1185 663 1185 560 q 1156 796 1185 736 q 1078 897 1128 856 q 959 961 1028 939 q 808 983 890 983 q 576 935 690 983 q 370 808 461 886 q 224 629 279 729 q 168 426 168 529 z "},"P":{"ha":1314,"x_min":40,"x_max":1271,"o":"m 756 1074 q 969 1048 874 1074 q 1131 977 1064 1022 q 1235 871 1199 932 q 1271 739 1271 810 q 1232 606 1271 667 q 1122 501 1193 544 q 953 432 1051 457 q 738 407 856 407 l 246 407 l 246 0 l 140 0 l 140 969 l 40 969 l 40 1074 l 756 1074 m 246 514 l 738 514 q 902 531 826 514 q 1033 577 978 547 q 1121 649 1089 607 q 1153 744 1153 692 q 1050 906 1153 843 q 739 969 947 969 l 246 969 l 246 514 z "},"Q":{"ha":1347,"x_min":63,"x_max":1289,"o":"m 169 426 q 197 293 169 354 q 272 187 224 232 q 390 116 321 142 q 542 90 458 90 q 700 113 621 90 q 850 177 779 136 q 982 273 921 218 q 1088 392 1043 328 q 1158 524 1133 456 q 1183 663 1183 593 q 1156 795 1183 736 q 1078 896 1128 854 q 960 960 1029 938 q 810 983 892 983 q 652 961 731 983 q 503 900 574 939 q 371 808 432 861 q 265 692 310 754 q 195 563 221 631 q 169 426 169 494 m 857 -100 q 957 -200 888 -161 l 911 -293 q 764 -147 815 -246 l 686 3 q 608 -10 646 -7 q 535 -14 571 -14 q 344 21 431 -14 q 194 115 257 56 q 97 254 132 175 q 63 422 63 333 q 91 585 63 504 q 171 741 119 667 q 292 879 222 815 q 446 990 363 943 q 623 1063 529 1036 q 814 1089 717 1089 q 1003 1058 917 1089 q 1154 970 1090 1026 q 1253 837 1218 914 q 1289 668 1289 760 q 1252 479 1289 575 q 1149 297 1215 383 q 990 142 1082 211 q 788 31 897 72 l 857 -100 z "},"R":{"ha":1385,"x_min":92,"x_max":1350,"o":"m 800 1074 q 1027 1048 929 1074 q 1191 977 1125 1022 q 1290 872 1257 932 q 1324 743 1324 811 q 1288 606 1324 668 q 1183 500 1251 544 q 1019 431 1115 456 q 801 407 922 407 l 664 407 q 716 374 694 389 q 762 337 738 358 q 820 282 786 315 q 911 196 854 249 q 992 123 958 151 q 1053 78 1026 94 q 1103 54 1081 61 q 1146 47 1125 47 q 1247 57 1204 47 q 1319 86 1290 67 l 1350 -11 q 1263 -45 1314 -35 q 1146 -56 1213 -56 q 1034 -20 1101 -56 q 883 92 967 15 q 721 235 794 174 q 586 337 647 296 q 473 398 525 378 q 374 418 421 418 l 297 418 l 297 0 l 193 0 l 193 969 l 92 969 l 92 1074 l 800 1074 m 297 514 l 794 514 q 983 531 904 514 q 1111 577 1061 547 q 1184 649 1161 607 q 1207 744 1207 692 q 1186 835 1207 794 q 1117 906 1165 876 q 992 953 1069 936 q 800 969 914 969 l 297 969 l 297 514 z "},"S":{"ha":1204,"x_min":69,"x_max":1143,"o":"m 117 188 q 203 151 146 169 q 332 119 261 133 q 480 97 403 106 q 626 89 557 89 q 935 148 829 89 q 1040 314 1040 207 q 994 413 1040 374 q 836 485 949 451 q 733 508 790 499 q 615 526 675 517 q 497 547 554 536 q 392 572 439 557 q 251 664 296 604 q 206 808 206 724 q 317 1018 206 947 q 643 1089 429 1089 q 1056 1011 875 1089 l 1013 915 q 838 969 929 951 q 642 986 746 986 q 399 939 486 986 q 313 808 313 892 q 342 719 313 750 q 428 669 371 689 q 535 643 478 653 q 650 626 592 633 q 764 610 708 619 q 868 588 819 601 q 1076 480 1010 544 q 1143 310 1143 415 q 1002 69 1143 153 q 596 -14 861 -14 q 441 -6 519 -14 q 292 17 363 3 q 163 52 221 32 q 69 94 104 72 l 117 188 z "},"T":{"ha":1068,"x_min":46,"x_max":1021,"o":"m 1021 1074 l 1021 969 l 579 969 l 579 160 q 619 26 579 83 l 538 -36 q 475 160 475 49 l 475 969 l 46 969 l 46 1074 l 1021 1074 z "},"U":{"ha":1351,"x_min":88,"x_max":1324,"o":"m 289 1074 l 289 429 q 315 289 289 351 q 388 182 340 226 q 501 114 435 138 q 646 90 567 90 q 864 139 760 90 q 1047 269 968 188 q 1174 459 1126 351 q 1221 686 1221 567 l 1221 1074 l 1324 1074 l 1324 686 q 1268 417 1324 544 q 1119 194 1213 290 q 902 42 1025 99 q 644 -14 779 -14 q 456 19 542 -14 q 310 110 371 51 q 217 251 250 169 q 183 429 183 332 l 183 969 l 88 969 l 88 1074 l 289 1074 z "},"V":{"ha":1188,"x_min":32,"x_max":1167,"o":"m 124 1110 q 284 863 207 989 q 424 611 361 738 q 532 359 486 485 q 600 113 578 233 q 677 361 631 239 q 783 606 724 483 q 917 853 843 728 q 1076 1110 990 978 l 1167 1058 q 995 790 1075 931 q 850 507 915 649 q 736 231 785 365 q 661 -14 688 97 l 536 -14 q 459 227 506 96 q 349 499 413 358 q 207 782 286 639 q 32 1058 128 925 l 124 1110 z "},"W":{"ha":1565,"x_min":32,"x_max":1543,"o":"m 122 1110 q 244 876 188 993 q 347 636 301 758 q 428 385 393 514 q 483 115 463 256 q 532 369 506 250 q 590 603 558 489 q 659 833 622 718 q 738 1074 696 947 l 832 1074 q 913 835 875 950 q 984 604 951 719 q 1044 369 1017 489 q 1093 115 1071 249 q 1160 380 1124 254 q 1240 625 1196 506 q 1337 864 1285 744 q 1451 1110 1389 983 l 1543 1058 q 1431 828 1483 944 q 1330 585 1378 713 q 1238 313 1282 457 q 1149 0 1193 169 l 1024 0 q 957 304 988 168 q 899 553 926 440 q 843 759 871 665 q 786 936 815 853 q 732 759 758 853 q 678 553 706 665 q 617 306 650 442 q 544 0 585 169 l 419 0 q 340 322 381 175 q 253 597 300 469 q 153 837 207 724 q 32 1058 99 950 l 122 1110 z "},"X":{"ha":1226,"x_min":38,"x_max":1168,"o":"m 51 1089 q 203 1046 132 1076 q 342 963 275 1015 q 473 836 408 911 q 606 661 538 761 q 722 774 660 715 q 847 892 783 833 q 975 1006 911 950 q 1097 1110 1039 1061 l 1164 1028 q 1044 926 1107 981 q 915 812 981 871 q 786 692 850 753 q 663 571 722 631 q 806 351 743 442 q 924 202 868 260 q 1038 118 981 144 q 1168 90 1096 92 l 1168 -14 q 1011 13 1082 -12 q 874 97 940 38 q 740 252 808 156 q 589 493 671 349 q 369 252 485 385 q 121 -36 253 119 l 40 33 q 311 346 188 207 q 531 586 435 485 q 415 749 472 679 q 297 867 357 818 q 173 944 238 915 q 38 985 108 974 l 51 1089 z "},"Y":{"ha":1217,"x_min":32,"x_max":1194,"o":"m 97 1110 q 264 958 179 1043 q 421 784 349 874 q 545 606 493 694 q 613 442 597 517 q 673 578 633 501 q 775 742 713 656 q 925 923 838 829 q 1131 1110 1013 1017 l 1194 1029 q 996 853 1090 953 q 828 649 901 753 q 713 448 756 546 q 669 278 669 350 l 669 146 q 711 26 669 89 l 628 -36 q 564 160 564 57 l 564 278 q 538 402 564 335 q 469 541 513 469 q 371 684 426 613 q 256 820 315 756 q 139 938 197 885 q 32 1029 81 992 l 97 1110 z "},"Z":{"ha":1100,"x_min":94,"x_max":1042,"o":"m 1042 1074 l 1042 974 q 960 849 1010 906 q 850 743 911 793 q 718 647 789 693 q 572 551 647 600 q 422 440 485 493 q 317 332 360 386 q 247 222 274 278 q 207 106 221 167 l 1042 106 l 1042 0 l 94 0 l 94 97 q 136 239 108 172 q 213 369 164 306 q 333 494 261 432 q 506 624 404 557 q 659 728 593 682 q 774 814 725 774 q 859 892 824 854 q 919 969 894 929 l 94 969 l 94 1074 l 1042 1074 z "},"[":{"ha":340,"x_min":144,"x_max":301,"o":"m 301 1176 l 301 1096 l 225 1096 l 225 -214 l 301 -214 l 301 -293 l 144 -293 l 144 1176 l 301 1176 z "},"\\":{"ha":471,"x_min":19,"x_max":450,"o":"m 101 1176 l 450 -187 l 374 -187 l 19 1176 l 101 1176 z "},"]":{"ha":340,"x_min":46,"x_max":203,"o":"m 203 1176 l 203 -293 l 46 -293 l 46 -214 l 122 -214 l 122 1096 l 46 1096 l 46 1176 l 203 1176 z "},"^":{"ha":675,"x_min":54,"x_max":621,"o":"m 392 1074 l 621 668 l 519 668 l 335 1000 l 157 668 l 54 668 l 276 1074 l 392 1074 z "},"_":{"ha":663,"x_min":24,"x_max":639,"o":"m 639 -107 l 639 -193 l 24 -193 l 24 -107 l 639 -107 z "},"`":{"ha":433,"x_min":72,"x_max":361,"o":"m 211 1176 l 361 947 l 250 947 l 72 1176 l 211 1176 z "},"a":{"ha":779,"x_min":53,"x_max":779,"o":"m 142 860 q 286 897 206 897 q 460 851 399 897 q 544 689 521 804 q 555 634 550 661 q 565 574 560 607 q 578 500 571 542 q 599 403 586 458 q 669 209 621 299 q 779 71 718 119 l 735 -19 q 688 19 713 -6 q 642 71 664 43 q 603 128 621 99 q 578 185 586 158 q 478 35 549 85 q 308 -14 408 -14 q 199 8 247 -14 q 119 67 151 31 q 69 150 86 103 q 53 246 53 197 q 160 453 53 375 q 210 488 183 469 q 264 523 238 506 q 314 556 290 540 q 353 585 338 572 q 418 711 418 642 q 300 800 418 800 q 179 767 222 800 l 142 860 m 524 296 q 504 363 514 322 q 486 447 494 403 q 472 534 478 492 q 465 608 465 576 q 391 512 442 557 q 274 426 340 467 q 185 347 211 389 q 158 246 158 304 q 171 173 158 203 q 204 124 183 143 q 252 97 225 106 q 308 88 279 88 q 397 103 357 88 q 465 148 436 119 q 508 214 493 176 q 524 296 524 251 z "},"b":{"ha":804,"x_min":65,"x_max":742,"o":"m 142 1176 q 203 1013 203 1104 l 203 706 q 238 783 215 747 q 291 844 261 818 q 356 883 321 869 q 428 897 390 897 q 553 865 496 897 q 653 774 611 833 q 718 631 694 715 q 742 442 742 546 q 716 252 742 336 q 642 109 690 168 q 525 18 594 50 q 367 -14 456 -14 q 228 -10 303 -14 q 65 7 153 -6 q 93 113 85 68 q 101 201 101 158 l 101 1013 q 67 1110 101 1067 l 142 1176 m 203 233 q 185 100 203 168 q 289 89 238 92 q 393 86 340 86 q 493 116 447 86 q 572 195 539 146 q 623 308 604 244 q 642 442 642 372 q 626 583 642 518 q 582 694 610 647 q 515 768 554 742 q 428 794 475 794 q 340 766 381 794 q 268 689 299 738 q 220 576 238 640 q 203 442 203 513 l 203 233 z "},"c":{"ha":707,"x_min":61,"x_max":633,"o":"m 546 696 q 389 794 475 794 q 299 769 340 794 q 227 696 257 743 q 181 584 197 649 q 164 442 164 519 q 181 299 164 364 q 226 186 197 233 q 297 113 256 139 q 389 86 339 86 q 553 208 494 86 l 633 142 q 528 28 593 69 q 389 -14 463 -14 q 259 21 319 -14 q 155 117 199 56 q 86 261 111 178 q 61 442 61 344 q 86 622 61 539 q 155 767 111 706 q 258 863 199 828 q 389 897 318 897 q 621 765 531 897 l 546 696 z "},"d":{"ha":803,"x_min":61,"x_max":753,"o":"m 660 1176 q 717 1013 717 1104 l 717 136 q 726 77 717 104 q 753 26 736 50 l 672 -36 q 655 1 664 -24 q 638 56 646 26 q 624 115 629 85 q 619 167 619 144 l 619 179 q 526 40 588 94 q 389 -14 465 -14 q 260 20 319 -14 q 156 115 200 54 q 86 259 111 175 q 61 442 61 343 q 87 624 61 540 q 156 769 113 708 q 260 863 200 829 q 389 897 319 897 q 530 853 474 897 q 615 718 586 810 l 615 1013 q 581 1110 615 1069 l 660 1176 m 389 794 q 301 770 342 794 q 230 700 260 746 q 183 589 200 654 q 165 442 165 524 q 183 294 165 360 q 231 182 201 228 q 302 111 261 136 q 389 86 343 86 q 479 118 438 86 q 551 201 521 150 q 598 315 581 251 q 615 442 615 378 q 598 576 615 513 q 550 689 581 640 q 478 766 519 738 q 389 794 436 794 z "},"e":{"ha":757,"x_min":60,"x_max":700,"o":"m 167 386 q 194 266 174 321 q 245 172 215 211 q 312 109 275 132 q 389 86 349 86 q 540 179 472 86 l 619 115 q 389 -14 529 -14 q 259 22 319 -14 q 154 121 199 58 q 85 266 110 183 q 60 442 60 349 q 85 617 60 535 q 153 763 110 700 q 258 861 197 825 q 389 897 318 897 q 513 873 457 897 q 608 803 568 849 q 672 693 649 758 q 700 547 696 628 l 167 386 m 588 618 q 517 753 568 711 q 389 794 467 794 q 309 771 347 794 q 241 706 271 747 q 192 610 211 665 q 167 492 172 556 l 588 618 z "},"f":{"ha":394,"x_min":54,"x_max":386,"o":"m 108 883 l 108 944 q 128 1038 110 994 q 176 1111 146 1081 q 247 1159 206 1142 q 338 1176 289 1176 q 386 1171 365 1176 l 386 1069 q 328 1081 357 1081 q 244 1044 276 1081 q 211 940 211 1007 l 211 883 l 386 883 l 386 783 l 211 783 l 211 -121 q 153 -293 211 -214 l 74 -231 q 108 -121 108 -186 l 108 783 l 54 783 l 54 883 l 108 883 z "},"g":{"ha":738,"x_min":61,"x_max":646,"o":"m 544 697 q 390 794 478 794 q 302 774 343 794 q 231 709 261 753 q 183 599 200 665 q 165 442 165 533 q 181 284 165 351 q 226 173 197 217 q 293 108 254 129 q 378 86 332 86 q 441 102 411 86 q 493 144 471 118 q 528 205 515 171 q 542 275 542 239 l 542 478 l 646 478 l 646 -122 q 588 -293 646 -218 l 507 -232 q 542 -122 542 -187 l 542 90 q 474 13 518 40 q 367 -14 429 -14 q 244 17 300 -14 q 147 106 188 47 q 84 249 107 164 q 61 442 61 333 q 87 635 61 550 q 157 778 113 719 q 261 867 201 836 q 390 897 321 897 q 518 866 461 897 q 621 767 575 835 l 544 697 z "},"h":{"ha":831,"x_min":111,"x_max":772,"o":"m 190 1176 q 250 1013 250 1104 l 250 706 q 334 850 282 803 q 472 897 386 897 q 576 870 528 897 q 659 787 624 843 q 715 645 694 731 q 735 442 735 560 l 735 136 q 744 77 735 104 q 772 26 753 50 l 690 -36 q 632 136 632 40 l 632 442 q 581 711 632 626 q 447 796 531 796 q 370 770 406 796 q 308 698 335 744 q 265 586 281 651 q 250 442 250 521 l 250 157 q 192 -36 250 39 l 111 26 q 147 136 147 71 l 147 1013 q 114 1110 147 1068 l 190 1176 z "},"i":{"ha":351,"x_min":111,"x_max":260,"o":"m 111 1049 q 129 1092 111 1074 q 174 1110 147 1110 q 219 1092 201 1110 q 236 1049 236 1074 q 217 1002 236 1021 q 174 983 197 983 q 129 1002 147 983 q 111 1049 111 1021 m 221 883 l 221 136 q 260 26 221 71 l 176 -36 q 119 136 119 39 l 119 883 l 221 883 z "},"j":{"ha":351,"x_min":89,"x_max":240,"o":"m 114 1049 q 133 1092 114 1074 q 176 1110 151 1110 q 222 1092 204 1110 q 240 1049 240 1074 q 222 1002 240 1021 q 176 983 204 983 q 133 1002 151 983 q 114 1049 114 1021 m 228 883 l 228 -122 q 171 -293 228 -219 l 89 -232 q 128 -122 128 -187 l 128 883 l 228 883 z "},"k":{"ha":758,"x_min":111,"x_max":744,"o":"m 190 1176 q 250 1013 250 1104 l 250 547 q 342 603 299 564 q 425 692 386 643 q 498 796 464 742 q 561 897 532 850 l 647 846 q 553 703 597 765 q 468 594 510 640 q 385 519 426 549 q 296 474 343 489 q 372 401 336 442 q 440 318 407 361 q 508 233 474 275 q 578 157 542 192 q 655 99 614 122 q 744 68 696 75 l 718 -36 q 563 42 629 -12 q 444 163 497 97 q 346 294 392 229 q 250 403 300 358 l 250 136 q 193 -36 250 42 l 111 26 q 149 136 149 72 l 149 1013 q 114 1110 149 1069 l 190 1176 z "},"l":{"ha":385,"x_min":111,"x_max":251,"o":"m 189 1176 q 251 1013 251 1107 l 251 138 q 192 -36 251 43 l 111 28 q 146 138 146 71 l 146 1013 q 113 1110 146 1068 l 189 1176 z "},"m":{"ha":1138,"x_min":64,"x_max":1079,"o":"m 206 156 q 146 -36 206 40 l 64 26 q 99 136 99 74 l 99 686 q 64 875 99 754 q 222 892 147 886 q 340 897 296 897 q 480 866 422 897 q 572 778 538 835 q 669 869 617 840 q 792 897 721 897 q 983 801 925 897 q 1042 507 1042 706 l 1042 136 q 1079 26 1042 72 l 999 -36 q 939 136 939 43 l 939 510 q 897 734 939 664 q 776 804 854 804 q 607 692 682 804 q 619 482 619 621 l 619 136 q 658 26 619 71 l 575 -36 q 518 136 518 39 l 518 510 q 485 729 518 661 q 365 797 451 797 q 278 794 321 797 q 186 783 235 790 q 201 714 197 750 q 206 646 206 678 l 206 156 z "},"n":{"ha":779,"x_min":64,"x_max":719,"o":"m 204 156 q 146 -36 204 39 l 64 26 q 101 136 101 72 l 101 679 q 92 761 101 715 q 64 869 83 807 q 129 880 90 875 q 210 889 168 885 q 294 895 253 893 q 365 897 335 897 q 607 805 531 897 q 683 547 683 713 l 683 136 q 719 26 683 71 l 638 -36 q 579 136 579 40 l 579 526 q 528 724 579 650 q 382 797 478 797 q 282 792 331 797 q 185 778 233 788 q 200 710 196 743 q 204 646 204 678 l 204 156 z "},"o":{"ha":779,"x_min":61,"x_max":715,"o":"m 390 897 q 518 863 458 897 q 622 769 578 829 q 690 625 665 708 q 715 442 715 542 q 691 258 715 342 q 623 115 667 175 q 519 20 579 54 q 390 -14 460 -14 q 258 20 318 -14 q 153 115 197 54 q 85 258 110 175 q 61 442 61 342 q 86 625 61 542 q 155 769 111 708 q 259 863 199 829 q 390 897 319 897 m 390 794 q 303 769 344 794 q 231 697 261 743 q 182 585 200 650 q 164 442 164 519 q 182 299 164 364 q 231 186 200 233 q 303 113 263 139 q 390 86 344 86 q 477 113 436 86 q 548 186 518 139 q 596 299 578 233 q 614 442 614 364 q 597 585 614 519 q 549 697 579 650 q 478 769 518 743 q 390 794 438 794 z "},"p":{"ha":803,"x_min":61,"x_max":740,"o":"m 201 -129 q 142 -293 201 -221 l 63 -226 q 90 -183 82 -207 q 97 -129 97 -158 l 97 686 q 89 767 97 721 q 61 875 81 813 q 222 892 143 886 q 364 897 300 897 q 523 865 453 897 q 642 774 593 833 q 715 630 690 714 q 740 442 740 546 q 716 267 740 350 q 649 122 692 185 q 549 23 607 60 q 426 -14 492 -14 q 291 35 351 -14 q 201 176 231 85 l 201 -129 m 201 442 q 219 305 201 369 q 268 192 238 240 q 340 115 299 143 q 426 86 381 86 q 508 115 469 86 q 575 192 546 143 q 621 306 604 242 q 638 442 638 371 q 619 576 638 513 q 567 690 600 640 q 490 768 535 739 q 393 797 446 797 q 278 794 331 797 q 183 783 225 790 q 197 718 192 751 q 201 651 201 685 l 201 442 z "},"q":{"ha":779,"x_min":61,"x_max":715,"o":"m 611 -122 q 647 -169 626 -150 q 696 -201 668 -187 l 653 -293 q 577 -243 608 -274 q 522 -168 546 -212 l 435 -10 q 390 -14 414 -14 q 259 21 319 -14 q 155 117 199 56 q 86 263 111 179 q 61 442 61 346 q 86 621 61 538 q 156 765 111 704 q 260 862 200 826 q 390 897 321 897 q 519 863 460 897 q 622 766 578 828 q 690 621 665 704 q 715 442 715 538 q 703 315 715 376 q 667 199 690 253 q 608 101 643 144 q 529 28 574 57 l 611 -122 m 390 794 q 303 770 344 794 q 231 700 261 746 q 182 589 200 654 q 164 442 164 524 q 182 294 164 360 q 231 182 200 228 q 303 111 263 136 q 390 86 344 86 q 476 115 436 86 q 548 192 517 143 q 597 305 579 240 q 615 442 615 369 q 598 589 615 524 q 550 700 581 654 q 478 770 519 746 q 390 794 438 794 z "},"r":{"ha":543,"x_min":54,"x_max":532,"o":"m 135 900 q 188 732 188 831 q 215 796 197 765 q 256 849 232 826 q 311 884 281 871 q 379 897 342 897 q 458 881 421 897 q 532 828 496 864 l 463 751 q 379 796 419 796 q 245 702 297 796 q 193 442 193 608 l 193 157 q 136 -36 193 38 l 54 26 q 93 136 93 74 l 93 735 q 57 833 93 789 l 135 900 z "},"s":{"ha":586,"x_min":15,"x_max":536,"o":"m 382 767 q 324 796 357 796 q 265 776 288 796 q 243 711 243 756 q 244 683 243 694 q 251 661 246 672 q 267 637 257 650 q 296 603 278 624 q 337 558 314 582 q 383 508 360 533 q 430 455 407 482 q 472 400 453 428 q 522 312 508 351 q 536 222 536 272 q 515 126 536 169 q 457 52 493 83 q 373 3 421 21 q 272 -14 325 -14 q 185 -3 226 -14 q 109 31 143 8 q 51 85 75 53 q 15 161 26 118 l 96 221 q 162 117 121 150 q 271 85 203 85 q 390 123 344 85 q 436 225 436 161 q 428 273 436 249 q 394 333 419 297 q 303 444 353 392 q 207 556 253 497 q 156 639 172 599 q 139 726 139 679 q 151 790 139 760 q 186 845 163 821 q 245 883 210 869 q 326 897 281 897 q 400 883 371 897 q 454 842 429 869 l 382 767 z "},"t":{"ha":376,"x_min":17,"x_max":361,"o":"m 156 1176 q 214 1013 214 1103 l 214 883 l 361 883 l 361 783 l 214 783 l 214 136 q 223 77 214 104 q 251 26 232 50 l 169 -36 q 113 136 113 39 l 113 783 l 17 783 l 17 883 l 113 883 l 113 1013 q 78 1110 113 1067 l 156 1176 z "},"u":{"ha":742,"x_min":51,"x_max":707,"o":"m 135 919 q 192 747 192 844 l 192 357 q 243 160 192 233 q 390 86 294 86 q 586 106 489 86 q 568 238 568 172 l 568 729 q 582 834 568 786 q 625 919 596 882 l 707 858 q 679 807 689 835 q 669 747 669 779 l 669 204 q 679 123 669 169 q 707 14 689 76 q 642 3 681 8 q 560 -6 603 -1 q 477 -12 518 -10 q 406 -14 436 -14 q 264 10 324 -14 q 165 78 204 33 q 108 189 126 124 q 89 336 89 254 l 89 747 q 51 858 89 813 l 135 919 z "},"v":{"ha":717,"x_min":32,"x_max":696,"o":"m 118 919 q 364 214 335 571 q 391 399 372 310 q 440 574 410 488 q 513 746 471 660 q 608 919 554 832 l 696 865 q 606 708 649 794 q 528 515 564 621 q 465 281 493 408 q 418 0 436 153 l 311 0 q 268 265 292 147 q 213 483 244 382 q 136 677 181 585 q 32 865 92 769 l 118 919 z "},"w":{"ha":1104,"x_min":32,"x_max":1083,"o":"m 118 915 q 222 740 176 832 q 301 554 268 647 q 354 369 335 461 q 378 196 374 278 q 428 351 407 271 q 463 511 449 431 q 485 674 476 592 q 501 835 494 756 l 611 835 q 649 515 624 675 q 735 196 675 356 q 760 368 739 278 q 815 552 781 458 q 894 739 849 646 q 996 919 940 832 l 1083 865 q 978 681 1024 772 q 899 487 932 589 q 842 266 865 385 q 801 0 818 147 l 710 0 q 655 153 679 81 q 612 293 631 225 q 579 429 593 361 q 557 569 565 497 q 533 429 547 497 q 501 293 519 361 q 458 153 482 225 q 403 0 433 81 l 308 0 q 266 275 290 154 q 208 497 242 396 q 131 685 175 597 q 32 861 88 772 l 118 915 z "},"x":{"ha":729,"x_min":36,"x_max":694,"o":"m 36 893 q 69 897 54 896 q 88 897 83 897 q 181 872 139 897 q 254 806 222 847 q 280 767 268 789 q 306 714 292 746 q 338 636 319 682 q 381 526 356 590 q 404 565 390 543 q 443 629 418 588 q 509 740 468 671 q 613 919 550 808 l 693 861 l 426 421 q 465 330 438 379 q 528 233 492 281 q 607 141 564 185 q 694 67 650 97 l 629 -14 q 463 147 526 60 q 367 326 399 235 q 358 307 364 319 q 332 258 351 294 q 275 152 313 221 q 171 -36 238 83 l 85 19 q 195 214 154 142 q 260 328 236 286 q 296 390 283 369 q 321 428 308 410 q 292 494 311 450 q 253 587 274 539 q 214 678 233 635 q 182 740 194 721 q 142 783 167 768 q 74 797 118 797 q 36 793 54 797 l 36 893 z "},"y":{"ha":717,"x_min":32,"x_max":696,"o":"m 118 919 q 285 587 224 754 q 365 250 346 419 q 408 459 383 365 q 462 632 432 553 q 528 781 492 711 q 608 919 564 850 l 696 865 q 613 721 649 790 q 550 577 578 651 q 501 419 522 503 q 460 233 479 336 q 416 43 439 121 q 361 -92 393 -35 q 286 -197 329 -150 q 183 -293 243 -243 l 133 -204 q 216 -135 181 -171 q 277 -56 251 -99 q 319 40 303 -12 q 346 157 336 92 l 292 153 q 281 256 292 197 q 250 378 269 314 q 205 509 231 442 q 151 640 179 576 q 92 762 122 704 q 32 865 61 819 l 118 919 z "},"z":{"ha":700,"x_min":56,"x_max":658,"o":"m 78 849 q 156 886 117 875 q 250 897 196 897 q 324 887 289 897 q 390 863 358 876 q 452 840 422 850 q 514 829 482 829 q 560 853 529 829 l 601 886 l 651 799 q 345 497 469 664 q 171 139 221 329 q 236 147 196 147 q 283 138 253 147 q 347 117 314 129 q 412 97 381 106 q 460 88 443 88 q 500 90 482 88 q 536 101 518 93 q 573 122 554 108 q 615 156 592 135 l 658 63 q 565 5 615 24 q 460 -14 514 -14 q 393 -6 431 -14 q 319 12 356 3 q 253 29 282 21 q 211 38 224 38 q 151 30 176 38 q 93 -1 125 22 l 56 88 q 99 247 64 157 q 186 428 133 336 q 307 604 239 519 q 453 749 375 689 q 411 756 435 749 q 361 773 388 764 q 308 790 335 782 q 260 797 282 797 q 190 788 219 797 q 119 756 160 779 l 78 849 z "},"{":{"ha":349,"x_min":78,"x_max":308,"o":"m 308 1176 l 308 1094 l 276 1094 q 232 1029 232 1094 l 232 644 q 169 474 232 540 q 232 303 232 407 l 232 -147 q 242 -201 232 -186 q 272 -215 253 -215 l 308 -215 l 308 -293 l 251 -293 q 214 -282 232 -293 q 182 -253 196 -271 q 160 -212 168 -236 q 151 -164 151 -189 l 151 296 q 78 431 151 422 l 78 515 q 151 656 151 525 l 151 1029 q 181 1139 151 1101 q 254 1176 210 1176 l 308 1176 z "},"|":{"ha":432,"x_min":178,"x_max":254,"o":"m 254 1176 l 254 -293 l 178 -293 l 178 1176 l 254 1176 z "},"}":{"ha":349,"x_min":78,"x_max":308,"o":"m 132 1176 q 204 1139 175 1176 q 233 1029 233 1101 l 233 656 q 308 515 233 525 l 308 431 q 233 296 233 422 l 233 -164 q 225 -212 233 -189 q 203 -253 217 -236 q 172 -282 190 -271 q 135 -293 154 -293 l 78 -293 l 78 -215 l 114 -215 q 143 -201 133 -215 q 153 -147 153 -186 l 153 303 q 217 474 153 406 q 153 644 153 542 l 153 1029 q 108 1094 153 1094 l 78 1094 l 78 1176 l 132 1176 z "},"~":{"ha":521,"x_min":36,"x_max":482,"o":"m 36 493 q 106 522 78 514 q 163 531 133 531 q 211 526 189 531 q 254 515 233 521 q 298 505 275 510 q 349 500 321 500 q 399 508 375 500 q 458 529 424 515 l 482 432 q 416 404 444 413 q 356 396 388 396 q 298 401 322 396 q 253 413 274 407 q 216 425 233 419 q 181 431 199 431 q 151 429 164 431 q 125 424 138 428 q 98 413 113 419 q 64 394 83 406 l 36 493 z "}," ":{"ha":407,"x_min":0,"x_max":0,"o":""},"¡":{"ha":311,"x_min":85,"x_max":226,"o":"m 197 563 l 197 -293 l 114 -293 l 114 563 l 197 563 m 157 815 q 206 790 186 815 q 226 729 226 765 q 206 669 226 693 q 157 644 186 644 q 105 669 125 644 q 85 729 85 693 q 105 790 85 765 q 157 815 125 815 z "},"¢":{"ha":565,"x_min":46,"x_max":529,"o":"m 358 883 l 358 771 q 446 739 406 763 q 518 674 486 715 l 454 622 q 321 696 393 696 q 246 676 281 696 q 186 622 211 657 q 147 539 161 588 q 132 433 132 490 q 146 326 132 375 q 185 242 160 278 q 244 188 210 207 q 321 168 279 168 q 460 258 411 168 l 529 210 q 456 133 500 163 q 358 96 411 103 l 358 0 l 282 0 l 282 96 q 187 133 231 104 q 112 207 143 163 q 63 309 81 251 q 46 433 46 367 q 63 558 46 500 q 112 660 81 615 q 186 733 143 704 q 282 771 229 763 l 282 883 l 358 883 z "},"£":{"ha":758,"x_min":92,"x_max":672,"o":"m 161 418 q 114 514 135 463 q 93 631 93 565 q 113 740 93 690 q 169 824 133 789 q 252 878 204 860 q 354 897 300 897 q 453 880 407 897 q 535 832 499 863 q 597 760 571 801 q 639 668 624 718 l 554 632 q 482 751 533 704 q 357 797 431 797 q 238 749 282 797 q 194 622 194 701 q 219 519 194 569 q 274 418 244 468 l 499 418 l 499 324 l 321 324 q 344 224 344 274 q 339 167 344 193 q 325 119 333 142 q 369 113 349 117 q 412 104 390 108 q 457 97 433 100 q 510 93 481 93 q 579 100 544 93 q 661 122 614 107 l 672 24 q 580 -5 619 4 q 497 -14 540 -14 q 423 -8 454 -14 q 366 3 392 -3 q 319 15 340 10 q 272 21 297 21 q 232 19 250 21 q 196 13 214 17 q 158 1 178 8 q 111 -15 138 -6 l 92 85 q 162 108 132 99 q 218 119 192 117 q 235 224 235 163 q 228 275 235 250 q 211 324 222 300 l 103 324 l 103 418 l 161 418 z "},"¥":{"ha":854,"x_min":56,"x_max":799,"o":"m 131 1074 q 235 955 185 1015 q 324 834 285 894 q 392 716 364 774 q 431 608 419 658 q 532 817 461 696 q 729 1074 603 938 l 799 1001 q 684 865 738 935 q 590 728 631 796 q 524 597 550 660 q 490 482 497 535 l 735 482 l 735 392 l 488 392 l 488 293 l 735 293 l 735 201 l 488 201 l 488 146 q 529 26 488 89 l 446 -36 q 382 160 382 57 l 382 201 l 133 201 l 133 293 l 382 293 l 382 392 l 133 392 l 133 482 l 379 482 q 340 606 371 540 q 265 741 310 672 q 167 877 221 810 q 56 1006 113 944 l 131 1074 z "},"¦":{"ha":432,"x_min":178,"x_max":254,"o":"m 254 261 l 254 -293 l 178 -293 l 178 261 l 254 261 m 254 1176 l 254 719 l 178 719 l 178 1176 l 254 1176 z "},"¨":{"ha":510,"x_min":72,"x_max":438,"o":"m 372 1110 q 419 1092 400 1110 q 438 1049 438 1074 q 417 1002 438 1021 q 372 983 397 983 q 330 1002 349 983 q 311 1049 311 1021 q 330 1092 311 1074 q 372 1110 349 1110 m 72 1049 q 90 1092 72 1074 q 135 1110 108 1110 q 180 1092 163 1110 q 197 1049 197 1074 q 178 1002 197 1021 q 135 983 158 983 q 90 1002 108 983 q 72 1049 72 1021 z "},"©":{"ha":1346,"x_min":63,"x_max":1288,"o":"m 63 422 q 91 585 63 504 q 170 741 119 667 q 291 878 221 815 q 445 988 361 942 q 622 1062 529 1035 q 814 1089 715 1089 q 1002 1058 915 1089 q 1152 970 1089 1026 q 1251 837 1215 914 q 1288 668 1288 760 q 1260 498 1288 582 q 1185 338 1233 414 q 1067 197 1136 261 q 915 86 999 133 q 736 13 832 39 q 538 -14 640 -14 q 348 20 435 -14 q 197 113 261 54 q 98 251 133 172 q 63 422 63 331 m 131 418 q 159 276 131 342 q 240 161 188 210 q 367 85 293 113 q 532 57 440 57 q 783 108 660 57 q 1005 245 907 160 q 1163 441 1103 331 q 1222 671 1222 551 q 1192 815 1222 750 q 1108 924 1163 879 q 981 992 1054 968 q 819 1017 907 1017 q 569 968 693 1017 q 349 837 446 919 q 191 646 251 754 q 131 418 131 538 m 929 786 q 754 840 863 840 q 598 810 675 840 q 460 727 521 779 q 363 607 400 675 q 326 465 326 539 q 342 376 326 417 q 390 307 358 336 q 469 260 422 278 q 575 243 515 243 q 849 343 722 243 l 890 289 q 736 202 817 231 q 557 174 656 174 q 428 196 485 174 q 334 256 372 218 q 275 347 296 294 q 254 461 254 400 q 274 572 254 517 q 327 676 293 626 q 408 769 361 726 q 511 844 456 813 q 629 893 567 875 q 756 911 692 911 q 975 838 888 911 l 929 786 z "},"ª":{"ha":471,"x_min":44,"x_max":454,"o":"m 89 1014 q 133 1033 111 1028 q 176 1039 154 1039 q 276 1013 239 1039 q 325 921 313 988 l 333 875 q 344 812 338 850 q 365 733 351 774 q 401 653 379 692 q 454 590 422 615 l 421 528 q 373 570 397 543 q 336 625 349 597 q 279 556 317 578 q 189 533 242 533 q 127 547 154 533 q 82 581 100 560 q 54 628 64 601 q 44 682 44 654 q 104 800 44 758 q 168 845 142 826 q 210 878 194 864 q 233 904 226 892 q 240 932 240 917 q 185 972 240 972 q 148 966 165 972 q 115 949 131 960 l 89 1014 m 296 706 q 278 772 286 731 q 267 850 269 814 q 226 810 251 828 q 177 773 201 792 q 135 733 153 754 q 117 682 117 711 q 139 623 117 640 q 189 606 161 606 q 266 634 238 606 q 296 706 294 663 z "},"«":{"ha":667,"x_min":51,"x_max":614,"o":"m 281 806 l 281 681 l 126 572 l 281 463 l 281 338 l 51 517 l 51 628 l 281 806 m 614 806 l 614 681 l 460 572 l 614 463 l 614 338 l 385 517 l 385 628 l 614 806 z "},"®":{"ha":1346,"x_min":63,"x_max":1288,"o":"m 63 422 q 91 585 63 504 q 170 741 119 667 q 291 878 221 815 q 445 988 361 942 q 622 1062 529 1035 q 814 1089 715 1089 q 1002 1058 915 1089 q 1152 970 1089 1026 q 1251 837 1215 914 q 1288 668 1288 760 q 1260 498 1288 582 q 1185 338 1233 414 q 1067 197 1136 261 q 915 86 999 133 q 736 13 832 39 q 538 -14 640 -14 q 348 20 435 -14 q 197 113 261 54 q 98 251 133 172 q 63 422 63 331 m 317 808 q 181 628 232 728 q 131 418 131 528 q 159 276 131 342 q 240 161 188 210 q 367 85 293 113 q 532 57 440 57 q 746 94 640 57 q 942 196 851 132 l 939 196 q 872 217 913 196 q 783 283 832 239 q 605 430 676 381 q 478 479 533 479 l 432 479 l 432 229 l 369 229 l 369 808 l 317 808 m 733 872 q 867 857 808 872 q 965 815 925 842 q 1026 751 1006 788 q 1047 674 1047 715 q 1025 592 1047 629 q 963 529 1003 556 q 865 488 922 503 q 735 474 807 474 l 651 474 q 683 453 669 463 q 710 431 696 444 q 745 398 725 418 q 799 347 765 378 q 847 303 826 319 q 884 276 868 286 q 913 262 900 265 q 939 258 926 258 q 1040 278 1004 258 q 1173 462 1124 361 q 1222 671 1222 563 q 1192 815 1222 750 q 1108 924 1163 879 q 981 992 1054 968 q 819 1017 907 1017 q 596 978 706 1017 q 393 872 486 939 l 733 872 m 432 536 l 731 536 q 916 574 856 536 q 976 674 976 611 q 919 771 976 733 q 733 808 861 808 l 432 808 l 432 536 z "},"¯":{"ha":635,"x_min":72,"x_max":563,"o":"m 563 1074 l 563 974 l 72 974 l 72 1074 l 563 1074 z "},"°":{"ha":490,"x_min":43,"x_max":447,"o":"m 43 993 q 56 1063 43 1029 q 95 1121 69 1096 q 158 1161 121 1146 q 243 1176 196 1176 q 330 1161 292 1176 q 394 1121 368 1146 q 433 1063 419 1096 q 447 993 447 1029 q 433 922 447 956 q 394 863 419 888 q 330 822 368 838 q 243 807 292 807 q 158 822 196 807 q 95 863 121 838 q 56 922 69 888 q 43 993 43 956 m 136 993 q 160 918 136 949 q 243 888 185 888 q 329 918 303 888 q 356 993 356 949 q 329 1067 356 1038 q 243 1096 303 1096 q 160 1067 185 1096 q 136 993 136 1038 z "},"±":{"ha":521,"x_min":57,"x_max":464,"o":"m 215 517 l 215 672 l 306 672 l 306 517 l 464 517 l 464 426 l 306 426 l 306 267 l 215 267 l 215 426 l 57 426 l 57 517 l 215 517 m 464 93 l 464 3 l 57 3 l 57 93 l 464 93 z "},"²":{"ha":446,"x_min":49,"x_max":396,"o":"m 63 958 q 123 1054 81 1017 q 225 1092 165 1092 q 331 1051 288 1092 q 374 942 374 1010 q 311 797 374 868 q 147 668 249 725 l 396 668 l 396 594 l 49 594 l 49 676 q 165 752 117 718 q 244 817 214 786 q 289 876 275 847 q 303 936 303 906 q 281 999 303 975 q 224 1024 260 1024 q 162 997 188 1024 q 124 931 136 971 l 63 958 z "},"³":{"ha":376,"x_min":56,"x_max":319,"o":"m 319 1086 l 319 1028 q 289 939 313 982 q 225 864 265 896 q 284 810 261 849 q 307 728 307 772 q 255 591 307 649 q 90 485 203 533 l 63 551 q 190 619 144 572 q 235 728 235 667 q 208 798 235 771 q 154 825 182 825 q 140 819 146 825 l 119 874 q 160 892 139 879 q 199 924 181 906 q 231 966 217 943 q 251 1015 244 989 l 56 1015 l 56 1086 l 319 1086 z "},"´":{"ha":433,"x_min":72,"x_max":361,"o":"m 361 1176 l 183 947 l 72 947 l 221 1176 l 361 1176 z "},"·":{"ha":286,"x_min":72,"x_max":214,"o":"m 142 663 q 194 638 174 663 q 214 578 214 614 q 194 517 214 542 q 142 492 174 492 q 92 517 111 492 q 72 578 72 542 q 92 638 72 614 q 142 663 111 663 z "},"¸":{"ha":288,"x_min":72,"x_max":215,"o":"m 129 -218 q 88 -188 104 -214 q 72 -135 72 -162 q 92 -71 72 -96 q 143 -46 111 -46 q 193 -69 171 -46 q 215 -139 215 -93 q 160 -300 215 -197 l 111 -300 l 129 -218 z "},"¹":{"ha":251,"x_min":44,"x_max":181,"o":"m 158 1086 l 158 676 q 181 614 158 644 l 124 571 q 89 676 89 621 l 89 1015 l 44 1015 l 44 1086 l 158 1086 z "},"º":{"ha":471,"x_min":47,"x_max":415,"o":"m 233 1039 q 304 1020 271 1039 q 363 968 338 1001 q 401 888 388 935 q 415 788 415 842 q 401 685 415 732 q 363 605 388 639 q 306 552 339 571 q 233 533 272 533 q 159 552 193 533 q 100 605 125 571 q 61 685 75 639 q 47 788 47 732 q 61 888 47 842 q 100 968 75 935 q 159 1020 125 1001 q 233 1039 193 1039 m 233 969 q 189 956 210 969 q 153 918 168 942 q 128 860 138 894 q 119 788 119 826 q 153 656 119 707 q 233 604 186 604 q 312 656 279 604 q 344 788 344 707 q 313 918 344 867 q 233 969 281 969 z "},"»":{"ha":667,"x_min":51,"x_max":614,"o":"m 281 628 l 281 517 l 51 338 l 51 463 l 206 572 l 51 681 l 51 806 l 281 628 m 614 628 l 614 517 l 385 338 l 385 463 l 539 572 l 385 681 l 385 806 l 614 628 z "},"¼":{"ha":972,"x_min":75,"x_max":907,"o":"m 286 1086 l 286 676 q 308 614 286 644 l 251 571 q 217 676 217 621 l 217 1015 l 172 1015 l 172 1086 l 286 1086 m 907 1074 l 160 0 l 75 0 l 818 1074 l 907 1074 m 854 478 l 854 57 l 903 57 l 903 -14 l 854 -14 l 854 -128 l 785 -128 l 785 -14 l 508 -14 l 506 53 q 576 109 543 74 q 636 188 610 144 q 678 278 663 232 q 697 368 694 325 l 768 357 q 747 266 761 311 q 713 181 732 221 q 668 108 693 140 q 617 57 643 76 l 785 57 l 785 478 l 854 478 z "},"½":{"ha":1006,"x_min":75,"x_max":940,"o":"m 339 1086 l 339 676 q 361 614 339 644 l 304 571 q 269 676 269 621 l 269 1015 l 225 1015 l 225 1086 l 339 1086 m 907 1074 l 160 0 l 75 0 l 818 1074 l 907 1074 m 607 350 q 667 446 625 408 q 769 483 710 483 q 875 442 832 483 q 918 333 918 401 q 856 188 918 260 q 692 60 793 117 l 940 60 l 940 -14 l 593 -14 l 593 68 q 710 144 661 110 q 789 208 758 178 q 833 268 819 239 q 847 328 847 297 q 826 391 847 367 q 768 415 804 415 q 706 389 732 415 q 668 322 681 363 l 607 350 z "},"¾":{"ha":988,"x_min":75,"x_max":922,"o":"m 404 1086 l 404 1028 q 374 939 397 982 q 310 864 350 896 q 369 810 346 849 q 392 728 392 772 q 340 591 392 649 q 175 485 288 533 l 147 551 q 274 619 229 572 q 319 728 319 667 q 293 798 319 771 q 239 825 267 825 q 225 819 231 825 l 204 874 q 244 892 224 879 q 283 924 265 906 q 315 966 301 943 q 336 1015 329 989 l 140 1015 l 140 1086 l 404 1086 m 907 1074 l 160 0 l 75 0 l 818 1074 l 907 1074 m 874 478 l 874 57 l 922 57 l 922 -14 l 874 -14 l 874 -128 l 804 -128 l 804 -14 l 528 -14 l 525 53 q 596 109 563 74 q 656 188 629 144 q 698 278 682 232 q 717 368 714 325 l 788 357 q 766 266 781 311 q 732 181 751 221 q 688 108 713 140 q 636 57 663 76 l 804 57 l 804 478 l 874 478 z "},"¿":{"ha":539,"x_min":82,"x_max":454,"o":"m 308 550 l 308 499 q 294 366 308 444 q 247 186 279 288 q 201 6 215 82 q 188 -122 188 -69 q 256 -197 188 -197 q 303 -190 285 -197 q 334 -162 322 -183 q 352 -99 346 -140 q 365 11 358 -58 l 454 3 q 256 -300 454 -300 q 127 -253 172 -300 q 82 -122 82 -206 q 101 8 82 -67 q 158 186 121 83 q 214 367 194 289 q 233 499 233 444 l 233 550 l 308 550 m 275 824 q 324 799 304 824 q 344 738 344 774 q 324 677 344 701 q 275 653 304 653 q 223 677 243 653 q 203 738 203 701 q 223 799 203 774 q 275 824 243 824 z "},"À":{"ha":1176,"x_min":31,"x_max":1167,"o":"m 657 1074 q 736 838 688 963 q 850 580 785 713 q 995 308 915 447 q 1167 28 1075 168 l 1076 -24 q 1009 83 1044 25 q 935 208 974 140 l 276 208 q 122 -25 203 88 l 31 28 q 359 606 235 350 q 539 1074 483 861 l 657 1074 m 876 315 q 788 476 831 396 q 708 637 744 556 q 643 803 671 718 q 599 982 615 889 q 554 806 581 888 q 494 646 528 724 q 422 488 461 568 q 336 315 382 407 l 876 315 m 524 1367 l 674 1138 l 563 1138 l 385 1367 l 524 1367 z "},"Á":{"ha":1176,"x_min":31,"x_max":1167,"o":"m 657 1074 q 736 838 688 963 q 850 580 785 713 q 995 308 915 447 q 1167 28 1075 168 l 1076 -24 q 1009 83 1044 25 q 935 208 974 140 l 276 208 q 122 -25 203 88 l 31 28 q 359 606 235 350 q 539 1074 483 861 l 657 1074 m 876 315 q 788 476 831 396 q 708 637 744 556 q 643 803 671 718 q 599 982 615 889 q 554 806 581 888 q 494 646 528 724 q 422 488 461 568 q 336 315 382 407 l 876 315 m 813 1367 l 635 1138 l 524 1138 l 672 1367 l 813 1367 z "},"Â":{"ha":1176,"x_min":31,"x_max":1167,"o":"m 657 1074 q 736 838 688 963 q 850 580 785 713 q 995 308 915 447 q 1167 28 1075 168 l 1076 -24 q 1009 83 1044 25 q 935 208 974 140 l 276 208 q 122 -25 203 88 l 31 28 q 359 606 235 350 q 539 1074 483 861 l 657 1074 m 876 315 q 788 476 831 396 q 708 637 744 556 q 643 803 671 718 q 599 982 615 889 q 554 806 581 888 q 494 646 528 724 q 422 488 461 568 q 336 315 382 407 l 876 315 m 643 1367 l 822 1138 l 697 1138 l 588 1290 l 479 1138 l 354 1138 l 532 1367 l 643 1367 z "},"Ã":{"ha":1176,"x_min":31,"x_max":1167,"o":"m 657 1074 q 736 838 688 963 q 850 580 785 713 q 995 308 915 447 q 1167 28 1075 168 l 1076 -24 q 1009 83 1044 25 q 935 208 974 140 l 276 208 q 122 -25 203 88 l 31 28 q 359 606 235 350 q 539 1074 483 861 l 657 1074 m 876 315 q 788 476 831 396 q 708 637 744 556 q 643 803 671 718 q 599 982 615 889 q 554 806 581 888 q 494 646 528 724 q 422 488 461 568 q 336 315 382 407 l 876 315 m 376 1256 q 446 1285 418 1276 q 503 1293 474 1293 q 553 1288 531 1293 q 596 1278 575 1283 q 639 1267 617 1272 q 689 1263 661 1263 q 740 1270 715 1263 q 800 1292 765 1278 l 822 1194 q 756 1167 785 1175 q 696 1158 728 1158 q 638 1164 663 1158 q 594 1176 614 1169 q 556 1188 574 1182 q 521 1193 539 1193 q 465 1186 488 1193 q 406 1157 443 1179 l 376 1256 z "},"Ä":{"ha":1176,"x_min":31,"x_max":1167,"o":"m 657 1074 q 736 838 688 963 q 850 580 785 713 q 995 308 915 447 q 1167 28 1075 168 l 1076 -24 q 1009 83 1044 25 q 935 208 974 140 l 276 208 q 122 -25 203 88 l 31 28 q 359 606 235 350 q 539 1074 483 861 l 657 1074 m 876 315 q 788 476 831 396 q 708 637 744 556 q 643 803 671 718 q 599 982 615 889 q 554 806 581 888 q 494 646 528 724 q 422 488 461 568 q 336 315 382 407 l 876 315 m 717 1300 q 763 1282 744 1300 q 782 1239 782 1264 q 762 1192 782 1211 q 717 1174 742 1174 q 674 1192 693 1174 q 656 1239 656 1211 q 674 1282 656 1264 q 717 1300 693 1300 m 417 1239 q 435 1282 417 1264 q 479 1300 453 1300 q 524 1282 507 1300 q 542 1239 542 1264 q 522 1192 542 1211 q 479 1174 503 1174 q 435 1192 453 1174 q 417 1239 417 1211 z "},"Å":{"ha":1176,"x_min":31,"x_max":1167,"o":"m 657 1074 q 736 838 688 963 q 850 580 785 713 q 995 308 915 447 q 1167 28 1075 168 l 1076 -24 q 1009 83 1044 25 q 935 208 974 140 l 276 208 q 122 -25 203 88 l 31 28 q 359 606 235 350 q 539 1074 483 861 l 657 1074 m 876 315 q 788 476 831 396 q 708 637 744 556 q 643 803 671 718 q 599 982 615 889 q 554 806 581 888 q 494 646 528 724 q 422 488 461 568 q 336 315 382 407 l 876 315 m 446 1228 q 485 1325 446 1283 q 597 1367 525 1367 q 711 1325 671 1367 q 751 1228 751 1283 q 711 1129 751 1171 q 597 1088 671 1088 q 485 1129 525 1088 q 446 1228 446 1171 m 517 1228 q 535 1172 517 1194 q 597 1149 553 1149 q 662 1172 642 1149 q 682 1228 682 1194 q 662 1283 682 1261 q 597 1306 642 1306 q 535 1283 553 1306 q 517 1228 517 1261 z "},"Æ":{"ha":1785,"x_min":31,"x_max":1726,"o":"m 1726 1074 l 1726 969 l 953 969 l 953 624 l 1581 624 l 1581 518 l 953 518 l 953 106 l 1726 106 l 1726 0 l 849 0 l 849 208 l 276 208 q 122 -25 203 88 l 31 28 q 359 606 235 350 q 539 1074 483 861 l 1726 1074 m 596 969 q 551 797 576 876 q 492 640 525 717 q 419 485 458 564 q 336 315 381 406 l 849 315 l 849 969 l 596 969 z "},"Ç":{"ha":1164,"x_min":57,"x_max":1135,"o":"m 1065 901 q 804 983 967 983 q 570 938 685 983 q 365 814 456 892 q 219 634 275 736 q 164 421 164 532 q 188 288 164 349 q 260 184 213 228 q 376 115 307 140 q 536 90 446 90 q 944 239 756 90 l 1007 158 q 778 28 899 71 q 510 -14 657 -14 q 317 19 401 -14 q 176 109 233 51 q 88 245 118 167 q 57 415 57 324 q 85 581 57 499 q 165 738 114 663 q 286 876 215 813 q 440 988 357 940 q 617 1062 524 1035 q 807 1089 710 1089 q 1135 979 1003 1089 l 1065 901 m 511 -218 q 470 -188 486 -214 q 454 -135 454 -162 q 474 -71 454 -96 q 525 -46 493 -46 q 575 -69 553 -46 q 597 -139 597 -93 q 542 -300 597 -197 l 493 -300 l 511 -218 z "},"È":{"ha":1125,"x_min":92,"x_max":1067,"o":"m 1067 1074 l 1067 969 l 293 969 l 293 624 l 921 624 l 921 518 l 293 518 l 293 106 l 1067 106 l 1067 0 l 189 0 l 189 518 l 92 518 l 92 624 l 189 624 l 189 969 l 92 969 l 92 1074 l 1067 1074 m 529 1367 l 679 1138 l 568 1138 l 390 1367 l 529 1367 z "},"É":{"ha":1125,"x_min":92,"x_max":1067,"o":"m 1067 1074 l 1067 969 l 293 969 l 293 624 l 921 624 l 921 518 l 293 518 l 293 106 l 1067 106 l 1067 0 l 189 0 l 189 518 l 92 518 l 92 624 l 189 624 l 189 969 l 92 969 l 92 1074 l 1067 1074 m 804 1367 l 626 1138 l 515 1138 l 664 1367 l 804 1367 z "},"Ê":{"ha":1125,"x_min":92,"x_max":1067,"o":"m 1067 1074 l 1067 969 l 293 969 l 293 624 l 921 624 l 921 518 l 293 518 l 293 106 l 1067 106 l 1067 0 l 189 0 l 189 518 l 92 518 l 92 624 l 189 624 l 189 969 l 92 969 l 92 1074 l 1067 1074 m 658 1367 l 838 1138 l 713 1138 l 603 1290 l 494 1138 l 369 1138 l 547 1367 l 658 1367 z "},"Ë":{"ha":1125,"x_min":92,"x_max":1067,"o":"m 1067 1074 l 1067 969 l 293 969 l 293 624 l 921 624 l 921 518 l 293 518 l 293 106 l 1067 106 l 1067 0 l 189 0 l 189 518 l 92 518 l 92 624 l 189 624 l 189 969 l 92 969 l 92 1074 l 1067 1074 m 721 1300 q 767 1282 749 1300 q 786 1239 786 1264 q 766 1192 786 1211 q 721 1174 746 1174 q 678 1192 697 1174 q 660 1239 660 1211 q 678 1282 660 1264 q 721 1300 697 1300 m 421 1239 q 439 1282 421 1264 q 483 1300 457 1300 q 528 1282 511 1300 q 546 1239 546 1264 q 526 1192 546 1211 q 483 1174 507 1174 q 439 1192 457 1174 q 421 1239 421 1211 z "},"Ì":{"ha":389,"x_min":10,"x_max":335,"o":"m 293 1074 l 293 160 q 303 89 293 124 q 335 26 313 54 l 251 -36 q 189 160 189 49 l 189 969 l 92 969 l 92 1074 l 293 1074 m 149 1367 l 299 1138 l 188 1138 l 10 1367 l 149 1367 z "},"Í":{"ha":389,"x_min":92,"x_max":436,"o":"m 293 1074 l 293 160 q 303 89 293 124 q 335 26 313 54 l 251 -36 q 189 160 189 49 l 189 969 l 92 969 l 92 1074 l 293 1074 m 436 1367 l 258 1138 l 147 1138 l 296 1367 l 436 1367 z "},"Î":{"ha":389,"x_min":-10,"x_max":458,"o":"m 293 1074 l 293 160 q 303 89 293 124 q 335 26 313 54 l 251 -36 q 189 160 189 49 l 189 969 l 92 969 l 92 1074 l 293 1074 m 279 1367 l 458 1138 l 333 1138 l 224 1290 l 115 1138 l -10 1138 l 168 1367 l 279 1367 z "},"Ï":{"ha":389,"x_min":42,"x_max":407,"o":"m 293 1074 l 293 160 q 303 89 293 124 q 335 26 313 54 l 251 -36 q 189 160 189 49 l 189 969 l 92 969 l 92 1074 l 293 1074 m 342 1300 q 388 1282 369 1300 q 407 1239 407 1264 q 387 1192 407 1211 q 342 1174 367 1174 q 299 1192 318 1174 q 281 1239 281 1211 q 299 1282 281 1264 q 342 1300 318 1300 m 42 1239 q 60 1282 42 1264 q 104 1300 78 1300 q 149 1282 132 1300 q 167 1239 167 1264 q 147 1192 167 1211 q 104 1174 128 1174 q 60 1192 78 1174 q 42 1239 42 1211 z "},"Ð":{"ha":1372,"x_min":47,"x_max":1322,"o":"m 882 1074 q 1067 1051 986 1074 q 1206 978 1149 1028 q 1292 852 1263 929 q 1322 668 1322 775 q 1265 417 1322 538 q 1107 203 1208 296 q 868 56 1006 111 q 569 0 731 0 l 149 0 l 149 518 l 51 518 l 51 624 l 149 624 l 149 969 l 47 969 l 47 1074 l 882 1074 m 253 624 l 881 624 l 881 518 l 253 518 l 253 106 l 569 106 q 835 155 715 106 q 1040 283 954 204 q 1172 462 1125 363 q 1218 663 1218 561 q 1199 804 1218 746 q 1135 899 1179 863 q 1020 953 1092 936 q 844 969 949 969 l 253 969 l 253 624 z "},"Ñ":{"ha":1281,"x_min":92,"x_max":1226,"o":"m 336 1074 l 1081 325 l 1081 1074 l 1183 1074 l 1183 160 q 1226 26 1183 85 l 1143 -36 q 1081 160 1081 49 l 1081 196 l 286 982 l 286 160 q 328 26 286 82 l 243 -36 q 197 56 213 7 q 181 160 181 106 l 181 969 l 92 969 l 92 1074 l 336 1074 m 417 1256 q 486 1285 458 1276 q 543 1293 514 1293 q 593 1288 571 1293 q 636 1278 615 1283 q 679 1267 657 1272 q 729 1263 701 1263 q 781 1270 756 1263 q 840 1292 806 1278 l 863 1194 q 797 1167 825 1175 q 736 1158 768 1158 q 678 1164 703 1158 q 634 1176 654 1169 q 597 1188 614 1182 q 561 1193 579 1193 q 506 1186 528 1193 q 446 1157 483 1179 l 417 1256 z "},"Ò":{"ha":1346,"x_min":63,"x_max":1288,"o":"m 63 422 q 91 585 63 504 q 170 741 119 667 q 291 878 221 815 q 445 988 361 942 q 622 1062 529 1035 q 814 1089 715 1089 q 1002 1058 915 1089 q 1152 970 1089 1026 q 1251 837 1215 914 q 1288 668 1288 760 q 1258 501 1288 585 q 1178 342 1229 418 q 1056 201 1126 267 q 901 88 985 136 q 726 13 818 40 q 538 -14 633 -14 q 348 20 435 -14 q 197 113 261 54 q 98 251 133 172 q 63 422 63 331 m 168 426 q 194 293 168 354 q 270 187 221 232 q 388 116 319 142 q 542 90 457 90 q 776 141 661 90 q 983 273 892 192 q 1129 457 1074 354 q 1185 663 1185 560 q 1156 796 1185 736 q 1078 897 1128 856 q 959 961 1028 939 q 808 983 890 983 q 576 935 690 983 q 370 808 461 886 q 224 629 279 729 q 168 426 168 529 m 736 1367 l 886 1138 l 775 1138 l 597 1367 l 736 1367 z "},"Ó":{"ha":1346,"x_min":63,"x_max":1288,"o":"m 63 422 q 91 585 63 504 q 170 741 119 667 q 291 878 221 815 q 445 988 361 942 q 622 1062 529 1035 q 814 1089 715 1089 q 1002 1058 915 1089 q 1152 970 1089 1026 q 1251 837 1215 914 q 1288 668 1288 760 q 1258 501 1288 585 q 1178 342 1229 418 q 1056 201 1126 267 q 901 88 985 136 q 726 13 818 40 q 538 -14 633 -14 q 348 20 435 -14 q 197 113 261 54 q 98 251 133 172 q 63 422 63 331 m 168 426 q 194 293 168 354 q 270 187 221 232 q 388 116 319 142 q 542 90 457 90 q 776 141 661 90 q 983 273 892 192 q 1129 457 1074 354 q 1185 663 1185 560 q 1156 796 1185 736 q 1078 897 1128 856 q 959 961 1028 939 q 808 983 890 983 q 576 935 690 983 q 370 808 461 886 q 224 629 279 729 q 168 426 168 529 m 1025 1367 l 847 1138 l 736 1138 l 885 1367 l 1025 1367 z "},"Ô":{"ha":1346,"x_min":63,"x_max":1288,"o":"m 63 422 q 91 585 63 504 q 170 741 119 667 q 291 878 221 815 q 445 988 361 942 q 622 1062 529 1035 q 814 1089 715 1089 q 1002 1058 915 1089 q 1152 970 1089 1026 q 1251 837 1215 914 q 1288 668 1288 760 q 1258 501 1288 585 q 1178 342 1229 418 q 1056 201 1126 267 q 901 88 985 136 q 726 13 818 40 q 538 -14 633 -14 q 348 20 435 -14 q 197 113 261 54 q 98 251 133 172 q 63 422 63 331 m 168 426 q 194 293 168 354 q 270 187 221 232 q 388 116 319 142 q 542 90 457 90 q 776 141 661 90 q 983 273 892 192 q 1129 457 1074 354 q 1185 663 1185 560 q 1156 796 1185 736 q 1078 897 1128 856 q 959 961 1028 939 q 808 983 890 983 q 576 935 690 983 q 370 808 461 886 q 224 629 279 729 q 168 426 168 529 m 867 1367 l 1046 1138 l 921 1138 l 811 1290 l 703 1138 l 578 1138 l 756 1367 l 867 1367 z "},"Õ":{"ha":1346,"x_min":63,"x_max":1288,"o":"m 63 422 q 91 585 63 504 q 170 741 119 667 q 291 878 221 815 q 445 988 361 942 q 622 1062 529 1035 q 814 1089 715 1089 q 1002 1058 915 1089 q 1152 970 1089 1026 q 1251 837 1215 914 q 1288 668 1288 760 q 1258 501 1288 585 q 1178 342 1229 418 q 1056 201 1126 267 q 901 88 985 136 q 726 13 818 40 q 538 -14 633 -14 q 348 20 435 -14 q 197 113 261 54 q 98 251 133 172 q 63 422 63 331 m 168 426 q 194 293 168 354 q 270 187 221 232 q 388 116 319 142 q 542 90 457 90 q 776 141 661 90 q 983 273 892 192 q 1129 457 1074 354 q 1185 663 1185 560 q 1156 796 1185 736 q 1078 897 1128 856 q 959 961 1028 939 q 808 983 890 983 q 576 935 690 983 q 370 808 461 886 q 224 629 279 729 q 168 426 168 529 m 589 1256 q 658 1285 631 1276 q 715 1293 686 1293 q 765 1288 743 1293 q 808 1278 788 1283 q 851 1267 829 1272 q 901 1263 874 1263 q 953 1270 928 1263 q 1013 1292 978 1278 l 1035 1194 q 969 1167 997 1175 q 908 1158 940 1158 q 851 1164 875 1158 q 806 1176 826 1169 q 769 1188 786 1182 q 733 1193 751 1193 q 678 1186 700 1193 q 618 1157 656 1179 l 589 1256 z "},"Ö":{"ha":1346,"x_min":63,"x_max":1288,"o":"m 63 422 q 91 585 63 504 q 170 741 119 667 q 291 878 221 815 q 445 988 361 942 q 622 1062 529 1035 q 814 1089 715 1089 q 1002 1058 915 1089 q 1152 970 1089 1026 q 1251 837 1215 914 q 1288 668 1288 760 q 1258 501 1288 585 q 1178 342 1229 418 q 1056 201 1126 267 q 901 88 985 136 q 726 13 818 40 q 538 -14 633 -14 q 348 20 435 -14 q 197 113 261 54 q 98 251 133 172 q 63 422 63 331 m 168 426 q 194 293 168 354 q 270 187 221 232 q 388 116 319 142 q 542 90 457 90 q 776 141 661 90 q 983 273 892 192 q 1129 457 1074 354 q 1185 663 1185 560 q 1156 796 1185 736 q 1078 897 1128 856 q 959 961 1028 939 q 808 983 890 983 q 576 935 690 983 q 370 808 461 886 q 224 629 279 729 q 168 426 168 529 m 929 1300 q 976 1282 957 1300 q 994 1239 994 1264 q 974 1192 994 1211 q 929 1174 954 1174 q 887 1192 906 1174 q 868 1239 868 1211 q 887 1282 868 1264 q 929 1300 906 1300 m 629 1239 q 647 1282 629 1264 q 692 1300 665 1300 q 737 1282 719 1300 q 754 1239 754 1264 q 735 1192 754 1211 q 692 1174 715 1174 q 647 1192 665 1174 q 629 1239 629 1211 z "},"×":{"ha":521,"x_min":85,"x_max":438,"o":"m 261 533 l 371 644 l 436 581 l 325 471 l 438 358 l 374 294 l 261 406 l 149 294 l 85 357 l 199 471 l 86 581 l 150 646 l 261 533 z "},"Ø":{"ha":1346,"x_min":63,"x_max":1288,"o":"m 1175 1176 l 1075 1024 q 1230 878 1172 969 q 1288 668 1288 786 q 1258 501 1288 585 q 1178 342 1229 418 q 1056 201 1126 267 q 901 88 985 136 q 726 13 818 40 q 538 -14 633 -14 q 400 3 464 -14 l 335 -97 l 229 -97 l 315 33 q 131 190 199 88 q 63 422 63 293 q 91 585 63 504 q 170 741 119 667 q 291 878 221 815 q 445 988 361 942 q 622 1062 529 1035 q 814 1089 715 1089 q 989 1061 908 1089 l 1065 1176 l 1175 1176 m 929 969 q 871 980 901 976 q 808 983 840 983 q 576 935 690 983 q 370 808 461 886 q 224 629 279 729 q 168 426 168 529 q 222 242 168 322 q 372 121 276 161 l 929 969 m 463 96 q 501 92 482 93 q 542 90 521 90 q 776 141 661 90 q 983 273 892 192 q 1129 457 1074 354 q 1185 663 1185 560 q 1140 826 1185 757 q 1017 936 1094 896 l 463 96 z "},"Ù":{"ha":1351,"x_min":88,"x_max":1324,"o":"m 289 1074 l 289 429 q 315 289 289 351 q 388 182 340 226 q 501 114 435 138 q 646 90 567 90 q 864 139 760 90 q 1047 269 968 188 q 1174 459 1126 351 q 1221 686 1221 567 l 1221 1074 l 1324 1074 l 1324 686 q 1268 417 1324 544 q 1119 194 1213 290 q 902 42 1025 99 q 644 -14 779 -14 q 456 19 542 -14 q 310 110 371 51 q 217 251 250 169 q 183 429 183 332 l 183 969 l 88 969 l 88 1074 l 289 1074 m 642 1367 l 792 1138 l 681 1138 l 503 1367 l 642 1367 z "},"Ú":{"ha":1351,"x_min":88,"x_max":1324,"o":"m 289 1074 l 289 429 q 315 289 289 351 q 388 182 340 226 q 501 114 435 138 q 646 90 567 90 q 864 139 760 90 q 1047 269 968 188 q 1174 459 1126 351 q 1221 686 1221 567 l 1221 1074 l 1324 1074 l 1324 686 q 1268 417 1324 544 q 1119 194 1213 290 q 902 42 1025 99 q 644 -14 779 -14 q 456 19 542 -14 q 310 110 371 51 q 217 251 250 169 q 183 429 183 332 l 183 969 l 88 969 l 88 1074 l 289 1074 m 917 1367 l 739 1138 l 628 1138 l 776 1367 l 917 1367 z "},"Û":{"ha":1351,"x_min":88,"x_max":1324,"o":"m 289 1074 l 289 429 q 315 289 289 351 q 388 182 340 226 q 501 114 435 138 q 646 90 567 90 q 864 139 760 90 q 1047 269 968 188 q 1174 459 1126 351 q 1221 686 1221 567 l 1221 1074 l 1324 1074 l 1324 686 q 1268 417 1324 544 q 1119 194 1213 290 q 902 42 1025 99 q 644 -14 779 -14 q 456 19 542 -14 q 310 110 371 51 q 217 251 250 169 q 183 429 183 332 l 183 969 l 88 969 l 88 1074 l 289 1074 m 786 1367 l 965 1138 l 840 1138 l 731 1290 l 622 1138 l 497 1138 l 675 1367 l 786 1367 z "},"Ü":{"ha":1351,"x_min":88,"x_max":1324,"o":"m 289 1074 l 289 429 q 315 289 289 351 q 388 182 340 226 q 501 114 435 138 q 646 90 567 90 q 864 139 760 90 q 1047 269 968 188 q 1174 459 1126 351 q 1221 686 1221 567 l 1221 1074 l 1324 1074 l 1324 686 q 1268 417 1324 544 q 1119 194 1213 290 q 902 42 1025 99 q 644 -14 779 -14 q 456 19 542 -14 q 310 110 371 51 q 217 251 250 169 q 183 429 183 332 l 183 969 l 88 969 l 88 1074 l 289 1074 m 863 1300 q 909 1282 890 1300 q 928 1239 928 1264 q 908 1192 928 1211 q 863 1174 888 1174 q 820 1192 839 1174 q 801 1239 801 1211 q 820 1282 801 1264 q 863 1300 839 1300 m 563 1239 q 581 1282 563 1264 q 625 1300 599 1300 q 670 1282 653 1300 q 688 1239 688 1264 q 668 1192 688 1211 q 625 1174 649 1174 q 581 1192 599 1174 q 563 1239 563 1211 z "},"Ý":{"ha":1217,"x_min":32,"x_max":1194,"o":"m 97 1110 q 264 958 179 1043 q 421 784 349 874 q 545 606 493 694 q 613 442 597 517 q 673 578 633 501 q 775 742 713 656 q 925 923 838 829 q 1131 1110 1013 1017 l 1194 1029 q 996 853 1090 953 q 828 649 901 753 q 713 448 756 546 q 669 278 669 350 l 669 146 q 711 26 669 89 l 628 -36 q 564 160 564 57 l 564 278 q 538 402 564 335 q 469 541 513 469 q 371 684 426 613 q 256 820 315 756 q 139 938 197 885 q 32 1029 81 992 l 97 1110 m 822 1367 l 644 1138 l 533 1138 l 682 1367 l 822 1367 z "},"Þ":{"ha":1314,"x_min":40,"x_max":1271,"o":"m 246 1074 l 246 874 l 756 874 q 969 848 874 874 q 1131 776 1064 822 q 1235 669 1199 731 q 1271 538 1271 608 q 1232 405 1271 465 q 1122 301 1193 344 q 953 232 1051 257 q 738 207 856 207 l 246 207 l 246 0 l 140 0 l 140 969 l 40 969 l 40 1074 l 246 1074 m 246 313 l 738 313 q 902 329 826 313 q 1033 376 978 346 q 1121 448 1089 406 q 1153 543 1153 490 q 1127 634 1153 593 q 1050 706 1101 675 q 921 753 999 736 q 739 769 843 769 l 246 769 l 246 313 z "},"ß":{"ha":803,"x_min":60,"x_max":740,"o":"m 199 -121 q 140 -293 199 -214 l 60 -231 q 96 -121 96 -186 l 96 903 q 315 1176 96 1176 q 410 1163 365 1176 q 487 1122 454 1149 q 538 1054 519 1094 q 557 960 557 1014 q 549 895 557 922 q 526 846 540 868 q 494 805 513 824 q 457 767 476 786 q 420 727 433 743 q 400 698 407 711 q 391 673 393 685 q 389 646 389 661 q 412 576 389 597 q 479 535 435 554 q 609 472 558 501 q 689 412 660 443 q 729 344 718 381 q 740 257 740 307 q 656 60 740 133 q 418 -14 571 -14 q 286 0 354 -14 l 307 97 q 374 85 343 89 q 432 82 404 82 q 529 95 490 82 q 592 132 568 108 q 627 188 617 156 q 638 258 638 221 q 615 342 638 313 q 546 396 592 371 q 455 440 501 419 q 371 487 408 461 q 310 549 333 513 q 286 642 286 586 q 290 693 286 671 q 304 735 293 715 q 334 778 315 756 q 385 829 353 800 q 419 865 406 850 q 442 896 433 881 q 453 928 450 911 q 456 965 456 944 q 420 1047 456 1021 q 332 1072 385 1072 q 226 1032 254 1072 q 199 896 199 992 l 199 -121 z "},"à":{"ha":779,"x_min":53,"x_max":779,"o":"m 142 860 q 286 897 206 897 q 460 851 399 897 q 544 689 521 804 q 555 634 550 661 q 565 574 560 607 q 578 500 571 542 q 599 403 586 458 q 669 209 621 299 q 779 71 718 119 l 735 -19 q 688 19 713 -6 q 642 71 664 43 q 603 128 621 99 q 578 185 586 158 q 478 35 549 85 q 308 -14 408 -14 q 199 8 247 -14 q 119 67 151 31 q 69 150 86 103 q 53 246 53 197 q 160 453 53 375 q 210 488 183 469 q 264 523 238 506 q 314 556 290 540 q 353 585 338 572 q 418 711 418 642 q 300 800 418 800 q 179 767 222 800 l 142 860 m 524 296 q 504 363 514 322 q 486 447 494 403 q 472 534 478 492 q 465 608 465 576 q 391 512 442 557 q 274 426 340 467 q 185 347 211 389 q 158 246 158 304 q 171 173 158 203 q 204 124 183 143 q 252 97 225 106 q 308 88 279 88 q 397 103 357 88 q 465 148 436 119 q 508 214 493 176 q 524 296 524 251 m 231 1176 l 381 947 l 269 947 l 92 1176 l 231 1176 z "},"á":{"ha":779,"x_min":53,"x_max":779,"o":"m 142 860 q 286 897 206 897 q 460 851 399 897 q 544 689 521 804 q 555 634 550 661 q 565 574 560 607 q 578 500 571 542 q 599 403 586 458 q 669 209 621 299 q 779 71 718 119 l 735 -19 q 688 19 713 -6 q 642 71 664 43 q 603 128 621 99 q 578 185 586 158 q 478 35 549 85 q 308 -14 408 -14 q 199 8 247 -14 q 119 67 151 31 q 69 150 86 103 q 53 246 53 197 q 160 453 53 375 q 210 488 183 469 q 264 523 238 506 q 314 556 290 540 q 353 585 338 572 q 418 711 418 642 q 300 800 418 800 q 179 767 222 800 l 142 860 m 524 296 q 504 363 514 322 q 486 447 494 403 q 472 534 478 492 q 465 608 465 576 q 391 512 442 557 q 274 426 340 467 q 185 347 211 389 q 158 246 158 304 q 171 173 158 203 q 204 124 183 143 q 252 97 225 106 q 308 88 279 88 q 397 103 357 88 q 465 148 436 119 q 508 214 493 176 q 524 296 524 251 m 525 1176 l 347 947 l 236 947 l 385 1176 l 525 1176 z "},"â":{"ha":779,"x_min":53,"x_max":779,"o":"m 142 860 q 286 897 206 897 q 460 851 399 897 q 544 689 521 804 q 555 634 550 661 q 565 574 560 607 q 578 500 571 542 q 599 403 586 458 q 669 209 621 299 q 779 71 718 119 l 735 -19 q 688 19 713 -6 q 642 71 664 43 q 603 128 621 99 q 578 185 586 158 q 478 35 549 85 q 308 -14 408 -14 q 199 8 247 -14 q 119 67 151 31 q 69 150 86 103 q 53 246 53 197 q 160 453 53 375 q 210 488 183 469 q 264 523 238 506 q 314 556 290 540 q 353 585 338 572 q 418 711 418 642 q 300 800 418 800 q 179 767 222 800 l 142 860 m 524 296 q 504 363 514 322 q 486 447 494 403 q 472 534 478 492 q 465 608 465 576 q 391 512 442 557 q 274 426 340 467 q 185 347 211 389 q 158 246 158 304 q 171 173 158 203 q 204 124 183 143 q 252 97 225 106 q 308 88 279 88 q 397 103 357 88 q 465 148 436 119 q 508 214 493 176 q 524 296 524 251 m 382 1176 l 561 947 l 436 947 l 326 1100 l 218 947 l 93 947 l 271 1176 l 382 1176 z "},"ã":{"ha":779,"x_min":53,"x_max":779,"o":"m 142 860 q 286 897 206 897 q 460 851 399 897 q 544 689 521 804 q 555 634 550 661 q 565 574 560 607 q 578 500 571 542 q 599 403 586 458 q 669 209 621 299 q 779 71 718 119 l 735 -19 q 688 19 713 -6 q 642 71 664 43 q 603 128 621 99 q 578 185 586 158 q 478 35 549 85 q 308 -14 408 -14 q 199 8 247 -14 q 119 67 151 31 q 69 150 86 103 q 53 246 53 197 q 160 453 53 375 q 210 488 183 469 q 264 523 238 506 q 314 556 290 540 q 353 585 338 572 q 418 711 418 642 q 300 800 418 800 q 179 767 222 800 l 142 860 m 524 296 q 504 363 514 322 q 486 447 494 403 q 472 534 478 492 q 465 608 465 576 q 391 512 442 557 q 274 426 340 467 q 185 347 211 389 q 158 246 158 304 q 171 173 158 203 q 204 124 183 143 q 252 97 225 106 q 308 88 279 88 q 397 103 357 88 q 465 148 436 119 q 508 214 493 176 q 524 296 524 251 m 122 1065 q 192 1094 164 1086 q 249 1103 219 1103 q 299 1098 276 1103 q 342 1088 321 1093 q 385 1077 363 1082 q 435 1072 407 1072 q 486 1080 461 1072 q 546 1101 511 1088 l 568 1004 q 502 976 531 985 q 442 968 474 968 q 384 974 408 968 q 340 985 360 979 q 302 997 319 992 q 267 1003 285 1003 q 211 996 233 1003 q 151 967 189 989 l 122 1065 z "},"ä":{"ha":779,"x_min":53,"x_max":779,"o":"m 142 860 q 286 897 206 897 q 460 851 399 897 q 544 689 521 804 q 555 634 550 661 q 565 574 560 607 q 578 500 571 542 q 599 403 586 458 q 669 209 621 299 q 779 71 718 119 l 735 -19 q 688 19 713 -6 q 642 71 664 43 q 603 128 621 99 q 578 185 586 158 q 478 35 549 85 q 308 -14 408 -14 q 199 8 247 -14 q 119 67 151 31 q 69 150 86 103 q 53 246 53 197 q 160 453 53 375 q 210 488 183 469 q 264 523 238 506 q 314 556 290 540 q 353 585 338 572 q 418 711 418 642 q 300 800 418 800 q 179 767 222 800 l 142 860 m 524 296 q 504 363 514 322 q 486 447 494 403 q 472 534 478 492 q 465 608 465 576 q 391 512 442 557 q 274 426 340 467 q 185 347 211 389 q 158 246 158 304 q 171 173 158 203 q 204 124 183 143 q 252 97 225 106 q 308 88 279 88 q 397 103 357 88 q 465 148 436 119 q 508 214 493 176 q 524 296 524 251 m 442 1110 q 488 1092 469 1110 q 507 1049 507 1074 q 487 1002 507 1021 q 442 983 467 983 q 399 1002 418 983 q 381 1049 381 1021 q 399 1092 381 1074 q 442 1110 418 1110 m 142 1049 q 160 1092 142 1074 q 204 1110 178 1110 q 249 1092 232 1110 q 267 1049 267 1074 q 247 1002 267 1021 q 204 983 228 983 q 160 1002 178 983 q 142 1049 142 1021 z "},"å":{"ha":779,"x_min":53,"x_max":779,"o":"m 142 860 q 286 897 206 897 q 460 851 399 897 q 544 689 521 804 q 555 634 550 661 q 565 574 560 607 q 578 500 571 542 q 599 403 586 458 q 669 209 621 299 q 779 71 718 119 l 735 -19 q 688 19 713 -6 q 642 71 664 43 q 603 128 621 99 q 578 185 586 158 q 478 35 549 85 q 308 -14 408 -14 q 199 8 247 -14 q 119 67 151 31 q 69 150 86 103 q 53 246 53 197 q 160 453 53 375 q 210 488 183 469 q 264 523 238 506 q 314 556 290 540 q 353 585 338 572 q 418 711 418 642 q 300 800 418 800 q 179 767 222 800 l 142 860 m 524 296 q 504 363 514 322 q 486 447 494 403 q 472 534 478 492 q 465 608 465 576 q 391 512 442 557 q 274 426 340 467 q 185 347 211 389 q 158 246 158 304 q 171 173 158 203 q 204 124 183 143 q 252 97 225 106 q 308 88 279 88 q 397 103 357 88 q 465 148 436 119 q 508 214 493 176 q 524 296 524 251 m 167 1079 q 206 1176 167 1135 q 318 1218 246 1218 q 432 1176 392 1218 q 472 1079 472 1135 q 432 981 472 1022 q 318 939 392 939 q 206 981 246 939 q 167 1079 167 1022 m 238 1079 q 256 1023 238 1046 q 318 1000 274 1000 q 383 1023 363 1000 q 403 1079 403 1046 q 383 1135 403 1113 q 318 1157 363 1157 q 256 1135 274 1157 q 238 1079 238 1113 z "},"æ":{"ha":1190,"x_min":53,"x_max":1121,"o":"m 142 860 q 286 897 206 897 q 460 851 399 897 q 544 688 521 804 q 661 840 589 782 q 822 897 733 897 q 1035 804 957 897 q 1121 547 1113 711 l 600 386 q 628 265 607 321 q 679 170 649 210 q 747 108 710 131 q 822 86 783 86 q 974 179 906 86 l 1053 115 q 822 -14 963 -14 q 677 31 743 -14 q 567 153 611 76 q 467 28 533 69 q 308 -14 400 -14 q 199 8 247 -14 q 119 67 151 31 q 69 150 86 103 q 53 246 53 197 q 160 453 53 375 q 258 519 211 490 q 341 577 306 549 q 397 637 376 606 q 418 711 418 668 q 300 800 418 800 q 179 767 222 800 l 142 860 m 474 619 q 395 518 450 569 q 274 426 340 467 q 185 347 211 389 q 158 246 158 304 q 171 173 158 203 q 204 124 183 143 q 252 97 225 106 q 308 88 279 88 q 453 136 396 88 q 521 258 510 185 q 501 341 507 299 q 493 429 494 383 q 479 532 485 481 q 474 619 474 583 m 1008 618 q 942 753 989 711 q 822 794 894 794 q 742 771 781 794 q 674 706 704 747 q 625 610 644 665 q 600 492 606 556 l 1008 618 z "},"ç":{"ha":707,"x_min":61,"x_max":633,"o":"m 546 696 q 389 794 475 794 q 299 769 340 794 q 227 696 257 743 q 181 584 197 649 q 164 442 164 519 q 181 299 164 364 q 226 186 197 233 q 297 113 256 139 q 389 86 339 86 q 553 208 494 86 l 633 142 q 528 28 593 69 q 389 -14 463 -14 q 259 21 319 -14 q 155 117 199 56 q 86 261 111 178 q 61 442 61 344 q 86 622 61 539 q 155 767 111 706 q 258 863 199 828 q 389 897 318 897 q 621 765 531 897 l 546 696 m 363 -218 q 322 -188 338 -214 q 306 -135 306 -162 q 325 -71 306 -96 q 376 -46 344 -46 q 426 -69 404 -46 q 449 -139 449 -93 q 393 -300 449 -197 l 344 -300 l 363 -218 z "},"è":{"ha":757,"x_min":60,"x_max":700,"o":"m 167 386 q 194 266 174 321 q 245 172 215 211 q 312 109 275 132 q 389 86 349 86 q 540 179 472 86 l 619 115 q 389 -14 529 -14 q 259 22 319 -14 q 154 121 199 58 q 85 266 110 183 q 60 442 60 349 q 85 617 60 535 q 153 763 110 700 q 258 861 197 825 q 389 897 318 897 q 513 873 457 897 q 608 803 568 849 q 672 693 649 758 q 700 547 696 628 l 167 386 m 588 618 q 517 753 568 711 q 389 794 467 794 q 309 771 347 794 q 241 706 271 747 q 192 610 211 665 q 167 492 172 556 l 588 618 m 317 1176 l 467 947 l 356 947 l 178 1176 l 317 1176 z "},"é":{"ha":757,"x_min":60,"x_max":700,"o":"m 167 386 q 194 266 174 321 q 245 172 215 211 q 312 109 275 132 q 389 86 349 86 q 540 179 472 86 l 619 115 q 389 -14 529 -14 q 259 22 319 -14 q 154 121 199 58 q 85 266 110 183 q 60 442 60 349 q 85 617 60 535 q 153 763 110 700 q 258 861 197 825 q 389 897 318 897 q 513 873 457 897 q 608 803 568 849 q 672 693 649 758 q 700 547 696 628 l 167 386 m 588 618 q 517 753 568 711 q 389 794 467 794 q 309 771 347 794 q 241 706 271 747 q 192 610 211 665 q 167 492 172 556 l 588 618 m 606 1176 l 428 947 l 317 947 l 465 1176 l 606 1176 z "},"ê":{"ha":757,"x_min":60,"x_max":700,"o":"m 167 386 q 194 266 174 321 q 245 172 215 211 q 312 109 275 132 q 389 86 349 86 q 540 179 472 86 l 619 115 q 389 -14 529 -14 q 259 22 319 -14 q 154 121 199 58 q 85 266 110 183 q 60 442 60 349 q 85 617 60 535 q 153 763 110 700 q 258 861 197 825 q 389 897 318 897 q 513 873 457 897 q 608 803 568 849 q 672 693 649 758 q 700 547 696 628 l 167 386 m 588 618 q 517 753 568 711 q 389 794 467 794 q 309 771 347 794 q 241 706 271 747 q 192 610 211 665 q 167 492 172 556 l 588 618 m 444 1176 l 624 947 l 499 947 l 389 1100 l 281 947 l 156 947 l 333 1176 l 444 1176 z "},"ë":{"ha":757,"x_min":60,"x_max":700,"o":"m 167 386 q 194 266 174 321 q 245 172 215 211 q 312 109 275 132 q 389 86 349 86 q 540 179 472 86 l 619 115 q 389 -14 529 -14 q 259 22 319 -14 q 154 121 199 58 q 85 266 110 183 q 60 442 60 349 q 85 617 60 535 q 153 763 110 700 q 258 861 197 825 q 389 897 318 897 q 513 873 457 897 q 608 803 568 849 q 672 693 649 758 q 700 547 696 628 l 167 386 m 588 618 q 517 753 568 711 q 389 794 467 794 q 309 771 347 794 q 241 706 271 747 q 192 610 211 665 q 167 492 172 556 l 588 618 m 507 1110 q 553 1092 535 1110 q 572 1049 572 1074 q 552 1002 572 1021 q 507 983 532 983 q 465 1002 483 983 q 446 1049 446 1021 q 465 1092 446 1074 q 507 1110 483 1110 m 207 1049 q 225 1092 207 1074 q 269 1110 243 1110 q 315 1092 297 1110 q 332 1049 332 1074 q 313 1002 332 1021 q 269 983 293 983 q 225 1002 243 983 q 207 1049 207 1021 z "},"ì":{"ha":351,"x_min":-36,"x_max":260,"o":"m 221 883 l 221 136 q 260 26 221 71 l 176 -36 q 119 136 119 39 l 119 883 l 221 883 m 103 1176 l 253 947 l 142 947 l -36 1176 l 103 1176 z "},"í":{"ha":351,"x_min":100,"x_max":389,"o":"m 221 883 l 221 136 q 260 26 221 71 l 176 -36 q 119 136 119 39 l 119 883 l 221 883 m 389 1176 l 211 947 l 100 947 l 249 1176 l 389 1176 z "},"î":{"ha":424,"x_min":-21,"x_max":447,"o":"m 257 883 l 257 136 q 296 26 257 71 l 213 -36 q 156 136 156 39 l 156 883 l 257 883 m 268 1176 l 447 947 l 322 947 l 213 1100 l 104 947 l -21 947 l 157 1176 l 268 1176 z "},"ï":{"ha":393,"x_min":15,"x_max":381,"o":"m 242 883 l 242 136 q 281 26 242 71 l 197 -36 q 140 136 140 39 l 140 883 l 242 883 m 315 1110 q 362 1092 343 1110 q 381 1049 381 1074 q 360 1002 381 1021 q 315 983 340 983 q 273 1002 292 983 q 254 1049 254 1021 q 273 1092 254 1074 q 315 1110 292 1110 m 15 1049 q 33 1092 15 1074 q 78 1110 51 1110 q 123 1092 106 1110 q 140 1049 140 1074 q 121 1002 140 1021 q 78 983 101 983 q 33 1002 51 983 q 15 1049 15 1021 z "},"ð":{"ha":781,"x_min":61,"x_max":715,"o":"m 354 1176 q 453 1050 406 1119 l 603 1176 l 653 1114 l 496 981 q 594 794 551 889 q 637 698 615 747 q 676 597 658 649 q 704 491 693 544 q 715 383 715 438 q 691 223 715 296 q 623 97 667 150 q 519 15 579 44 q 390 -14 460 -14 q 258 15 318 -14 q 153 97 197 44 q 85 223 110 150 q 61 383 61 296 q 86 544 61 471 q 155 669 111 617 q 259 752 199 722 q 390 782 319 782 q 446 776 418 782 q 497 760 474 771 q 459 838 479 800 q 418 915 439 876 l 303 818 l 251 879 l 375 982 q 278 1107 328 1053 l 354 1176 m 390 674 q 303 652 344 674 q 231 592 261 631 q 182 500 200 554 q 164 382 164 446 q 182 263 164 317 q 231 169 200 208 q 303 108 263 129 q 390 86 344 86 q 477 108 436 86 q 548 169 518 129 q 596 263 578 208 q 614 382 614 317 q 597 500 614 446 q 549 592 579 554 q 478 652 518 631 q 390 674 438 674 z "},"ñ":{"ha":779,"x_min":64,"x_max":719,"o":"m 204 156 q 146 -36 204 39 l 64 26 q 101 136 101 72 l 101 679 q 92 761 101 715 q 64 869 83 807 q 129 880 90 875 q 210 889 168 885 q 294 895 253 893 q 365 897 335 897 q 607 805 531 897 q 683 547 683 713 l 683 136 q 719 26 683 71 l 638 -36 q 579 136 579 40 l 579 526 q 528 724 579 650 q 382 797 478 797 q 282 792 331 797 q 185 778 233 788 q 200 710 196 743 q 204 646 204 678 l 204 156 m 167 1065 q 236 1094 208 1086 q 293 1103 264 1103 q 343 1098 321 1103 q 386 1088 365 1093 q 429 1077 407 1082 q 479 1072 451 1072 q 531 1080 506 1072 q 590 1101 556 1088 l 613 1004 q 547 976 575 985 q 486 968 518 968 q 428 974 453 968 q 384 985 404 979 q 347 997 364 992 q 311 1003 329 1003 q 256 996 278 1003 q 196 967 233 989 l 167 1065 z "},"ò":{"ha":779,"x_min":61,"x_max":715,"o":"m 390 897 q 518 863 458 897 q 622 769 578 829 q 690 625 665 708 q 715 442 715 542 q 691 258 715 342 q 623 115 667 175 q 519 20 579 54 q 390 -14 460 -14 q 258 20 318 -14 q 153 115 197 54 q 85 258 110 175 q 61 442 61 342 q 86 625 61 542 q 155 769 111 708 q 259 863 199 829 q 390 897 319 897 m 390 794 q 303 769 344 794 q 231 697 261 743 q 182 585 200 650 q 164 442 164 519 q 182 299 164 364 q 231 186 200 233 q 303 113 263 139 q 390 86 344 86 q 477 113 436 86 q 548 186 518 139 q 596 299 578 233 q 614 442 614 364 q 597 585 614 519 q 549 697 579 650 q 478 769 518 743 q 390 794 438 794 m 314 1176 l 464 947 l 353 947 l 175 1176 l 314 1176 z "},"ó":{"ha":779,"x_min":61,"x_max":715,"o":"m 390 897 q 518 863 458 897 q 622 769 578 829 q 690 625 665 708 q 715 442 715 542 q 691 258 715 342 q 623 115 667 175 q 519 20 579 54 q 390 -14 460 -14 q 258 20 318 -14 q 153 115 197 54 q 85 258 110 175 q 61 442 61 342 q 86 625 61 542 q 155 769 111 708 q 259 863 199 829 q 390 897 319 897 m 390 794 q 303 769 344 794 q 231 697 261 743 q 182 585 200 650 q 164 442 164 519 q 182 299 164 364 q 231 186 200 233 q 303 113 263 139 q 390 86 344 86 q 477 113 436 86 q 548 186 518 139 q 596 299 578 233 q 614 442 614 364 q 597 585 614 519 q 549 697 579 650 q 478 769 518 743 q 390 794 438 794 m 603 1176 l 425 947 l 314 947 l 463 1176 l 603 1176 z "},"ô":{"ha":779,"x_min":61,"x_max":715,"o":"m 390 897 q 518 863 458 897 q 622 769 578 829 q 690 625 665 708 q 715 442 715 542 q 691 258 715 342 q 623 115 667 175 q 519 20 579 54 q 390 -14 460 -14 q 258 20 318 -14 q 153 115 197 54 q 85 258 110 175 q 61 442 61 342 q 86 625 61 542 q 155 769 111 708 q 259 863 199 829 q 390 897 319 897 m 390 794 q 303 769 344 794 q 231 697 261 743 q 182 585 200 650 q 164 442 164 519 q 182 299 164 364 q 231 186 200 233 q 303 113 263 139 q 390 86 344 86 q 477 113 436 86 q 548 186 518 139 q 596 299 578 233 q 614 442 614 364 q 597 585 614 519 q 549 697 579 650 q 478 769 518 743 q 390 794 438 794 m 444 1176 l 624 947 l 499 947 l 389 1100 l 281 947 l 156 947 l 333 1176 l 444 1176 z "},"õ":{"ha":779,"x_min":61,"x_max":715,"o":"m 390 897 q 518 863 458 897 q 622 769 578 829 q 690 625 665 708 q 715 442 715 542 q 691 258 715 342 q 623 115 667 175 q 519 20 579 54 q 390 -14 460 -14 q 258 20 318 -14 q 153 115 197 54 q 85 258 110 175 q 61 442 61 342 q 86 625 61 542 q 155 769 111 708 q 259 863 199 829 q 390 897 319 897 m 390 794 q 303 769 344 794 q 231 697 261 743 q 182 585 200 650 q 164 442 164 519 q 182 299 164 364 q 231 186 200 233 q 303 113 263 139 q 390 86 344 86 q 477 113 436 86 q 548 186 518 139 q 596 299 578 233 q 614 442 614 364 q 597 585 614 519 q 549 697 579 650 q 478 769 518 743 q 390 794 438 794 m 167 1065 q 236 1094 208 1086 q 293 1103 264 1103 q 343 1098 321 1103 q 386 1088 365 1093 q 429 1077 407 1082 q 479 1072 451 1072 q 531 1080 506 1072 q 590 1101 556 1088 l 613 1004 q 547 976 575 985 q 486 968 518 968 q 428 974 453 968 q 384 985 404 979 q 347 997 364 992 q 311 1003 329 1003 q 256 996 278 1003 q 196 967 233 989 l 167 1065 z "},"ö":{"ha":779,"x_min":61,"x_max":715,"o":"m 390 897 q 518 863 458 897 q 622 769 578 829 q 690 625 665 708 q 715 442 715 542 q 691 258 715 342 q 623 115 667 175 q 519 20 579 54 q 390 -14 460 -14 q 258 20 318 -14 q 153 115 197 54 q 85 258 110 175 q 61 442 61 342 q 86 625 61 542 q 155 769 111 708 q 259 863 199 829 q 390 897 319 897 m 390 794 q 303 769 344 794 q 231 697 261 743 q 182 585 200 650 q 164 442 164 519 q 182 299 164 364 q 231 186 200 233 q 303 113 263 139 q 390 86 344 86 q 477 113 436 86 q 548 186 518 139 q 596 299 578 233 q 614 442 614 364 q 597 585 614 519 q 549 697 579 650 q 478 769 518 743 q 390 794 438 794 m 507 1110 q 553 1092 535 1110 q 572 1049 572 1074 q 552 1002 572 1021 q 507 983 532 983 q 465 1002 483 983 q 446 1049 446 1021 q 465 1092 446 1074 q 507 1110 483 1110 m 207 1049 q 225 1092 207 1074 q 269 1110 243 1110 q 315 1092 297 1110 q 332 1049 332 1074 q 313 1002 332 1021 q 269 983 293 983 q 225 1002 243 983 q 207 1049 207 1021 z "},"÷":{"ha":521,"x_min":57,"x_max":464,"o":"m 464 517 l 464 426 l 57 426 l 57 517 l 464 517 m 258 260 q 310 235 290 260 q 331 175 331 211 q 310 114 331 139 q 258 89 290 89 q 208 114 228 89 q 189 175 189 139 q 208 235 189 211 q 258 260 228 260 m 258 854 q 310 830 290 854 q 331 769 331 806 q 310 708 331 733 q 258 683 290 683 q 208 708 228 683 q 189 769 189 733 q 208 830 189 806 q 258 854 228 854 z "},"ø":{"ha":779,"x_min":61,"x_max":715,"o":"m 685 996 l 593 803 q 683 649 650 742 q 715 442 715 557 q 691 258 715 342 q 623 115 667 175 q 519 20 579 54 q 390 -14 460 -14 q 231 38 301 -14 l 164 -103 l 71 -103 l 165 99 q 89 247 117 160 q 61 442 61 335 q 86 625 61 542 q 155 769 111 708 q 259 863 199 829 q 390 897 319 897 q 460 888 426 897 q 524 860 493 878 l 588 996 l 685 996 m 275 133 q 390 86 329 86 q 477 113 436 86 q 548 186 518 139 q 596 299 578 233 q 614 442 614 364 q 595 588 614 522 q 544 701 576 654 l 275 133 m 479 767 q 390 794 439 794 q 303 769 344 794 q 231 697 261 743 q 182 585 200 650 q 164 442 164 519 q 178 313 164 371 q 218 208 193 254 l 479 767 z "},"ù":{"ha":742,"x_min":51,"x_max":707,"o":"m 135 919 q 192 747 192 844 l 192 357 q 243 160 192 233 q 390 86 294 86 q 586 106 489 86 q 568 238 568 172 l 568 729 q 582 834 568 786 q 625 919 596 882 l 707 858 q 679 807 689 835 q 669 747 669 779 l 669 204 q 679 123 669 169 q 707 14 689 76 q 642 3 681 8 q 560 -6 603 -1 q 477 -12 518 -10 q 406 -14 436 -14 q 264 10 324 -14 q 165 78 204 33 q 108 189 126 124 q 89 336 89 254 l 89 747 q 51 858 89 813 l 135 919 m 296 1176 l 446 947 l 335 947 l 157 1176 l 296 1176 z "},"ú":{"ha":742,"x_min":51,"x_max":707,"o":"m 135 919 q 192 747 192 844 l 192 357 q 243 160 192 233 q 390 86 294 86 q 586 106 489 86 q 568 238 568 172 l 568 729 q 582 834 568 786 q 625 919 596 882 l 707 858 q 679 807 689 835 q 669 747 669 779 l 669 204 q 679 123 669 169 q 707 14 689 76 q 642 3 681 8 q 560 -6 603 -1 q 477 -12 518 -10 q 406 -14 436 -14 q 264 10 324 -14 q 165 78 204 33 q 108 189 126 124 q 89 336 89 254 l 89 747 q 51 858 89 813 l 135 919 m 585 1176 l 407 947 l 296 947 l 444 1176 l 585 1176 z "},"û":{"ha":742,"x_min":51,"x_max":707,"o":"m 135 919 q 192 747 192 844 l 192 357 q 243 160 192 233 q 390 86 294 86 q 586 106 489 86 q 568 238 568 172 l 568 729 q 582 834 568 786 q 625 919 596 882 l 707 858 q 679 807 689 835 q 669 747 669 779 l 669 204 q 679 123 669 169 q 707 14 689 76 q 642 3 681 8 q 560 -6 603 -1 q 477 -12 518 -10 q 406 -14 436 -14 q 264 10 324 -14 q 165 78 204 33 q 108 189 126 124 q 89 336 89 254 l 89 747 q 51 858 89 813 l 135 919 m 425 1176 l 604 947 l 479 947 l 369 1100 l 261 947 l 136 947 l 314 1176 l 425 1176 z "},"ü":{"ha":742,"x_min":51,"x_max":707,"o":"m 135 919 q 192 747 192 844 l 192 357 q 243 160 192 233 q 390 86 294 86 q 586 106 489 86 q 568 238 568 172 l 568 729 q 582 834 568 786 q 625 919 596 882 l 707 858 q 679 807 689 835 q 669 747 669 779 l 669 204 q 679 123 669 169 q 707 14 689 76 q 642 3 681 8 q 560 -6 603 -1 q 477 -12 518 -10 q 406 -14 436 -14 q 264 10 324 -14 q 165 78 204 33 q 108 189 126 124 q 89 336 89 254 l 89 747 q 51 858 89 813 l 135 919 m 488 1110 q 534 1092 515 1110 q 553 1049 553 1074 q 533 1002 553 1021 q 488 983 513 983 q 445 1002 464 983 q 426 1049 426 1021 q 445 1092 426 1074 q 488 1110 464 1110 m 188 1049 q 206 1092 188 1074 q 250 1110 224 1110 q 295 1092 278 1110 q 313 1049 313 1074 q 293 1002 313 1021 q 250 983 274 983 q 206 1002 224 983 q 188 1049 188 1021 z "},"ý":{"ha":717,"x_min":32,"x_max":696,"o":"m 118 919 q 285 587 224 754 q 365 250 346 419 q 408 459 383 365 q 462 632 432 553 q 528 781 492 711 q 608 919 564 850 l 696 865 q 613 721 649 790 q 550 577 578 651 q 501 419 522 503 q 460 233 479 336 q 416 43 439 121 q 361 -92 393 -35 q 286 -197 329 -150 q 183 -293 243 -243 l 133 -204 q 216 -135 181 -171 q 277 -56 251 -99 q 319 40 303 -12 q 346 157 336 92 l 292 153 q 281 256 292 197 q 250 378 269 314 q 205 509 231 442 q 151 640 179 576 q 92 762 122 704 q 32 865 61 819 l 118 919 m 572 1176 l 394 947 l 283 947 l 432 1176 l 572 1176 z "},"þ":{"ha":850,"x_min":113,"x_max":788,"o":"m 188 1176 q 249 1013 249 1104 l 249 706 q 284 783 261 747 q 337 844 307 818 q 401 883 367 869 q 474 897 436 897 q 598 865 540 897 q 697 775 656 833 q 763 633 739 717 q 788 444 786 549 q 764 268 788 351 q 699 122 740 185 q 600 23 657 60 q 476 -14 543 -14 q 342 35 403 -14 q 251 176 282 85 l 251 -129 q 192 -293 251 -221 l 114 -226 q 147 -129 147 -189 l 147 1013 q 113 1110 147 1067 l 188 1176 m 474 794 q 385 766 426 794 q 315 690 344 738 q 268 578 285 642 q 251 444 251 514 q 269 306 251 371 q 318 192 288 242 q 390 115 349 143 q 476 86 431 86 q 558 115 519 86 q 625 192 596 143 q 671 306 654 242 q 688 442 688 371 q 672 583 688 518 q 628 694 656 647 q 560 768 600 742 q 474 794 521 794 z "},"ÿ":{"ha":717,"x_min":32,"x_max":696,"o":"m 118 919 q 285 587 224 754 q 365 250 346 419 q 408 459 383 365 q 462 632 432 553 q 528 781 492 711 q 608 919 564 850 l 696 865 q 613 721 649 790 q 550 577 578 651 q 501 419 522 503 q 460 233 479 336 q 416 43 439 121 q 361 -92 393 -35 q 286 -197 329 -150 q 183 -293 243 -243 l 133 -204 q 216 -135 181 -171 q 277 -56 251 -99 q 319 40 303 -12 q 346 157 336 92 l 292 153 q 281 256 292 197 q 250 378 269 314 q 205 509 231 442 q 151 640 179 576 q 92 762 122 704 q 32 865 61 819 l 118 919 m 475 1110 q 522 1092 503 1110 q 540 1049 540 1074 q 520 1002 540 1021 q 475 983 500 983 q 433 1002 451 983 q 414 1049 414 1021 q 433 1092 414 1074 q 475 1110 451 1110 m 175 1049 q 193 1092 175 1074 q 238 1110 211 1110 q 283 1092 265 1110 q 300 1049 300 1074 q 281 1002 300 1021 q 238 983 261 983 q 193 1002 211 983 q 175 1049 175 1021 z "},"Ā":{"ha":1176,"x_min":31,"x_max":1167,"o":"m 657 1074 q 736 838 688 963 q 850 580 785 713 q 995 308 915 447 q 1167 28 1075 168 l 1076 -24 q 1009 83 1044 25 q 935 208 974 140 l 276 208 q 122 -25 203 88 l 31 28 q 359 606 235 350 q 539 1074 483 861 l 657 1074 m 876 315 q 788 476 831 396 q 708 637 744 556 q 643 803 671 718 q 599 982 615 889 q 554 806 581 888 q 494 646 528 724 q 422 488 461 568 q 336 315 382 407 l 876 315 m 844 1264 l 844 1164 l 354 1164 l 354 1264 l 844 1264 z "},"ā":{"ha":779,"x_min":53,"x_max":779,"o":"m 142 860 q 286 897 206 897 q 460 851 399 897 q 544 689 521 804 q 555 634 550 661 q 565 574 560 607 q 578 500 571 542 q 599 403 586 458 q 669 209 621 299 q 779 71 718 119 l 735 -19 q 688 19 713 -6 q 642 71 664 43 q 603 128 621 99 q 578 185 586 158 q 478 35 549 85 q 308 -14 408 -14 q 199 8 247 -14 q 119 67 151 31 q 69 150 86 103 q 53 246 53 197 q 160 453 53 375 q 210 488 183 469 q 264 523 238 506 q 314 556 290 540 q 353 585 338 572 q 418 711 418 642 q 300 800 418 800 q 179 767 222 800 l 142 860 m 524 296 q 504 363 514 322 q 486 447 494 403 q 472 534 478 492 q 465 608 465 576 q 391 512 442 557 q 274 426 340 467 q 185 347 211 389 q 158 246 158 304 q 171 173 158 203 q 204 124 183 143 q 252 97 225 106 q 308 88 279 88 q 397 103 357 88 q 465 148 436 119 q 508 214 493 176 q 524 296 524 251 m 579 1074 l 579 974 l 89 974 l 89 1074 l 579 1074 z "},"Ă":{"ha":1176,"x_min":31,"x_max":1167,"o":"m 657 1074 q 736 838 688 963 q 850 580 785 713 q 995 308 915 447 q 1167 28 1075 168 l 1076 -24 q 1009 83 1044 25 q 935 208 974 140 l 276 208 q 122 -25 203 88 l 31 28 q 359 606 235 350 q 539 1074 483 861 l 657 1074 m 876 315 q 788 476 831 396 q 708 637 744 556 q 643 803 671 718 q 599 982 615 889 q 554 806 581 888 q 494 646 528 724 q 422 488 461 568 q 336 315 382 407 l 876 315 m 478 1367 q 507 1277 481 1314 q 599 1240 533 1240 q 692 1277 665 1240 q 722 1367 719 1314 l 824 1367 q 807 1282 822 1322 q 763 1212 792 1242 q 694 1164 735 1182 q 599 1146 653 1146 q 503 1163 544 1146 q 435 1211 463 1181 q 391 1282 407 1242 q 374 1367 375 1322 l 478 1367 z "},"ă":{"ha":779,"x_min":53,"x_max":779,"o":"m 142 860 q 286 897 206 897 q 460 851 399 897 q 544 689 521 804 q 555 634 550 661 q 565 574 560 607 q 578 500 571 542 q 599 403 586 458 q 669 209 621 299 q 779 71 718 119 l 735 -19 q 688 19 713 -6 q 642 71 664 43 q 603 128 621 99 q 578 185 586 158 q 478 35 549 85 q 308 -14 408 -14 q 199 8 247 -14 q 119 67 151 31 q 69 150 86 103 q 53 246 53 197 q 160 453 53 375 q 210 488 183 469 q 264 523 238 506 q 314 556 290 540 q 353 585 338 572 q 418 711 418 642 q 300 800 418 800 q 179 767 222 800 l 142 860 m 524 296 q 504 363 514 322 q 486 447 494 403 q 472 534 478 492 q 465 608 465 576 q 391 512 442 557 q 274 426 340 467 q 185 347 211 389 q 158 246 158 304 q 171 173 158 203 q 204 124 183 143 q 252 97 225 106 q 308 88 279 88 q 397 103 357 88 q 465 148 436 119 q 508 214 493 176 q 524 296 524 251 m 213 1176 q 242 1087 215 1124 q 333 1050 268 1050 q 427 1087 400 1050 q 457 1176 454 1124 l 558 1176 q 542 1092 557 1132 q 498 1022 526 1051 q 428 974 469 992 q 333 956 388 956 q 238 973 279 956 q 169 1021 197 990 q 126 1092 142 1051 q 108 1176 110 1132 l 213 1176 z "},"Ą":{"ha":1176,"x_min":31,"x_max":1167,"o":"m 657 1074 q 736 838 688 963 q 850 580 785 713 q 995 308 915 447 q 1167 28 1075 168 q 1019 -23 1075 0 q 931 -67 963 -46 q 889 -106 900 -87 q 878 -140 878 -124 q 898 -183 878 -167 q 956 -199 918 -199 q 1031 -177 999 -199 q 1086 -107 1064 -156 l 1167 -174 q 1076 -268 1135 -236 q 942 -300 1017 -300 q 876 -289 904 -300 q 828 -259 847 -278 q 800 -218 810 -240 q 790 -172 790 -196 q 803 -117 790 -144 q 845 -66 815 -90 q 925 -20 875 -42 q 1049 19 975 1 q 994 106 1021 61 q 935 208 967 150 l 276 208 q 122 -25 203 88 l 31 28 q 359 606 235 350 q 539 1074 483 861 l 657 1074 m 876 315 q 788 476 831 396 q 708 637 744 556 q 643 803 671 718 q 599 982 615 889 q 554 806 581 888 q 494 646 528 724 q 422 488 461 568 q 336 315 382 407 l 876 315 z "},"ą":{"ha":779,"x_min":53,"x_max":779,"o":"m 142 860 q 286 897 206 897 q 460 851 399 897 q 544 689 521 804 q 555 634 550 661 q 565 574 560 607 q 578 500 571 542 q 599 403 586 458 q 669 209 622 299 q 779 71 717 119 l 725 10 q 635 -24 678 -6 q 560 -61 593 -42 q 509 -101 528 -81 q 490 -140 490 -121 q 510 -183 490 -167 q 568 -199 531 -199 q 644 -177 611 -199 q 699 -107 676 -156 l 779 -174 q 688 -268 747 -236 q 554 -300 629 -300 q 488 -289 517 -300 q 441 -259 460 -278 q 413 -218 422 -240 q 403 -172 403 -196 q 416 -119 403 -144 q 460 -71 429 -94 q 544 -24 492 -47 q 678 22 597 -1 q 618 97 644 54 q 578 185 592 140 q 478 35 549 85 q 308 -14 408 -14 q 199 8 247 -14 q 119 67 151 31 q 69 150 86 103 q 53 246 53 197 q 160 453 53 375 q 258 519 211 490 q 341 577 306 549 q 397 637 376 606 q 418 711 418 668 q 300 800 418 800 q 179 767 222 800 l 142 860 m 524 296 q 504 363 514 322 q 486 447 494 403 q 472 534 478 492 q 465 608 465 576 q 391 512 442 557 q 274 426 340 467 q 185 347 211 389 q 158 246 158 304 q 171 173 158 203 q 204 124 183 143 q 252 97 225 106 q 308 88 279 88 q 397 103 357 88 q 465 148 436 119 q 508 214 493 176 q 524 296 524 251 z "},"Ć":{"ha":1164,"x_min":57,"x_max":1135,"o":"m 1065 901 q 804 983 967 983 q 570 938 685 983 q 365 814 456 892 q 219 634 275 736 q 164 421 164 532 q 188 288 164 349 q 260 184 213 228 q 376 115 307 140 q 536 90 446 90 q 944 239 756 90 l 1007 158 q 778 28 899 71 q 510 -14 657 -14 q 317 19 401 -14 q 176 109 233 51 q 88 245 118 167 q 57 415 57 324 q 85 581 57 499 q 165 738 114 663 q 286 876 215 813 q 440 988 357 940 q 617 1062 524 1035 q 807 1089 710 1089 q 1135 979 1003 1089 l 1065 901 m 990 1367 l 813 1138 l 701 1138 l 850 1367 l 990 1367 z "},"ć":{"ha":707,"x_min":61,"x_max":633,"o":"m 546 696 q 389 794 475 794 q 299 769 340 794 q 227 696 257 743 q 181 584 197 649 q 164 442 164 519 q 181 299 164 364 q 226 186 197 233 q 297 113 256 139 q 389 86 339 86 q 553 208 494 86 l 633 142 q 528 28 593 69 q 389 -14 463 -14 q 259 21 319 -14 q 155 117 199 56 q 86 261 111 178 q 61 442 61 344 q 86 622 61 539 q 155 767 111 706 q 258 863 199 828 q 389 897 318 897 q 621 765 531 897 l 546 696 m 608 1176 l 431 947 l 319 947 l 468 1176 l 608 1176 z "},"Ċ":{"ha":1164,"x_min":57,"x_max":1135,"o":"m 1065 901 q 804 983 967 983 q 570 938 685 983 q 365 814 456 892 q 219 634 275 736 q 164 421 164 532 q 188 288 164 349 q 260 184 213 228 q 376 115 307 140 q 536 90 446 90 q 944 239 756 90 l 1007 158 q 778 28 899 71 q 510 -14 657 -14 q 317 19 401 -14 q 176 109 233 51 q 88 245 118 167 q 57 415 57 324 q 85 581 57 499 q 165 738 114 663 q 286 876 215 813 q 440 988 357 940 q 617 1062 524 1035 q 807 1089 710 1089 q 1135 979 1003 1089 l 1065 901 m 714 1239 q 732 1282 714 1264 q 776 1300 750 1300 q 822 1282 804 1300 q 839 1239 839 1264 q 819 1192 839 1211 q 776 1174 800 1174 q 732 1192 750 1174 q 714 1239 714 1211 z "},"ċ":{"ha":707,"x_min":61,"x_max":633,"o":"m 546 696 q 389 794 475 794 q 299 769 340 794 q 227 696 257 743 q 181 584 197 649 q 164 442 164 519 q 181 299 164 364 q 226 186 197 233 q 297 113 256 139 q 389 86 339 86 q 553 208 494 86 l 633 142 q 528 28 593 69 q 389 -14 463 -14 q 259 21 319 -14 q 155 117 199 56 q 86 261 111 178 q 61 442 61 344 q 86 622 61 539 q 155 767 111 706 q 258 863 199 828 q 389 897 318 897 q 621 765 531 897 l 546 696 m 332 1049 q 350 1092 332 1074 q 394 1110 368 1110 q 440 1092 422 1110 q 457 1049 457 1074 q 438 1002 457 1021 q 394 983 418 983 q 350 1002 368 983 q 332 1049 332 1021 z "},"Č":{"ha":1164,"x_min":57,"x_max":1135,"o":"m 1065 901 q 804 983 967 983 q 570 938 685 983 q 365 814 456 892 q 219 634 275 736 q 164 421 164 532 q 188 288 164 349 q 260 184 213 228 q 376 115 307 140 q 536 90 446 90 q 944 239 756 90 l 1007 158 q 778 28 899 71 q 510 -14 657 -14 q 317 19 401 -14 q 176 109 233 51 q 88 245 118 167 q 57 415 57 324 q 85 581 57 499 q 165 738 114 663 q 286 876 215 813 q 440 988 357 940 q 617 1062 524 1035 q 807 1089 710 1089 q 1135 979 1003 1089 l 1065 901 m 667 1367 l 775 1213 l 885 1367 l 1010 1367 l 831 1138 l 719 1138 l 542 1367 l 667 1367 z "},"č":{"ha":707,"x_min":61,"x_max":633,"o":"m 546 696 q 389 794 475 794 q 299 769 340 794 q 227 696 257 743 q 181 584 197 649 q 164 442 164 519 q 181 299 164 364 q 226 186 197 233 q 297 113 256 139 q 389 86 339 86 q 553 208 494 86 l 633 142 q 528 28 593 69 q 389 -14 463 -14 q 259 21 319 -14 q 155 117 199 56 q 86 261 111 178 q 61 442 61 344 q 86 622 61 539 q 155 767 111 706 q 258 863 199 828 q 389 897 318 897 q 621 765 531 897 l 546 696 m 286 1176 l 394 1022 l 504 1176 l 629 1176 l 450 947 l 339 947 l 161 1176 l 286 1176 z "},"Ď":{"ha":1372,"x_min":47,"x_max":1322,"o":"m 882 1074 q 1067 1051 986 1074 q 1206 978 1149 1028 q 1292 852 1263 929 q 1322 668 1322 775 q 1265 417 1322 538 q 1107 203 1208 296 q 868 56 1006 111 q 569 0 731 0 l 149 0 l 149 969 l 47 969 l 47 1074 l 882 1074 m 253 106 l 569 106 q 835 155 715 106 q 1040 283 954 204 q 1172 462 1125 363 q 1218 663 1218 561 q 1199 804 1218 746 q 1135 899 1179 863 q 1020 953 1092 936 q 844 969 949 969 l 253 969 l 253 106 m 535 1367 l 643 1213 l 753 1367 l 878 1367 l 699 1138 l 588 1138 l 410 1367 l 535 1367 z "},"ď":{"ha":865,"x_min":61,"x_max":935,"o":"m 660 1176 q 717 1013 717 1104 l 717 136 q 726 77 717 104 q 753 26 736 50 l 672 -36 q 655 1 664 -24 q 638 56 646 26 q 624 115 629 85 q 619 167 619 144 l 619 179 q 526 40 588 94 q 389 -14 465 -14 q 260 20 319 -14 q 156 115 200 54 q 86 259 111 175 q 61 442 61 343 q 87 624 61 540 q 156 769 113 708 q 260 863 200 829 q 389 897 319 897 q 530 853 474 897 q 615 718 586 810 l 615 1013 q 581 1110 615 1069 l 660 1176 m 389 794 q 301 770 342 794 q 230 700 260 746 q 183 589 200 654 q 165 442 165 524 q 183 294 165 360 q 231 182 201 228 q 302 111 261 136 q 389 86 343 86 q 479 118 438 86 q 551 201 521 150 q 598 315 581 251 q 615 442 615 378 q 598 576 615 513 q 550 689 581 640 q 478 766 519 738 q 389 794 436 794 m 849 1004 q 808 1034 824 1008 q 792 1088 792 1060 q 811 1151 792 1126 q 863 1176 831 1176 q 913 1153 890 1176 q 935 1083 935 1129 q 879 922 935 1025 l 831 922 l 849 1004 z "},"Đ":{"ha":1372,"x_min":47,"x_max":1322,"o":"m 882 1074 q 1067 1051 986 1074 q 1206 978 1149 1028 q 1292 852 1263 929 q 1322 668 1322 775 q 1265 417 1322 538 q 1107 203 1208 296 q 868 56 1006 111 q 569 0 731 0 l 149 0 l 149 518 l 51 518 l 51 624 l 149 624 l 149 969 l 47 969 l 47 1074 l 882 1074 m 253 624 l 881 624 l 881 518 l 253 518 l 253 106 l 569 106 q 835 155 715 106 q 1040 283 954 204 q 1172 462 1125 363 q 1218 663 1218 561 q 1199 804 1218 746 q 1135 899 1179 863 q 1020 953 1092 936 q 844 969 949 969 l 253 969 l 253 624 z "},"đ":{"ha":803,"x_min":61,"x_max":803,"o":"m 603 1074 q 581 1110 593 1096 l 660 1176 q 710 1074 694 1131 l 803 1074 l 803 974 l 717 974 l 717 136 q 726 77 717 104 q 753 26 736 50 l 672 -36 q 655 1 664 -24 q 638 56 646 26 q 624 115 629 85 q 619 167 619 144 l 619 179 q 526 40 588 94 q 389 -14 465 -14 q 260 20 319 -14 q 156 115 200 54 q 86 259 111 175 q 61 442 61 343 q 87 624 61 540 q 156 769 113 708 q 260 863 200 829 q 389 897 319 897 q 530 853 474 897 q 615 718 586 810 l 615 974 l 313 974 l 313 1074 l 603 1074 m 389 794 q 301 770 342 794 q 230 700 260 746 q 183 589 200 654 q 165 442 165 524 q 183 294 165 360 q 231 182 201 228 q 302 111 261 136 q 389 86 343 86 q 479 118 438 86 q 551 201 521 150 q 598 315 581 251 q 615 442 615 378 q 598 576 615 513 q 550 689 581 640 q 478 766 519 738 q 389 794 436 794 z "},"Ē":{"ha":1125,"x_min":92,"x_max":1067,"o":"m 1067 1074 l 1067 969 l 293 969 l 293 624 l 921 624 l 921 518 l 293 518 l 293 106 l 1067 106 l 1067 0 l 189 0 l 189 518 l 92 518 l 92 624 l 189 624 l 189 969 l 92 969 l 92 1074 l 1067 1074 m 849 1264 l 849 1164 l 358 1164 l 358 1264 l 849 1264 z "},"ē":{"ha":757,"x_min":60,"x_max":700,"o":"m 167 386 q 194 266 174 321 q 245 172 215 211 q 312 109 275 132 q 389 86 349 86 q 540 179 472 86 l 619 115 q 389 -14 529 -14 q 259 22 319 -14 q 154 121 199 58 q 85 266 110 183 q 60 442 60 349 q 85 617 60 535 q 153 763 110 700 q 258 861 197 825 q 389 897 318 897 q 513 873 457 897 q 608 803 568 849 q 672 693 649 758 q 700 547 696 628 l 167 386 m 588 618 q 517 753 568 711 q 389 794 467 794 q 309 771 347 794 q 241 706 271 747 q 192 610 211 665 q 167 492 172 556 l 588 618 m 624 1074 l 624 974 l 133 974 l 133 1074 l 624 1074 z "},"Ĕ":{"ha":1125,"x_min":92,"x_max":1067,"o":"m 1067 1074 l 1067 969 l 293 969 l 293 624 l 921 624 l 921 518 l 293 518 l 293 106 l 1067 106 l 1067 0 l 189 0 l 189 518 l 92 518 l 92 624 l 189 624 l 189 969 l 92 969 l 92 1074 l 1067 1074 m 483 1367 q 513 1277 486 1314 q 604 1240 539 1240 q 698 1277 671 1240 q 728 1367 725 1314 l 829 1367 q 813 1282 828 1322 q 769 1212 797 1242 q 699 1164 740 1182 q 604 1146 658 1146 q 509 1163 550 1146 q 440 1211 468 1181 q 397 1282 413 1242 q 379 1367 381 1322 l 483 1367 z "},"ĕ":{"ha":757,"x_min":60,"x_max":700,"o":"m 167 386 q 194 266 174 321 q 245 172 215 211 q 312 109 275 132 q 389 86 349 86 q 540 179 472 86 l 619 115 q 389 -14 529 -14 q 259 22 319 -14 q 154 121 199 58 q 85 266 110 183 q 60 442 60 349 q 85 617 60 535 q 153 763 110 700 q 258 861 197 825 q 389 897 318 897 q 513 873 457 897 q 608 803 568 849 q 672 693 649 758 q 700 547 696 628 l 167 386 m 588 618 q 517 753 568 711 q 389 794 467 794 q 309 771 347 794 q 241 706 271 747 q 192 610 211 665 q 167 492 172 556 l 588 618 m 257 1176 q 286 1087 260 1124 q 378 1050 313 1050 q 472 1087 444 1050 q 501 1176 499 1124 l 603 1176 q 586 1092 601 1132 q 542 1022 571 1051 q 473 974 514 992 q 378 956 432 956 q 283 973 324 956 q 214 1021 242 990 q 170 1092 186 1051 q 153 1176 154 1132 l 257 1176 z "},"Ė":{"ha":1125,"x_min":92,"x_max":1067,"o":"m 1067 1074 l 1067 969 l 293 969 l 293 624 l 921 624 l 921 518 l 293 518 l 293 106 l 1067 106 l 1067 0 l 189 0 l 189 518 l 92 518 l 92 624 l 189 624 l 189 969 l 92 969 l 92 1074 l 1067 1074 m 542 1239 q 560 1282 542 1264 q 604 1300 578 1300 q 649 1282 632 1300 q 667 1239 667 1264 q 647 1192 667 1211 q 604 1174 628 1174 q 560 1192 578 1174 q 542 1239 542 1211 z "},"ė":{"ha":757,"x_min":60,"x_max":700,"o":"m 167 386 q 194 266 174 321 q 245 172 215 211 q 312 109 275 132 q 389 86 349 86 q 540 179 472 86 l 619 115 q 389 -14 529 -14 q 259 22 319 -14 q 154 121 199 58 q 85 266 110 183 q 60 442 60 349 q 85 617 60 535 q 153 763 110 700 q 258 861 197 825 q 389 897 318 897 q 513 873 457 897 q 608 803 568 849 q 672 693 649 758 q 700 547 696 628 l 167 386 m 588 618 q 517 753 568 711 q 389 794 467 794 q 309 771 347 794 q 241 706 271 747 q 192 610 211 665 q 167 492 172 556 l 588 618 m 321 1049 q 339 1092 321 1074 q 383 1110 357 1110 q 428 1092 411 1110 q 446 1049 446 1074 q 426 1002 446 1021 q 383 983 407 983 q 339 1002 357 983 q 321 1049 321 1021 z "},"Ę":{"ha":1125,"x_min":92,"x_max":1067,"o":"m 1067 1074 l 1067 969 l 293 969 l 293 624 l 921 624 l 921 518 l 293 518 l 293 106 l 1067 106 l 1067 0 l 993 0 q 891 -35 932 -18 q 825 -70 850 -53 q 789 -105 800 -87 q 778 -140 778 -122 q 798 -183 778 -167 q 856 -199 818 -199 q 931 -177 899 -199 q 986 -107 964 -156 l 1067 -174 q 976 -268 1035 -236 q 842 -300 917 -300 q 776 -289 804 -300 q 728 -259 747 -278 q 700 -218 710 -240 q 690 -172 690 -196 q 738 -73 690 -115 q 889 0 785 -31 l 189 0 l 189 518 l 92 518 l 92 624 l 189 624 l 189 969 l 92 969 l 92 1074 l 1067 1074 z "},"ę":{"ha":757,"x_min":60,"x_max":688,"o":"m 167 386 q 194 266 174 321 q 245 172 215 211 q 312 109 275 132 q 389 86 349 86 q 540 179 472 86 l 619 115 q 565 53 594 79 q 489 4 535 28 q 378 -72 414 -32 q 343 -140 343 -112 q 363 -183 343 -167 q 421 -199 383 -199 q 497 -177 464 -199 q 551 -107 529 -156 l 632 -174 q 541 -268 600 -236 q 407 -300 482 -300 q 341 -289 369 -300 q 294 -259 313 -278 q 265 -218 275 -240 q 256 -172 256 -196 q 283 -90 256 -133 q 363 -12 310 -47 q 242 33 297 -6 q 146 133 186 71 q 83 274 106 194 q 60 442 60 353 q 85 617 60 535 q 156 763 111 700 q 260 861 200 825 q 389 897 319 897 q 601 804 524 897 q 688 547 679 711 l 167 386 m 575 618 q 508 753 556 711 q 389 794 461 794 q 309 771 347 794 q 241 706 271 747 q 192 610 211 665 q 167 492 172 556 l 575 618 z "},"Ě":{"ha":1125,"x_min":92,"x_max":1067,"o":"m 1067 1074 l 1067 969 l 293 969 l 293 624 l 921 624 l 921 518 l 293 518 l 293 106 l 1067 106 l 1067 0 l 189 0 l 189 518 l 92 518 l 92 624 l 189 624 l 189 969 l 92 969 l 92 1074 l 1067 1074 m 494 1367 l 603 1213 l 713 1367 l 838 1367 l 658 1138 l 547 1138 l 369 1367 l 494 1367 z "},"ě":{"ha":757,"x_min":60,"x_max":700,"o":"m 167 386 q 194 266 174 321 q 245 172 215 211 q 312 109 275 132 q 389 86 349 86 q 540 179 472 86 l 619 115 q 389 -14 529 -14 q 259 22 319 -14 q 154 121 199 58 q 85 266 110 183 q 60 442 60 349 q 85 617 60 535 q 153 763 110 700 q 258 861 197 825 q 389 897 318 897 q 513 873 457 897 q 608 803 568 849 q 672 693 649 758 q 700 547 696 628 l 167 386 m 588 618 q 517 753 568 711 q 389 794 467 794 q 309 771 347 794 q 241 706 271 747 q 192 610 211 665 q 167 492 172 556 l 588 618 m 269 1176 l 378 1022 l 488 1176 l 613 1176 l 433 947 l 322 947 l 144 1176 l 269 1176 z "},"Ğ":{"ha":1175,"x_min":67,"x_max":1142,"o":"m 1074 901 q 957 963 1022 943 q 813 983 892 983 q 658 961 736 983 q 510 900 581 939 q 377 808 439 861 q 270 691 315 754 q 199 558 225 628 q 172 418 172 489 q 198 286 172 346 q 271 183 224 226 q 386 115 318 139 q 540 90 454 90 q 698 116 619 90 q 839 186 776 142 q 940 290 901 231 q 978 418 978 350 l 978 564 l 1083 564 l 1083 -96 q 1067 -199 1083 -150 q 1021 -293 1051 -249 l 935 -229 q 978 -96 978 -172 l 978 199 q 898 113 946 151 q 792 45 850 74 q 668 1 733 17 q 539 -14 603 -14 q 328 18 417 -14 q 181 108 239 50 q 94 243 122 165 q 67 413 67 321 q 95 577 67 494 q 174 735 124 660 q 295 874 225 810 q 449 987 365 939 q 625 1062 532 1035 q 815 1089 718 1089 q 1142 979 1011 1089 l 1074 901 m 661 1367 q 690 1277 664 1314 q 782 1240 717 1240 q 876 1277 849 1240 q 906 1367 903 1314 l 1007 1367 q 990 1282 1006 1322 q 947 1212 975 1242 q 877 1164 918 1182 q 782 1146 836 1146 q 687 1163 728 1146 q 618 1211 646 1181 q 574 1282 590 1242 q 557 1367 558 1322 l 661 1367 z "},"ğ":{"ha":738,"x_min":61,"x_max":646,"o":"m 544 697 q 390 794 478 794 q 302 774 343 794 q 231 709 261 753 q 183 599 200 665 q 165 442 165 533 q 181 284 165 351 q 226 173 197 217 q 293 108 254 129 q 378 86 332 86 q 441 102 411 86 q 493 144 471 118 q 528 205 515 171 q 542 275 542 239 l 542 478 l 646 478 l 646 -122 q 588 -293 646 -218 l 507 -232 q 542 -122 542 -187 l 542 90 q 474 13 518 40 q 367 -14 429 -14 q 244 17 300 -14 q 147 106 188 47 q 84 249 107 164 q 61 442 61 333 q 87 635 61 550 q 157 778 113 719 q 261 867 201 836 q 390 897 321 897 q 518 866 461 897 q 621 767 575 835 l 544 697 m 247 1176 q 276 1087 250 1124 q 368 1050 303 1050 q 462 1087 435 1050 q 492 1176 489 1124 l 593 1176 q 576 1092 592 1132 q 533 1022 561 1051 q 463 974 504 992 q 368 956 422 956 q 273 973 314 956 q 204 1021 232 990 q 160 1092 176 1051 q 143 1176 144 1132 l 247 1176 z "},"Ġ":{"ha":1175,"x_min":67,"x_max":1142,"o":"m 1074 901 q 957 963 1022 943 q 813 983 892 983 q 658 961 736 983 q 510 900 581 939 q 377 808 439 861 q 270 691 315 754 q 199 558 225 628 q 172 418 172 489 q 198 286 172 346 q 271 183 224 226 q 386 115 318 139 q 540 90 454 90 q 698 116 619 90 q 839 186 776 142 q 940 290 901 231 q 978 418 978 350 l 978 564 l 1083 564 l 1083 -96 q 1067 -199 1083 -150 q 1021 -293 1051 -249 l 935 -229 q 978 -96 978 -172 l 978 199 q 898 113 946 151 q 792 45 850 74 q 668 1 733 17 q 539 -14 603 -14 q 328 18 417 -14 q 181 108 239 50 q 94 243 122 165 q 67 413 67 321 q 95 577 67 494 q 174 735 124 660 q 295 874 225 810 q 449 987 365 939 q 625 1062 532 1035 q 815 1089 718 1089 q 1142 979 1011 1089 l 1074 901 m 719 1239 q 738 1282 719 1264 q 782 1300 756 1300 q 827 1282 810 1300 q 844 1239 844 1264 q 825 1192 844 1211 q 782 1174 806 1174 q 738 1192 756 1174 q 719 1239 719 1211 z "},"ġ":{"ha":738,"x_min":61,"x_max":646,"o":"m 544 697 q 390 794 478 794 q 302 774 343 794 q 231 709 261 753 q 183 599 200 665 q 165 442 165 533 q 181 284 165 351 q 226 173 197 217 q 293 108 254 129 q 378 86 332 86 q 441 102 411 86 q 493 144 471 118 q 528 205 515 171 q 542 275 542 239 l 542 478 l 646 478 l 646 -122 q 588 -293 646 -218 l 507 -232 q 542 -122 542 -187 l 542 90 q 474 13 518 40 q 367 -14 429 -14 q 244 17 300 -14 q 147 106 188 47 q 84 249 107 164 q 61 442 61 333 q 87 635 61 550 q 157 778 113 719 q 261 867 201 836 q 390 897 321 897 q 518 866 461 897 q 621 767 575 835 l 544 697 m 306 1049 q 324 1092 306 1074 q 368 1110 342 1110 q 413 1092 396 1110 q 431 1049 431 1074 q 411 1002 431 1021 q 368 983 392 983 q 324 1002 342 983 q 306 1049 306 1021 z "},"Ģ":{"ha":1175,"x_min":67,"x_max":1142,"o":"m 1074 901 q 957 963 1022 943 q 813 983 892 983 q 658 961 736 983 q 510 900 581 939 q 377 808 439 861 q 270 691 315 754 q 199 558 225 628 q 172 418 172 489 q 198 286 172 346 q 271 183 224 226 q 386 115 318 139 q 540 90 454 90 q 698 116 619 90 q 839 186 776 142 q 940 290 901 231 q 978 418 978 350 l 978 564 l 1083 564 l 1083 -96 q 1067 -199 1083 -150 q 1021 -293 1051 -249 l 935 -229 q 978 -96 978 -172 l 978 199 q 898 113 946 151 q 792 45 850 74 q 668 1 733 17 q 539 -14 603 -14 q 328 18 417 -14 q 181 108 239 50 q 94 243 122 165 q 67 413 67 321 q 95 577 67 494 q 174 735 124 660 q 295 874 225 810 q 449 987 365 939 q 625 1062 532 1035 q 815 1089 718 1089 q 1142 979 1011 1089 l 1074 901 m 572 -218 q 531 -188 547 -214 q 515 -135 515 -162 q 535 -71 515 -96 q 586 -46 554 -46 q 636 -69 614 -46 q 658 -139 658 -93 q 603 -300 658 -197 l 554 -300 l 572 -218 z "},"ģ":{"ha":738,"x_min":61,"x_max":646,"o":"m 544 697 q 390 794 478 794 q 302 774 343 794 q 231 709 261 753 q 183 599 200 665 q 165 442 165 533 q 181 284 165 351 q 226 173 197 217 q 293 108 254 129 q 378 86 332 86 q 441 102 411 86 q 493 144 471 118 q 528 205 515 171 q 542 275 542 239 l 542 478 l 646 478 l 646 -122 q 588 -293 646 -218 l 507 -232 q 542 -122 542 -187 l 542 90 q 474 13 518 40 q 367 -14 429 -14 q 244 17 300 -14 q 147 106 188 47 q 84 249 107 164 q 61 442 61 333 q 87 635 61 550 q 157 778 113 719 q 261 867 201 836 q 390 897 321 897 q 518 866 461 897 q 621 767 575 835 l 544 697 m 389 1119 q 430 1090 414 1115 q 446 1036 446 1064 q 426 972 446 997 q 375 947 407 947 q 325 971 347 947 q 303 1040 303 994 q 358 1201 303 1099 l 407 1201 l 389 1119 z "},"Ħ":{"ha":1288,"x_min":0,"x_max":1288,"o":"m 293 1074 l 293 860 l 1089 860 l 1089 1074 l 1192 1074 l 1192 860 l 1288 860 l 1288 760 l 1192 760 l 1192 160 q 1201 89 1192 124 q 1233 26 1211 54 l 1149 -36 q 1089 160 1089 49 l 1089 518 l 293 518 l 293 160 q 303 89 293 124 q 333 26 313 54 l 251 -36 q 188 160 188 51 l 188 518 l 92 518 l 92 624 l 188 624 l 188 760 l 0 760 l 0 860 l 188 860 l 188 969 l 92 969 l 92 1074 l 293 1074 m 293 624 l 1089 624 l 1089 760 l 293 760 l 293 624 z "},"ħ":{"ha":831,"x_min":0,"x_max":772,"o":"m 135 1074 q 114 1110 125 1094 l 190 1176 q 243 1074 229 1126 l 490 1074 l 490 974 l 250 974 l 250 706 q 334 850 282 803 q 472 897 386 897 q 576 870 528 897 q 659 787 624 843 q 715 645 694 731 q 735 442 735 560 l 735 136 q 744 77 735 104 q 772 26 753 50 l 690 -36 q 632 136 632 40 l 632 442 q 581 711 632 626 q 447 796 531 796 q 370 770 406 796 q 308 698 335 744 q 265 586 281 651 q 250 442 250 521 l 250 157 q 192 -36 250 39 l 111 26 q 147 136 147 71 l 147 974 l 0 974 l 0 1074 l 135 1074 z "},"Ī":{"ha":389,"x_min":-21,"x_max":469,"o":"m 293 1074 l 293 160 q 303 89 293 124 q 335 26 313 54 l 251 -36 q 189 160 189 49 l 189 969 l 92 969 l 92 1074 l 293 1074 m 469 1264 l 469 1164 l -21 1164 l -21 1264 l 469 1264 z "},"ī":{"ha":451,"x_min":-19,"x_max":471,"o":"m 271 883 l 271 136 q 310 26 271 71 l 226 -36 q 169 136 169 39 l 169 883 l 271 883 m 471 1074 l 471 974 l -19 974 l -19 1074 l 471 1074 z "},"Ĭ":{"ha":389,"x_min":-29,"x_max":421,"o":"m 293 1074 l 293 160 q 303 89 293 124 q 335 26 313 54 l 251 -36 q 189 160 189 49 l 189 969 l 92 969 l 92 1074 l 293 1074 m 75 1367 q 104 1277 78 1314 q 196 1240 131 1240 q 290 1277 263 1240 q 319 1367 317 1314 l 421 1367 q 404 1282 419 1322 q 360 1212 389 1242 q 291 1164 332 1182 q 196 1146 250 1146 q 101 1163 142 1146 q 32 1211 60 1181 q -12 1282 4 1242 q -29 1367 -28 1322 l 75 1367 z "},"ĭ":{"ha":421,"x_min":-14,"x_max":436,"o":"m 254 883 l 254 136 q 293 26 254 71 l 210 -36 q 153 136 153 39 l 153 883 l 254 883 m 90 1176 q 119 1087 93 1124 q 211 1050 146 1050 q 305 1087 278 1050 q 335 1176 332 1124 l 436 1176 q 419 1092 435 1132 q 376 1022 404 1051 q 306 974 347 992 q 211 956 265 956 q 116 973 157 956 q 47 1021 75 990 q 3 1092 19 1051 q -14 1176 -12 1132 l 90 1176 z "},"Į":{"ha":389,"x_min":21,"x_max":397,"o":"m 293 1074 l 293 160 q 305 87 293 124 q 349 10 317 50 q 286 -10 326 3 q 206 -41 246 -22 q 138 -85 167 -60 q 108 -140 108 -110 q 128 -183 108 -167 q 186 -199 149 -199 q 262 -177 229 -199 q 317 -107 294 -156 l 397 -174 q 306 -268 365 -236 q 172 -300 247 -300 q 106 -289 135 -300 q 59 -259 78 -278 q 31 -218 40 -240 q 21 -172 21 -196 q 69 -72 21 -115 q 228 3 118 -29 q 189 160 189 76 l 189 969 l 92 969 l 92 1074 l 293 1074 z "},"į":{"ha":351,"x_min":-12,"x_max":364,"o":"m 221 883 l 221 136 q 231 76 221 104 q 263 17 240 47 q 166 -40 203 -17 q 109 -82 129 -64 q 82 -114 89 -100 q 75 -140 75 -128 q 95 -183 75 -167 q 153 -199 115 -199 q 228 -177 196 -199 q 283 -107 261 -156 l 364 -174 q 273 -268 332 -236 q 139 -300 214 -300 q 73 -289 101 -300 q 26 -259 44 -278 q -3 -218 7 -240 q -12 -172 -12 -196 q 28 -78 -12 -119 q 157 -8 69 -37 q 128 61 138 25 q 119 136 119 97 l 119 883 l 221 883 m 111 1049 q 129 1092 111 1074 q 174 1110 147 1110 q 219 1092 201 1110 q 236 1049 236 1074 q 217 1002 236 1021 q 174 983 197 983 q 129 1002 147 983 q 111 1049 111 1021 z "},"İ":{"ha":389,"x_min":92,"x_max":335,"o":"m 293 1074 l 293 160 q 303 89 293 124 q 335 26 313 54 l 251 -36 q 189 160 189 49 l 189 969 l 92 969 l 92 1074 l 293 1074 m 160 1239 q 178 1282 160 1264 q 222 1300 196 1300 q 267 1282 250 1300 q 285 1239 285 1264 q 265 1192 285 1211 q 222 1174 246 1174 q 178 1192 196 1174 q 160 1239 160 1211 z "},"ı":{"ha":351,"x_min":119,"x_max":260,"o":"m 221 883 l 221 136 q 260 26 221 71 l 176 -36 q 119 136 119 39 l 119 883 l 221 883 z "},"Ĳ":{"ha":1435,"x_min":92,"x_max":1361,"o":"m 293 1074 l 293 160 q 303 89 293 124 q 335 26 313 54 l 251 -36 q 189 160 189 49 l 189 969 l 92 969 l 92 1074 l 293 1074 m 1361 1074 l 1361 686 q 1315 401 1361 529 q 1187 180 1269 272 q 988 37 1104 88 q 732 -14 872 -14 q 638 -5 679 -14 q 560 24 596 4 q 490 74 524 43 q 419 151 457 106 l 490 219 q 544 163 518 188 q 599 123 571 139 q 660 99 628 107 q 733 90 693 90 q 951 132 854 90 q 1117 251 1049 174 q 1221 439 1185 329 q 1257 686 1257 549 l 1257 969 l 1161 969 l 1161 1074 l 1361 1074 z "},"ĳ":{"ha":703,"x_min":111,"x_max":592,"o":"m 111 1049 q 129 1092 111 1074 q 174 1110 147 1110 q 219 1092 201 1110 q 236 1049 236 1074 q 217 1002 236 1021 q 174 983 197 983 q 129 1002 147 983 q 111 1049 111 1021 m 221 883 l 221 136 q 260 26 221 71 l 176 -36 q 119 136 119 39 l 119 883 l 221 883 m 465 1049 q 484 1092 465 1074 q 528 1110 503 1110 q 574 1092 556 1110 q 592 1049 592 1074 q 574 1002 592 1021 q 528 983 556 983 q 484 1002 503 983 q 465 1049 465 1021 m 579 883 l 579 -122 q 522 -293 579 -219 l 440 -232 q 479 -122 479 -187 l 479 883 l 579 883 z "},"Ķ":{"ha":1175,"x_min":92,"x_max":1175,"o":"m 293 1074 l 293 543 q 481 632 386 571 q 667 773 575 693 q 845 944 758 853 q 1010 1122 932 1035 l 1085 1047 q 928 881 1010 968 q 760 718 846 794 q 589 583 675 642 q 421 501 503 525 q 535 426 478 471 q 653 332 593 382 q 776 231 714 282 q 903 136 839 179 q 1036 61 968 93 q 1175 19 1104 29 l 1149 -82 q 968 -17 1050 -57 q 816 70 886 22 q 683 172 746 118 q 559 278 621 225 q 432 382 497 332 q 293 472 367 432 l 293 160 q 303 89 293 124 q 335 26 313 54 l 251 -36 q 189 160 189 49 l 189 969 l 92 969 l 92 1074 l 293 1074 m 572 -218 q 531 -188 547 -214 q 515 -135 515 -162 q 535 -71 515 -96 q 586 -46 554 -46 q 636 -69 614 -46 q 658 -139 658 -93 q 603 -300 658 -197 l 554 -300 l 572 -218 z "},"ķ":{"ha":758,"x_min":111,"x_max":744,"o":"m 190 1176 q 250 1013 250 1104 l 250 547 q 342 603 299 564 q 425 692 386 643 q 498 796 464 742 q 561 897 532 850 l 647 846 q 553 703 597 765 q 468 594 510 640 q 385 519 426 549 q 296 474 343 489 q 372 401 336 442 q 440 318 407 361 q 508 233 474 275 q 578 157 542 192 q 655 99 614 122 q 744 68 696 75 l 718 -36 q 563 42 629 -12 q 444 163 497 97 q 346 294 392 229 q 250 403 300 358 l 250 136 q 193 -36 250 42 l 111 26 q 149 136 149 72 l 149 1013 q 114 1110 149 1069 l 190 1176 m 392 -218 q 351 -188 367 -214 q 335 -135 335 -162 q 354 -71 335 -96 q 406 -46 374 -46 q 456 -69 433 -46 q 478 -139 478 -93 q 422 -300 478 -197 l 374 -300 l 392 -218 z "},"Ĺ":{"ha":1101,"x_min":92,"x_max":1050,"o":"m 293 1074 l 293 106 l 1050 106 l 1050 0 l 189 0 l 189 969 l 92 969 l 92 1074 l 293 1074 m 667 1367 l 489 1138 l 378 1138 l 526 1367 l 667 1367 z "},"ĺ":{"ha":385,"x_min":89,"x_max":378,"o":"m 378 1367 l 210 1150 q 251 1013 251 1089 l 251 138 q 192 -36 251 43 l 111 28 q 146 138 146 71 l 146 1013 q 135 1068 146 1040 q 89 1138 124 1096 l 238 1367 l 378 1367 z "},"Ļ":{"ha":1101,"x_min":92,"x_max":1050,"o":"m 293 1074 l 293 106 l 1050 106 l 1050 0 l 189 0 l 189 969 l 92 969 l 92 1074 l 293 1074 m 592 -218 q 551 -188 567 -214 q 535 -135 535 -162 q 554 -71 535 -96 q 606 -46 574 -46 q 656 -69 633 -46 q 678 -139 678 -93 q 622 -300 678 -197 l 574 -300 l 592 -218 z "},"ļ":{"ha":385,"x_min":111,"x_max":264,"o":"m 189 1176 q 251 1013 251 1107 l 251 138 q 192 -36 251 43 l 111 28 q 146 138 146 71 l 146 1013 q 113 1110 146 1068 l 189 1176 m 178 -218 q 137 -188 153 -214 q 121 -135 121 -162 q 140 -71 121 -96 q 192 -46 160 -46 q 242 -69 219 -46 q 264 -139 264 -93 q 208 -300 264 -197 l 160 -300 l 178 -218 z "},"Ľ":{"ha":1101,"x_min":92,"x_max":1050,"o":"m 293 1074 l 293 106 l 1050 106 l 1050 0 l 189 0 l 189 969 l 92 969 l 92 1074 l 293 1074 m 474 1004 q 433 1034 449 1008 q 417 1088 417 1060 q 436 1151 417 1126 q 488 1176 456 1176 q 538 1153 515 1176 q 560 1083 560 1129 q 504 922 560 1025 l 456 922 l 474 1004 z "},"ľ":{"ha":385,"x_min":111,"x_max":458,"o":"m 189 1176 q 251 1013 251 1107 l 251 138 q 192 -36 251 43 l 111 28 q 146 138 146 71 l 146 1013 q 113 1110 146 1068 l 189 1176 m 372 1004 q 331 1034 347 1008 q 315 1088 315 1060 q 335 1151 315 1126 q 386 1176 354 1176 q 436 1153 414 1176 q 458 1083 458 1129 q 403 922 458 1025 l 354 922 l 372 1004 z "},"Ŀ":{"ha":1101,"x_min":92,"x_max":1050,"o":"m 293 1074 l 293 106 l 1050 106 l 1050 0 l 189 0 l 189 969 l 92 969 l 92 1074 l 293 1074 m 390 572 q 408 615 390 597 q 453 633 426 633 q 498 615 481 633 q 515 572 515 597 q 496 526 515 544 q 453 507 476 507 q 408 526 426 507 q 390 572 390 544 z "},"ŀ":{"ha":426,"x_min":111,"x_max":467,"o":"m 189 1176 q 251 1013 251 1107 l 251 138 q 192 -36 251 43 l 111 28 q 146 138 146 71 l 146 1013 q 113 1110 146 1068 l 189 1176 m 342 611 q 360 654 342 636 q 404 672 378 672 q 449 654 432 672 q 467 611 467 636 q 447 565 467 583 q 404 546 428 546 q 360 565 378 546 q 342 611 342 583 z "},"Ł":{"ha":1101,"x_min":92,"x_max":1050,"o":"m 293 1074 l 293 685 l 565 788 l 600 693 l 293 576 l 293 106 l 1050 106 l 1050 0 l 189 0 l 189 536 l 131 515 l 96 610 l 189 644 l 189 969 l 92 969 l 92 1074 l 293 1074 z "},"ł":{"ha":444,"x_min":17,"x_max":439,"o":"m 215 1176 q 276 1013 276 1110 l 276 607 l 404 656 l 439 561 l 276 499 l 276 138 q 218 -36 276 40 l 136 28 q 172 138 172 69 l 172 458 l 51 413 l 17 508 l 172 567 l 172 1013 q 138 1110 172 1069 l 215 1176 z "},"Ń":{"ha":1281,"x_min":92,"x_max":1226,"o":"m 336 1074 l 1081 325 l 1081 1074 l 1183 1074 l 1183 160 q 1226 26 1183 85 l 1143 -36 q 1081 160 1081 49 l 1081 196 l 286 982 l 286 160 q 328 26 286 82 l 243 -36 q 197 56 213 7 q 181 160 181 106 l 181 969 l 92 969 l 92 1074 l 336 1074 m 951 1367 l 774 1138 l 663 1138 l 811 1367 l 951 1367 z "},"ń":{"ha":779,"x_min":64,"x_max":719,"o":"m 204 156 q 146 -36 204 39 l 64 26 q 101 136 101 72 l 101 679 q 92 761 101 715 q 64 869 83 807 q 129 880 90 875 q 210 889 168 885 q 294 895 253 893 q 365 897 335 897 q 607 805 531 897 q 683 547 683 713 l 683 136 q 719 26 683 71 l 638 -36 q 579 136 579 40 l 579 526 q 528 724 579 650 q 382 797 478 797 q 282 792 331 797 q 185 778 233 788 q 200 710 196 743 q 204 646 204 678 l 204 156 m 586 1176 l 408 947 l 297 947 l 446 1176 l 586 1176 z "},"Ņ":{"ha":1281,"x_min":92,"x_max":1226,"o":"m 336 1074 l 1081 325 l 1081 1074 l 1183 1074 l 1183 160 q 1226 26 1183 85 l 1143 -36 q 1081 160 1081 49 l 1081 196 l 286 982 l 286 160 q 328 26 286 82 l 243 -36 q 197 56 213 7 q 181 160 181 106 l 181 969 l 92 969 l 92 1074 l 336 1074 m 667 -218 q 626 -188 642 -214 q 610 -135 610 -162 q 629 -71 610 -96 q 681 -46 649 -46 q 731 -69 708 -46 q 753 -139 753 -93 q 697 -300 753 -197 l 649 -300 l 667 -218 z "},"ņ":{"ha":779,"x_min":64,"x_max":719,"o":"m 204 156 q 146 -36 204 39 l 64 26 q 101 136 101 72 l 101 679 q 92 761 101 715 q 64 869 83 807 q 129 880 90 875 q 210 889 168 885 q 294 895 253 893 q 365 897 335 897 q 607 805 531 897 q 683 547 683 713 l 683 136 q 719 26 683 71 l 638 -36 q 579 136 579 40 l 579 526 q 528 724 579 650 q 382 797 478 797 q 282 792 331 797 q 185 778 233 788 q 200 710 196 743 q 204 646 204 678 l 204 156 m 369 -218 q 328 -188 344 -214 q 313 -135 313 -162 q 332 -71 313 -96 q 383 -46 351 -46 q 433 -69 411 -46 q 456 -139 456 -93 q 400 -300 456 -197 l 351 -300 l 369 -218 z "},"Ň":{"ha":1281,"x_min":92,"x_max":1226,"o":"m 336 1074 l 1081 325 l 1081 1074 l 1183 1074 l 1183 160 q 1226 26 1183 85 l 1143 -36 q 1081 160 1081 49 l 1081 196 l 286 982 l 286 160 q 328 26 286 82 l 243 -36 q 197 56 213 7 q 181 160 181 106 l 181 969 l 92 969 l 92 1074 l 336 1074 m 572 1367 l 681 1213 l 790 1367 l 915 1367 l 736 1138 l 625 1138 l 447 1367 l 572 1367 z "},"ň":{"ha":779,"x_min":64,"x_max":719,"o":"m 204 156 q 146 -36 204 39 l 64 26 q 101 136 101 72 l 101 679 q 92 761 101 715 q 64 869 83 807 q 129 880 90 875 q 210 889 168 885 q 294 895 253 893 q 365 897 335 897 q 607 805 531 897 q 683 547 683 713 l 683 136 q 719 26 683 71 l 638 -36 q 579 136 579 40 l 579 526 q 528 724 579 650 q 382 797 478 797 q 282 792 331 797 q 185 778 233 788 q 200 710 196 743 q 204 646 204 678 l 204 156 m 253 1176 l 361 1022 l 471 1176 l 596 1176 l 417 947 l 306 947 l 128 1176 l 253 1176 z "},"Ŋ":{"ha":1281,"x_min":92,"x_max":1183,"o":"m 336 1074 l 1081 325 l 1081 1074 l 1183 1074 l 1183 -122 q 1126 -293 1183 -219 l 1042 -232 q 1081 -122 1081 -187 l 1081 196 l 286 982 l 286 160 q 328 26 286 82 l 243 -36 q 197 56 213 7 q 181 160 181 106 l 181 969 l 92 969 l 92 1074 l 336 1074 z "},"ŋ":{"ha":779,"x_min":64,"x_max":683,"o":"m 204 156 q 146 -36 204 39 l 64 26 q 101 136 101 72 l 101 679 q 92 761 101 715 q 64 869 83 807 q 129 880 90 875 q 210 889 168 885 q 294 895 253 893 q 365 897 335 897 q 607 805 531 897 q 683 547 683 713 l 683 -122 q 667 -212 683 -169 q 622 -293 651 -256 l 540 -232 q 579 -122 579 -187 l 579 526 q 528 724 579 650 q 382 797 478 797 q 282 792 331 797 q 185 778 233 788 q 200 710 196 743 q 204 646 204 678 l 204 156 z "},"Ō":{"ha":1346,"x_min":63,"x_max":1288,"o":"m 63 422 q 91 585 63 504 q 170 741 119 667 q 291 878 221 815 q 445 988 361 942 q 622 1062 529 1035 q 814 1089 715 1089 q 1002 1058 915 1089 q 1152 970 1089 1026 q 1251 837 1215 914 q 1288 668 1288 760 q 1258 501 1288 585 q 1178 342 1229 418 q 1056 201 1126 267 q 901 88 985 136 q 726 13 818 40 q 538 -14 633 -14 q 348 20 435 -14 q 197 113 261 54 q 98 251 133 172 q 63 422 63 331 m 168 426 q 194 293 168 354 q 270 187 221 232 q 388 116 319 142 q 542 90 457 90 q 776 141 661 90 q 983 273 892 192 q 1129 457 1074 354 q 1185 663 1185 560 q 1156 796 1185 736 q 1078 897 1128 856 q 959 961 1028 939 q 808 983 890 983 q 576 935 690 983 q 370 808 461 886 q 224 629 279 729 q 168 426 168 529 m 1057 1264 l 1057 1164 l 567 1164 l 567 1264 l 1057 1264 z "},"ō":{"ha":779,"x_min":61,"x_max":715,"o":"m 390 897 q 518 863 458 897 q 622 769 578 829 q 690 625 665 708 q 715 442 715 542 q 691 258 715 342 q 623 115 667 175 q 519 20 579 54 q 390 -14 460 -14 q 258 20 318 -14 q 153 115 197 54 q 85 258 110 175 q 61 442 61 342 q 86 625 61 542 q 155 769 111 708 q 259 863 199 829 q 390 897 319 897 m 390 794 q 303 769 344 794 q 231 697 261 743 q 182 585 200 650 q 164 442 164 519 q 182 299 164 364 q 231 186 200 233 q 303 113 263 139 q 390 86 344 86 q 477 113 436 86 q 548 186 518 139 q 596 299 578 233 q 614 442 614 364 q 597 585 614 519 q 549 697 579 650 q 478 769 518 743 q 390 794 438 794 m 635 1074 l 635 974 l 144 974 l 144 1074 l 635 1074 z "},"Ŏ":{"ha":1346,"x_min":63,"x_max":1288,"o":"m 63 422 q 91 585 63 504 q 170 741 119 667 q 291 878 221 815 q 445 988 361 942 q 622 1062 529 1035 q 814 1089 715 1089 q 1002 1058 915 1089 q 1152 970 1089 1026 q 1251 837 1215 914 q 1288 668 1288 760 q 1258 501 1288 585 q 1178 342 1229 418 q 1056 201 1126 267 q 901 88 985 136 q 726 13 818 40 q 538 -14 633 -14 q 348 20 435 -14 q 197 113 261 54 q 98 251 133 172 q 63 422 63 331 m 168 426 q 194 293 168 354 q 270 187 221 232 q 388 116 319 142 q 542 90 457 90 q 776 141 661 90 q 983 273 892 192 q 1129 457 1074 354 q 1185 663 1185 560 q 1156 796 1185 736 q 1078 897 1128 856 q 959 961 1028 939 q 808 983 890 983 q 576 935 690 983 q 370 808 461 886 q 224 629 279 729 q 168 426 168 529 m 690 1367 q 719 1277 693 1314 q 811 1240 746 1240 q 905 1277 878 1240 q 935 1367 932 1314 l 1036 1367 q 1019 1282 1035 1322 q 976 1212 1004 1242 q 906 1164 947 1182 q 811 1146 865 1146 q 716 1163 757 1146 q 647 1211 675 1181 q 603 1282 619 1242 q 586 1367 588 1322 l 690 1367 z "},"ŏ":{"ha":779,"x_min":61,"x_max":715,"o":"m 390 897 q 518 863 458 897 q 622 769 578 829 q 690 625 665 708 q 715 442 715 542 q 691 258 715 342 q 623 115 667 175 q 519 20 579 54 q 390 -14 460 -14 q 258 20 318 -14 q 153 115 197 54 q 85 258 110 175 q 61 442 61 342 q 86 625 61 542 q 155 769 111 708 q 259 863 199 829 q 390 897 319 897 m 390 794 q 303 769 344 794 q 231 697 261 743 q 182 585 200 650 q 164 442 164 519 q 182 299 164 364 q 231 186 200 233 q 303 113 263 139 q 390 86 344 86 q 477 113 436 86 q 548 186 518 139 q 596 299 578 233 q 614 442 614 364 q 597 585 614 519 q 549 697 579 650 q 478 769 518 743 q 390 794 438 794 m 268 1176 q 297 1087 271 1124 q 389 1050 324 1050 q 483 1087 456 1050 q 513 1176 510 1124 l 614 1176 q 597 1092 613 1132 q 553 1022 582 1051 q 484 974 525 992 q 389 956 443 956 q 294 973 335 956 q 225 1021 253 990 q 181 1092 197 1051 q 164 1176 165 1132 l 268 1176 z "},"Ő":{"ha":1346,"x_min":63,"x_max":1288,"o":"m 63 422 q 91 585 63 504 q 170 741 119 667 q 291 878 221 815 q 445 988 361 942 q 622 1062 529 1035 q 814 1089 715 1089 q 1002 1058 915 1089 q 1152 970 1089 1026 q 1251 837 1215 914 q 1288 668 1288 760 q 1258 501 1288 585 q 1178 342 1229 418 q 1056 201 1126 267 q 901 88 985 136 q 726 13 818 40 q 538 -14 633 -14 q 348 20 435 -14 q 197 113 261 54 q 98 251 133 172 q 63 422 63 331 m 168 426 q 194 293 168 354 q 270 187 221 232 q 388 116 319 142 q 542 90 457 90 q 776 141 661 90 q 983 273 892 192 q 1129 457 1074 354 q 1185 663 1185 560 q 1156 796 1185 736 q 1078 897 1128 856 q 959 961 1028 939 q 808 983 890 983 q 576 935 690 983 q 370 808 461 886 q 224 629 279 729 q 168 426 168 529 m 1147 1367 l 968 1138 l 858 1138 l 1007 1367 l 1147 1367 m 932 1367 l 754 1138 l 643 1138 l 792 1367 l 932 1367 z "},"ő":{"ha":779,"x_min":61,"x_max":715,"o":"m 390 897 q 518 863 458 897 q 622 769 578 829 q 690 625 665 708 q 715 442 715 542 q 691 258 715 342 q 623 115 667 175 q 519 20 579 54 q 390 -14 460 -14 q 258 20 318 -14 q 153 115 197 54 q 85 258 110 175 q 61 442 61 342 q 86 625 61 542 q 155 769 111 708 q 259 863 199 829 q 390 897 319 897 m 390 794 q 303 769 344 794 q 231 697 261 743 q 182 585 200 650 q 164 442 164 519 q 182 299 164 364 q 231 186 200 233 q 303 113 263 139 q 390 86 344 86 q 477 113 436 86 q 548 186 518 139 q 596 299 578 233 q 614 442 614 364 q 597 585 614 519 q 549 697 579 650 q 478 769 518 743 q 390 794 438 794 m 711 1176 l 532 947 l 422 947 l 571 1176 l 711 1176 m 496 1176 l 318 947 l 207 947 l 356 1176 l 496 1176 z "},"Œ":{"ha":1949,"x_min":63,"x_max":1892,"o":"m 1892 1074 l 1892 969 l 1117 969 l 1117 624 l 1746 624 l 1746 518 l 1117 518 l 1117 106 l 1892 106 l 1892 0 l 1014 0 l 1014 165 q 790 34 913 82 q 538 -14 668 -14 q 348 20 435 -14 q 197 113 261 54 q 98 251 133 172 q 63 422 63 331 q 91 585 63 504 q 170 741 119 667 q 291 878 221 815 q 445 988 361 942 q 622 1062 529 1035 q 814 1089 715 1089 q 940 1074 879 1089 l 1892 1074 m 1014 938 q 917 972 968 961 q 808 983 865 983 q 576 935 690 983 q 370 808 461 886 q 224 629 279 729 q 168 426 168 529 q 194 293 168 354 q 270 187 221 232 q 388 116 319 142 q 542 90 457 90 q 670 106 606 90 q 795 151 735 122 q 911 218 856 179 q 1014 304 967 257 l 1014 938 z "},"œ":{"ha":1313,"x_min":61,"x_max":1242,"o":"m 721 386 q 749 266 728 321 q 800 172 769 211 q 867 109 831 132 q 944 86 904 86 q 1096 179 1028 86 l 1175 115 q 944 -14 1083 -14 q 783 44 854 -14 q 667 193 711 101 q 553 42 625 97 q 390 -14 482 -14 q 258 20 318 -14 q 153 115 197 54 q 85 258 110 175 q 61 442 61 342 q 86 625 61 542 q 155 769 111 708 q 259 863 199 829 q 390 897 319 897 q 553 841 481 897 q 667 688 625 785 q 783 840 711 783 q 944 897 856 897 q 1157 804 1079 897 q 1242 547 1235 711 l 721 386 m 390 794 q 303 769 344 794 q 231 697 261 743 q 182 585 200 650 q 164 442 164 519 q 182 299 164 364 q 231 186 200 233 q 303 113 263 139 q 390 86 344 86 q 477 113 436 86 q 548 186 518 139 q 596 299 578 233 q 614 442 614 364 q 597 585 614 519 q 549 697 579 650 q 478 769 518 743 q 390 794 438 794 m 1131 618 q 1064 753 1111 711 q 944 794 1017 794 q 865 771 903 794 q 797 706 826 747 q 747 610 767 665 q 721 492 726 556 l 1131 618 z "},"Ŕ":{"ha":1385,"x_min":92,"x_max":1350,"o":"m 800 1074 q 1027 1048 929 1074 q 1191 977 1125 1022 q 1290 872 1257 932 q 1324 743 1324 811 q 1288 606 1324 668 q 1183 500 1251 544 q 1019 431 1115 456 q 801 407 922 407 l 664 407 q 716 374 694 389 q 762 337 738 358 q 820 282 786 315 q 911 196 854 249 q 992 123 958 151 q 1053 78 1026 94 q 1103 54 1081 61 q 1146 47 1125 47 q 1247 57 1204 47 q 1319 86 1290 67 l 1350 -11 q 1263 -45 1314 -35 q 1146 -56 1213 -56 q 1034 -20 1101 -56 q 883 92 967 15 q 721 235 794 174 q 586 337 647 296 q 473 398 525 378 q 374 418 421 418 l 297 418 l 297 0 l 193 0 l 193 969 l 92 969 l 92 1074 l 800 1074 m 297 514 l 794 514 q 983 531 904 514 q 1111 577 1061 547 q 1184 649 1161 607 q 1207 744 1207 692 q 1186 835 1207 794 q 1117 906 1165 876 q 992 953 1069 936 q 800 969 914 969 l 297 969 l 297 514 m 906 1367 l 728 1138 l 617 1138 l 765 1367 l 906 1367 z "},"ŕ":{"ha":543,"x_min":54,"x_max":532,"o":"m 135 900 q 188 732 188 831 q 215 796 197 765 q 256 849 232 826 q 311 884 281 871 q 379 897 342 897 q 458 881 421 897 q 532 828 496 864 l 463 751 q 379 796 419 796 q 245 702 297 796 q 193 442 193 608 l 193 157 q 136 -36 193 38 l 54 26 q 93 136 93 74 l 93 735 q 57 833 93 789 l 135 900 m 485 1176 l 307 947 l 196 947 l 344 1176 l 485 1176 z "},"Ŗ":{"ha":1385,"x_min":92,"x_max":1350,"o":"m 800 1074 q 1027 1048 929 1074 q 1191 977 1125 1022 q 1290 872 1257 932 q 1324 743 1324 811 q 1288 606 1324 668 q 1183 500 1251 544 q 1019 431 1115 456 q 801 407 922 407 l 664 407 q 716 374 694 389 q 762 337 738 358 q 820 282 786 315 q 911 196 854 249 q 992 123 958 151 q 1053 78 1026 94 q 1103 54 1081 61 q 1146 47 1125 47 q 1247 57 1204 47 q 1319 86 1290 67 l 1350 -11 q 1263 -45 1314 -35 q 1146 -56 1213 -56 q 1034 -20 1101 -56 q 883 92 967 15 q 721 235 794 174 q 586 337 647 296 q 473 398 525 378 q 374 418 421 418 l 297 418 l 297 0 l 193 0 l 193 969 l 92 969 l 92 1074 l 800 1074 m 297 514 l 794 514 q 983 531 904 514 q 1111 577 1061 547 q 1184 649 1161 607 q 1207 744 1207 692 q 1186 835 1207 794 q 1117 906 1165 876 q 992 953 1069 936 q 800 969 914 969 l 297 969 l 297 514 m 650 -218 q 609 -188 625 -214 q 593 -135 593 -162 q 613 -71 593 -96 q 664 -46 632 -46 q 714 -69 692 -46 q 736 -139 736 -93 q 681 -300 736 -197 l 632 -300 l 650 -218 z "},"ŗ":{"ha":543,"x_min":54,"x_max":532,"o":"m 135 900 q 188 732 188 831 q 215 796 197 765 q 256 849 232 826 q 311 884 281 871 q 379 897 342 897 q 458 881 421 897 q 532 828 496 864 l 463 751 q 379 796 419 796 q 245 702 297 796 q 193 442 193 608 l 193 157 q 136 -36 193 38 l 54 26 q 93 136 93 74 l 93 735 q 57 833 93 789 l 135 900 m 146 -218 q 105 -188 121 -214 q 89 -135 89 -162 q 108 -71 89 -96 q 160 -46 128 -46 q 210 -69 188 -46 q 232 -139 232 -93 q 176 -300 232 -197 l 128 -300 l 146 -218 z "},"Ř":{"ha":1385,"x_min":92,"x_max":1350,"o":"m 800 1074 q 1027 1048 929 1074 q 1191 977 1125 1022 q 1290 872 1257 932 q 1324 743 1324 811 q 1288 606 1324 668 q 1183 500 1251 544 q 1019 431 1115 456 q 801 407 922 407 l 664 407 q 716 374 694 389 q 762 337 738 358 q 820 282 786 315 q 911 196 854 249 q 992 123 958 151 q 1053 78 1026 94 q 1103 54 1081 61 q 1146 47 1125 47 q 1247 57 1204 47 q 1319 86 1290 67 l 1350 -11 q 1263 -45 1314 -35 q 1146 -56 1213 -56 q 1034 -20 1101 -56 q 883 92 967 15 q 721 235 794 174 q 586 337 647 296 q 473 398 525 378 q 374 418 421 418 l 297 418 l 297 0 l 193 0 l 193 969 l 92 969 l 92 1074 l 800 1074 m 297 514 l 794 514 q 983 531 904 514 q 1111 577 1061 547 q 1184 649 1161 607 q 1207 744 1207 692 q 1186 835 1207 794 q 1117 906 1165 876 q 992 953 1069 936 q 800 969 914 969 l 297 969 l 297 514 m 583 1367 l 692 1213 l 801 1367 l 926 1367 l 747 1138 l 636 1138 l 458 1367 l 583 1367 z "},"ř":{"ha":543,"x_min":39,"x_max":532,"o":"m 135 900 q 188 732 188 831 q 215 796 197 765 q 256 849 232 826 q 311 884 281 871 q 379 897 342 897 q 458 881 421 897 q 532 828 496 864 l 463 751 q 379 796 419 796 q 245 702 297 796 q 193 442 193 608 l 193 157 q 136 -36 193 38 l 54 26 q 93 136 93 74 l 93 735 q 57 833 93 789 l 135 900 m 164 1176 l 272 1022 l 382 1176 l 507 1176 l 328 947 l 217 947 l 39 1176 l 164 1176 z "},"Ś":{"ha":1204,"x_min":69,"x_max":1143,"o":"m 117 188 q 203 151 146 169 q 332 119 261 133 q 480 97 403 106 q 626 89 557 89 q 935 148 829 89 q 1040 314 1040 207 q 994 413 1040 374 q 836 485 949 451 q 733 508 790 499 q 615 526 675 517 q 497 547 554 536 q 392 572 439 557 q 251 664 296 604 q 206 808 206 724 q 317 1018 206 947 q 643 1089 429 1089 q 1056 1011 875 1089 l 1013 915 q 838 969 929 951 q 642 986 746 986 q 399 939 486 986 q 313 808 313 892 q 342 719 313 750 q 428 669 371 689 q 535 643 478 653 q 650 626 592 633 q 764 610 708 619 q 868 588 819 601 q 1076 480 1010 544 q 1143 310 1143 415 q 1002 69 1143 153 q 596 -14 861 -14 q 441 -6 519 -14 q 292 17 363 3 q 163 52 221 32 q 69 94 104 72 l 117 188 m 843 1367 l 665 1138 l 554 1138 l 703 1367 l 843 1367 z "},"ś":{"ha":586,"x_min":15,"x_max":536,"o":"m 382 767 q 324 796 357 796 q 265 776 288 796 q 243 711 243 756 q 244 683 243 694 q 251 661 246 672 q 267 637 257 650 q 296 603 278 624 q 337 558 314 582 q 383 508 360 533 q 430 455 407 482 q 472 400 453 428 q 522 312 508 351 q 536 222 536 272 q 515 126 536 169 q 457 52 493 83 q 373 3 421 21 q 272 -14 325 -14 q 185 -3 226 -14 q 109 31 143 8 q 51 85 75 53 q 15 161 26 118 l 96 221 q 162 117 121 150 q 271 85 203 85 q 390 123 344 85 q 436 225 436 161 q 428 273 436 249 q 394 333 419 297 q 303 444 353 392 q 207 556 253 497 q 156 639 172 599 q 139 726 139 679 q 151 790 139 760 q 186 845 163 821 q 245 883 210 869 q 326 897 281 897 q 400 883 371 897 q 454 842 429 869 l 382 767 m 535 1176 l 357 947 l 246 947 l 394 1176 l 535 1176 z "},"Ş":{"ha":1204,"x_min":69,"x_max":1143,"o":"m 117 188 q 203 151 146 169 q 332 119 261 133 q 480 97 403 106 q 626 89 557 89 q 935 148 829 89 q 1040 314 1040 207 q 994 413 1040 374 q 836 485 949 451 q 733 508 790 499 q 615 526 675 517 q 497 547 554 536 q 392 572 439 557 q 251 664 296 604 q 206 808 206 724 q 317 1018 206 947 q 643 1089 429 1089 q 1056 1011 875 1089 l 1013 915 q 838 969 929 951 q 642 986 746 986 q 399 939 486 986 q 313 808 313 892 q 342 719 313 750 q 428 669 371 689 q 535 643 478 653 q 650 626 592 633 q 764 610 708 619 q 868 588 819 601 q 1076 480 1010 544 q 1143 310 1143 415 q 1002 69 1143 153 q 596 -14 861 -14 q 441 -6 519 -14 q 292 17 363 3 q 163 52 221 32 q 69 94 104 72 l 117 188 m 588 -218 q 547 -188 563 -214 q 531 -135 531 -162 q 550 -71 531 -96 q 601 -46 569 -46 q 651 -69 629 -46 q 674 -139 674 -93 q 618 -300 674 -197 l 569 -300 l 588 -218 z "},"ş":{"ha":586,"x_min":15,"x_max":536,"o":"m 382 767 q 324 796 357 796 q 265 776 288 796 q 243 711 243 756 q 244 683 243 694 q 251 661 246 672 q 267 637 257 650 q 296 603 278 624 q 337 558 314 582 q 383 508 360 533 q 430 455 407 482 q 472 400 453 428 q 522 312 508 351 q 536 222 536 272 q 515 126 536 169 q 457 52 493 83 q 373 3 421 21 q 272 -14 325 -14 q 185 -3 226 -14 q 109 31 143 8 q 51 85 75 53 q 15 161 26 118 l 96 221 q 162 117 121 150 q 271 85 203 85 q 390 123 344 85 q 436 225 436 161 q 428 273 436 249 q 394 333 419 297 q 303 444 353 392 q 207 556 253 497 q 156 639 172 599 q 139 726 139 679 q 151 790 139 760 q 186 845 163 821 q 245 883 210 869 q 326 897 281 897 q 400 883 371 897 q 454 842 429 869 l 382 767 m 278 -218 q 237 -188 253 -214 q 221 -135 221 -162 q 240 -71 221 -96 q 292 -46 260 -46 q 342 -69 319 -46 q 364 -139 364 -93 q 308 -300 364 -197 l 260 -300 l 278 -218 z "},"Š":{"ha":1204,"x_min":69,"x_max":1143,"o":"m 117 188 q 203 151 146 169 q 332 119 261 133 q 480 97 403 106 q 626 89 557 89 q 935 148 829 89 q 1040 314 1040 207 q 994 413 1040 374 q 836 485 949 451 q 733 508 790 499 q 615 526 675 517 q 497 547 554 536 q 392 572 439 557 q 251 664 296 604 q 206 808 206 724 q 317 1018 206 947 q 643 1089 429 1089 q 1056 1011 875 1089 l 1013 915 q 838 969 929 951 q 642 986 746 986 q 399 939 486 986 q 313 808 313 892 q 342 719 313 750 q 428 669 371 689 q 535 643 478 653 q 650 626 592 633 q 764 610 708 619 q 868 588 819 601 q 1076 480 1010 544 q 1143 310 1143 415 q 1002 69 1143 153 q 596 -14 861 -14 q 441 -6 519 -14 q 292 17 363 3 q 163 52 221 32 q 69 94 104 72 l 117 188 m 535 1367 l 643 1213 l 753 1367 l 878 1367 l 699 1138 l 588 1138 l 410 1367 l 535 1367 z "},"š":{"ha":586,"x_min":15,"x_max":542,"o":"m 382 767 q 324 796 357 796 q 265 776 288 796 q 243 711 243 756 q 244 683 243 694 q 251 661 246 672 q 267 637 257 650 q 296 603 278 624 q 337 558 314 582 q 383 508 360 533 q 430 455 407 482 q 472 400 453 428 q 522 312 508 351 q 536 222 536 272 q 515 126 536 169 q 457 52 493 83 q 373 3 421 21 q 272 -14 325 -14 q 185 -3 226 -14 q 109 31 143 8 q 51 85 75 53 q 15 161 26 118 l 96 221 q 162 117 121 150 q 271 85 203 85 q 390 123 344 85 q 436 225 436 161 q 428 273 436 249 q 394 333 419 297 q 303 444 353 392 q 207 556 253 497 q 156 639 172 599 q 139 726 139 679 q 151 790 139 760 q 186 845 163 821 q 245 883 210 869 q 326 897 281 897 q 400 883 371 897 q 454 842 429 869 l 382 767 m 199 1176 l 307 1022 l 417 1176 l 542 1176 l 363 947 l 251 947 l 74 1176 l 199 1176 z "},"Ţ":{"ha":1068,"x_min":46,"x_max":1021,"o":"m 1021 1074 l 1021 969 l 579 969 l 579 160 q 619 26 579 83 l 538 -36 q 475 160 475 49 l 475 969 l 46 969 l 46 1074 l 1021 1074 m 519 -218 q 478 -188 494 -214 q 463 -135 463 -162 q 482 -71 463 -96 q 533 -46 501 -46 q 583 -69 561 -46 q 606 -139 606 -93 q 550 -300 606 -197 l 501 -300 l 519 -218 z "},"ţ":{"ha":376,"x_min":17,"x_max":361,"o":"m 156 1176 q 214 1013 214 1103 l 214 883 l 361 883 l 361 783 l 214 783 l 214 136 q 223 77 214 104 q 251 26 232 50 l 169 -36 q 113 136 113 39 l 113 783 l 17 783 l 17 883 l 113 883 l 113 1013 q 78 1110 113 1067 l 156 1176 m 174 -218 q 133 -188 149 -214 q 117 -135 117 -162 q 136 -71 117 -96 q 188 -46 156 -46 q 238 -69 215 -46 q 260 -139 260 -93 q 204 -300 260 -197 l 156 -300 l 174 -218 z "},"Ť":{"ha":1068,"x_min":46,"x_max":1021,"o":"m 1021 1074 l 1021 969 l 579 969 l 579 160 q 619 26 579 83 l 538 -36 q 475 160 475 49 l 475 969 l 46 969 l 46 1074 l 1021 1074 m 425 1367 l 533 1213 l 643 1367 l 768 1367 l 589 1138 l 478 1138 l 300 1367 l 425 1367 z "},"ť":{"ha":376,"x_min":17,"x_max":449,"o":"m 156 1176 q 214 1013 214 1103 l 214 883 l 361 883 l 361 783 l 214 783 l 214 136 q 223 77 214 104 q 251 26 232 50 l 169 -36 q 113 136 113 39 l 113 783 l 17 783 l 17 883 l 113 883 l 113 1013 q 78 1110 113 1067 l 156 1176 m 363 1004 q 322 1034 338 1008 q 306 1088 306 1060 q 325 1151 306 1126 q 376 1176 344 1176 q 426 1153 404 1176 q 449 1083 449 1129 q 393 922 449 1025 l 344 922 l 363 1004 z "},"Ŧ":{"ha":1068,"x_min":46,"x_max":1021,"o":"m 1021 1074 l 1021 969 l 579 969 l 579 781 l 779 781 l 779 688 l 579 688 l 579 160 q 619 26 579 83 l 538 -36 q 475 160 475 49 l 475 688 l 281 688 l 281 781 l 475 781 l 475 969 l 46 969 l 46 1074 l 1021 1074 z "},"ŧ":{"ha":376,"x_min":17,"x_max":361,"o":"m 156 1176 q 214 1013 214 1103 l 214 883 l 361 883 l 361 783 l 214 783 l 214 517 l 353 517 l 353 424 l 214 424 l 214 136 q 223 77 214 104 q 251 26 232 50 l 169 -36 q 113 136 113 39 l 113 424 l 22 424 l 22 517 l 113 517 l 113 783 l 17 783 l 17 883 l 113 883 l 113 1013 q 78 1110 113 1067 l 156 1176 z "},"Ũ":{"ha":1351,"x_min":88,"x_max":1324,"o":"m 289 1074 l 289 429 q 315 289 289 351 q 388 182 340 226 q 501 114 435 138 q 646 90 567 90 q 864 139 760 90 q 1047 269 968 188 q 1174 459 1126 351 q 1221 686 1221 567 l 1221 1074 l 1324 1074 l 1324 686 q 1268 417 1324 544 q 1119 194 1213 290 q 902 42 1025 99 q 644 -14 779 -14 q 456 19 542 -14 q 310 110 371 51 q 217 251 250 169 q 183 429 183 332 l 183 969 l 88 969 l 88 1074 l 289 1074 m 497 1256 q 567 1285 539 1276 q 624 1293 594 1293 q 674 1288 651 1293 q 717 1278 696 1283 q 760 1267 738 1272 q 810 1263 782 1263 q 861 1270 836 1263 q 921 1292 886 1278 l 943 1194 q 877 1167 906 1175 q 817 1158 849 1158 q 759 1164 783 1158 q 715 1176 735 1169 q 677 1188 694 1182 q 642 1193 660 1193 q 586 1186 608 1193 q 526 1157 564 1179 l 497 1256 z "},"ũ":{"ha":742,"x_min":51,"x_max":707,"o":"m 135 919 q 192 747 192 844 l 192 357 q 243 160 192 233 q 390 86 294 86 q 586 106 489 86 q 568 238 568 172 l 568 729 q 582 834 568 786 q 625 919 596 882 l 707 858 q 679 807 689 835 q 669 747 669 779 l 669 204 q 679 123 669 169 q 707 14 689 76 q 642 3 681 8 q 560 -6 603 -1 q 477 -12 518 -10 q 406 -14 436 -14 q 264 10 324 -14 q 165 78 204 33 q 108 189 126 124 q 89 336 89 254 l 89 747 q 51 858 89 813 l 135 919 m 147 1065 q 217 1094 189 1086 q 274 1103 244 1103 q 324 1098 301 1103 q 367 1088 346 1093 q 410 1077 388 1082 q 460 1072 432 1072 q 511 1080 486 1072 q 571 1101 536 1088 l 593 1004 q 527 976 556 985 q 467 968 499 968 q 409 974 433 968 q 365 985 385 979 q 327 997 344 992 q 292 1003 310 1003 q 236 996 258 1003 q 176 967 214 989 l 147 1065 z "},"Ū":{"ha":1351,"x_min":88,"x_max":1324,"o":"m 289 1074 l 289 429 q 315 289 289 351 q 388 182 340 226 q 501 114 435 138 q 646 90 567 90 q 864 139 760 90 q 1047 269 968 188 q 1174 459 1126 351 q 1221 686 1221 567 l 1221 1074 l 1324 1074 l 1324 686 q 1268 417 1324 544 q 1119 194 1213 290 q 902 42 1025 99 q 644 -14 779 -14 q 456 19 542 -14 q 310 110 371 51 q 217 251 250 169 q 183 429 183 332 l 183 969 l 88 969 l 88 1074 l 289 1074 m 975 1264 l 975 1164 l 485 1164 l 485 1264 l 975 1264 z "},"ū":{"ha":742,"x_min":51,"x_max":707,"o":"m 135 919 q 192 747 192 844 l 192 357 q 243 160 192 233 q 390 86 294 86 q 586 106 489 86 q 568 238 568 172 l 568 729 q 582 834 568 786 q 625 919 596 882 l 707 858 q 679 807 689 835 q 669 747 669 779 l 669 204 q 679 123 669 169 q 707 14 689 76 q 642 3 681 8 q 560 -6 603 -1 q 477 -12 518 -10 q 406 -14 436 -14 q 264 10 324 -14 q 165 78 204 33 q 108 189 126 124 q 89 336 89 254 l 89 747 q 51 858 89 813 l 135 919 m 619 1074 l 619 974 l 129 974 l 129 1074 l 619 1074 z "},"Ŭ":{"ha":1351,"x_min":88,"x_max":1324,"o":"m 289 1074 l 289 429 q 315 289 289 351 q 388 182 340 226 q 501 114 435 138 q 646 90 567 90 q 864 139 760 90 q 1047 269 968 188 q 1174 459 1126 351 q 1221 686 1221 567 l 1221 1074 l 1324 1074 l 1324 686 q 1268 417 1324 544 q 1119 194 1213 290 q 902 42 1025 99 q 644 -14 779 -14 q 456 19 542 -14 q 310 110 371 51 q 217 251 250 169 q 183 429 183 332 l 183 969 l 88 969 l 88 1074 l 289 1074 m 624 1367 q 653 1277 626 1314 q 744 1240 679 1240 q 838 1277 811 1240 q 868 1367 865 1314 l 969 1367 q 953 1282 968 1322 q 909 1212 938 1242 q 840 1164 881 1182 q 744 1146 799 1146 q 649 1163 690 1146 q 581 1211 608 1181 q 537 1282 553 1242 q 519 1367 521 1322 l 624 1367 z "},"ŭ":{"ha":742,"x_min":51,"x_max":707,"o":"m 135 919 q 192 747 192 844 l 192 357 q 243 160 192 233 q 390 86 294 86 q 586 106 489 86 q 568 238 568 172 l 568 729 q 582 834 568 786 q 625 919 596 882 l 707 858 q 679 807 689 835 q 669 747 669 779 l 669 204 q 679 123 669 169 q 707 14 689 76 q 642 3 681 8 q 560 -6 603 -1 q 477 -12 518 -10 q 406 -14 436 -14 q 264 10 324 -14 q 165 78 204 33 q 108 189 126 124 q 89 336 89 254 l 89 747 q 51 858 89 813 l 135 919 m 253 1176 q 282 1087 256 1124 q 374 1050 308 1050 q 467 1087 440 1050 q 497 1176 494 1124 l 599 1176 q 582 1092 597 1132 q 538 1022 567 1051 q 469 974 510 992 q 374 956 428 956 q 278 973 319 956 q 210 1021 238 990 q 166 1092 182 1051 q 149 1176 150 1132 l 253 1176 z "},"Ů":{"ha":1351,"x_min":88,"x_max":1324,"o":"m 289 1074 l 289 429 q 315 289 289 351 q 388 182 340 226 q 501 114 435 138 q 646 90 567 90 q 864 139 760 90 q 1047 269 968 188 q 1174 459 1126 351 q 1221 686 1221 567 l 1221 1074 l 1324 1074 l 1324 686 q 1268 417 1324 544 q 1119 194 1213 290 q 902 42 1025 99 q 644 -14 779 -14 q 456 19 542 -14 q 310 110 371 51 q 217 251 250 169 q 183 429 183 332 l 183 969 l 88 969 l 88 1074 l 289 1074 m 578 1228 q 617 1325 578 1283 q 729 1367 657 1367 q 843 1325 803 1367 q 883 1228 883 1283 q 843 1129 883 1171 q 729 1088 803 1088 q 617 1129 657 1088 q 578 1228 578 1171 m 649 1228 q 667 1172 649 1194 q 729 1149 685 1149 q 794 1172 774 1149 q 814 1228 814 1194 q 794 1283 814 1261 q 729 1306 774 1306 q 667 1283 685 1306 q 649 1228 649 1261 z "},"ů":{"ha":742,"x_min":51,"x_max":707,"o":"m 135 919 q 192 747 192 844 l 192 357 q 243 160 192 233 q 390 86 294 86 q 586 106 489 86 q 568 238 568 172 l 568 729 q 582 834 568 786 q 625 919 596 882 l 707 858 q 679 807 689 835 q 669 747 669 779 l 669 204 q 679 123 669 169 q 707 14 689 76 q 642 3 681 8 q 560 -6 603 -1 q 477 -12 518 -10 q 406 -14 436 -14 q 264 10 324 -14 q 165 78 204 33 q 108 189 126 124 q 89 336 89 254 l 89 747 q 51 858 89 813 l 135 919 m 222 1079 q 262 1176 222 1135 q 374 1218 301 1218 q 488 1176 447 1218 q 528 1079 528 1135 q 488 981 528 1022 q 374 939 447 939 q 262 981 301 939 q 222 1079 222 1022 m 293 1079 q 311 1023 293 1046 q 374 1000 329 1000 q 438 1023 418 1000 q 458 1079 458 1046 q 438 1135 458 1113 q 374 1157 418 1157 q 311 1135 329 1157 q 293 1079 293 1113 z "},"Ű":{"ha":1351,"x_min":88,"x_max":1324,"o":"m 289 1074 l 289 429 q 315 289 289 351 q 388 182 340 226 q 501 114 435 138 q 646 90 567 90 q 864 139 760 90 q 1047 269 968 188 q 1174 459 1126 351 q 1221 686 1221 567 l 1221 1074 l 1324 1074 l 1324 686 q 1268 417 1324 544 q 1119 194 1213 290 q 902 42 1025 99 q 644 -14 779 -14 q 456 19 542 -14 q 310 110 371 51 q 217 251 250 169 q 183 429 183 332 l 183 969 l 88 969 l 88 1074 l 289 1074 m 1053 1367 l 874 1138 l 764 1138 l 913 1367 l 1053 1367 m 838 1367 l 660 1138 l 549 1138 l 697 1367 l 838 1367 z "},"ű":{"ha":742,"x_min":51,"x_max":707,"o":"m 135 919 q 192 747 192 844 l 192 357 q 243 160 192 233 q 390 86 294 86 q 586 106 489 86 q 568 238 568 172 l 568 729 q 582 834 568 786 q 625 919 596 882 l 707 858 q 679 807 689 835 q 669 747 669 779 l 669 204 q 679 123 669 169 q 707 14 689 76 q 642 3 681 8 q 560 -6 603 -1 q 477 -12 518 -10 q 406 -14 436 -14 q 264 10 324 -14 q 165 78 204 33 q 108 189 126 124 q 89 336 89 254 l 89 747 q 51 858 89 813 l 135 919 m 706 1176 l 526 947 l 417 947 l 565 1176 l 706 1176 m 490 1176 l 313 947 l 201 947 l 350 1176 l 490 1176 z "},"Ų":{"ha":1351,"x_min":88,"x_max":1324,"o":"m 289 1074 l 289 429 q 315 289 289 351 q 388 182 340 226 q 501 114 435 138 q 646 90 567 90 q 864 139 760 90 q 1047 269 968 188 q 1174 459 1126 351 q 1221 686 1221 567 l 1221 1074 l 1324 1074 l 1324 686 q 1279 451 1324 563 q 1160 250 1235 340 q 985 95 1085 160 q 772 0 885 31 q 679 -33 717 -15 q 619 -68 642 -50 q 585 -104 596 -86 q 575 -140 575 -122 q 595 -183 575 -167 q 653 -199 615 -199 q 728 -177 696 -199 q 783 -107 761 -156 l 864 -174 q 773 -268 832 -236 q 639 -300 714 -300 q 573 -289 601 -300 q 526 -259 544 -278 q 497 -218 507 -240 q 488 -172 488 -196 q 525 -83 488 -122 q 643 -14 563 -43 q 456 19 540 -14 q 310 110 371 51 q 217 251 250 169 q 183 429 183 332 l 183 969 l 88 969 l 88 1074 l 289 1074 z "},"ų":{"ha":742,"x_min":51,"x_max":707,"o":"m 135 919 q 192 747 192 844 l 192 357 q 243 160 192 233 q 390 86 294 86 q 586 106 489 86 q 568 238 568 172 l 568 729 q 582 834 568 786 q 625 919 596 882 l 707 858 q 679 807 689 835 q 669 747 669 779 l 669 204 q 679 123 669 169 q 707 14 689 76 q 656 6 686 10 q 594 -6 626 1 q 510 -33 544 -17 q 456 -68 476 -50 q 426 -105 435 -86 q 418 -140 418 -124 q 438 -183 418 -167 q 496 -199 458 -199 q 572 -177 539 -199 q 626 -107 604 -156 l 707 -174 q 616 -268 675 -236 q 482 -300 557 -300 q 416 -289 444 -300 q 369 -259 388 -278 q 340 -218 350 -240 q 331 -172 331 -196 q 369 -80 331 -119 q 494 -10 408 -40 q 406 -14 444 -14 q 264 10 324 -14 q 165 78 204 33 q 108 189 126 124 q 89 336 89 254 l 89 747 q 51 858 89 813 l 135 919 z "},"Ŵ":{"ha":1565,"x_min":32,"x_max":1543,"o":"m 122 1110 q 244 876 188 993 q 347 636 301 758 q 428 385 393 514 q 483 115 463 256 q 532 369 506 250 q 590 603 558 489 q 659 833 622 718 q 738 1074 696 947 l 832 1074 q 913 835 875 950 q 984 604 951 719 q 1044 369 1017 489 q 1093 115 1071 249 q 1160 380 1124 254 q 1240 625 1196 506 q 1337 864 1285 744 q 1451 1110 1389 983 l 1543 1058 q 1431 828 1483 944 q 1330 585 1378 713 q 1238 313 1282 457 q 1149 0 1193 169 l 1024 0 q 957 304 988 168 q 899 553 926 440 q 843 759 871 665 q 786 936 815 853 q 732 759 758 853 q 678 553 706 665 q 617 306 650 442 q 544 0 585 169 l 419 0 q 340 322 381 175 q 253 597 300 469 q 153 837 207 724 q 32 1058 99 950 l 122 1110 m 838 1367 l 1017 1138 l 892 1138 l 782 1290 l 674 1138 l 549 1138 l 726 1367 l 838 1367 z "},"ŵ":{"ha":1104,"x_min":32,"x_max":1083,"o":"m 118 915 q 222 740 176 832 q 301 554 268 647 q 354 369 335 461 q 378 196 374 278 q 428 351 407 271 q 463 511 449 431 q 485 674 476 592 q 501 835 494 756 l 611 835 q 649 515 624 675 q 735 196 675 356 q 760 368 739 278 q 815 552 781 458 q 894 739 849 646 q 996 919 940 832 l 1083 865 q 978 681 1024 772 q 899 487 932 589 q 842 266 865 385 q 801 0 818 147 l 710 0 q 655 153 679 81 q 612 293 631 225 q 579 429 593 361 q 557 569 565 497 q 533 429 547 497 q 501 293 519 361 q 458 153 482 225 q 403 0 433 81 l 308 0 q 266 275 290 154 q 208 497 242 396 q 131 685 175 597 q 32 861 88 772 l 118 915 m 607 1176 l 786 947 l 661 947 l 551 1100 l 443 947 l 318 947 l 496 1176 l 607 1176 z "},"Ŷ":{"ha":1217,"x_min":32,"x_max":1194,"o":"m 97 1110 q 264 958 179 1043 q 421 784 349 874 q 545 606 493 694 q 613 442 597 517 q 673 578 633 501 q 775 742 713 656 q 925 923 838 829 q 1131 1110 1013 1017 l 1194 1029 q 996 853 1090 953 q 828 649 901 753 q 713 448 756 546 q 669 278 669 350 l 669 146 q 711 26 669 89 l 628 -36 q 564 160 564 57 l 564 278 q 538 402 564 335 q 469 541 513 469 q 371 684 426 613 q 256 820 315 756 q 139 938 197 885 q 32 1029 81 992 l 97 1110 m 663 1367 l 842 1138 l 717 1138 l 607 1290 l 499 1138 l 374 1138 l 551 1367 l 663 1367 z "},"ŷ":{"ha":717,"x_min":32,"x_max":696,"o":"m 118 919 q 285 587 224 754 q 365 250 346 419 q 408 459 383 365 q 462 632 432 553 q 528 781 492 711 q 608 919 564 850 l 696 865 q 613 721 649 790 q 550 577 578 651 q 501 419 522 503 q 460 233 479 336 q 416 43 439 121 q 361 -92 393 -35 q 286 -197 329 -150 q 183 -293 243 -243 l 133 -204 q 216 -135 181 -171 q 277 -56 251 -99 q 319 40 303 -12 q 346 157 336 92 l 292 153 q 281 256 292 197 q 250 378 269 314 q 205 509 231 442 q 151 640 179 576 q 92 762 122 704 q 32 865 61 819 l 118 919 m 413 1176 l 592 947 l 467 947 l 357 1100 l 249 947 l 124 947 l 301 1176 l 413 1176 z "},"Ÿ":{"ha":1217,"x_min":32,"x_max":1194,"o":"m 97 1110 q 264 958 179 1043 q 421 784 349 874 q 545 606 493 694 q 613 442 597 517 q 673 578 633 501 q 775 742 713 656 q 925 923 838 829 q 1131 1110 1013 1017 l 1194 1029 q 996 853 1090 953 q 828 649 901 753 q 713 448 756 546 q 669 278 669 350 l 669 146 q 711 26 669 89 l 628 -36 q 564 160 564 57 l 564 278 q 538 402 564 335 q 469 541 513 469 q 371 684 426 613 q 256 820 315 756 q 139 938 197 885 q 32 1029 81 992 l 97 1110 m 725 1300 q 772 1282 753 1300 q 790 1239 790 1264 q 770 1192 790 1211 q 725 1174 750 1174 q 683 1192 701 1174 q 664 1239 664 1211 q 683 1282 664 1264 q 725 1300 701 1300 m 425 1239 q 443 1282 425 1264 q 488 1300 461 1300 q 533 1282 515 1300 q 550 1239 550 1264 q 531 1192 550 1211 q 488 1174 511 1174 q 443 1192 461 1174 q 425 1239 425 1211 z "},"Ź":{"ha":1100,"x_min":94,"x_max":1042,"o":"m 1042 1074 l 1042 974 q 960 849 1010 906 q 850 743 911 793 q 718 647 789 693 q 572 551 647 600 q 422 440 485 493 q 317 332 360 386 q 247 222 274 278 q 207 106 221 167 l 1042 106 l 1042 0 l 94 0 l 94 97 q 136 239 108 172 q 213 369 164 306 q 333 494 261 432 q 506 624 404 557 q 659 728 593 682 q 774 814 725 774 q 859 892 824 854 q 919 969 894 929 l 94 969 l 94 1074 l 1042 1074 m 764 1367 l 586 1138 l 475 1138 l 624 1367 l 764 1367 z "},"ź":{"ha":700,"x_min":56,"x_max":658,"o":"m 78 849 q 156 886 117 875 q 250 897 196 897 q 324 887 289 897 q 390 863 358 876 q 452 840 422 850 q 514 829 482 829 q 560 853 529 829 l 601 886 l 651 799 q 345 497 469 664 q 171 139 221 329 q 236 147 196 147 q 283 138 253 147 q 347 117 314 129 q 412 97 381 106 q 460 88 443 88 q 500 90 482 88 q 536 101 518 93 q 573 122 554 108 q 615 156 592 135 l 658 63 q 565 5 615 24 q 460 -14 514 -14 q 393 -6 431 -14 q 319 12 356 3 q 253 29 282 21 q 211 38 224 38 q 151 30 176 38 q 93 -1 125 22 l 56 88 q 99 247 64 157 q 186 428 133 336 q 307 604 239 519 q 453 749 375 689 q 411 756 435 749 q 361 773 388 764 q 308 790 335 782 q 260 797 282 797 q 190 788 219 797 q 119 756 160 779 l 78 849 m 564 1176 l 386 947 l 275 947 l 424 1176 l 564 1176 z "},"Ż":{"ha":1100,"x_min":94,"x_max":1042,"o":"m 1042 1074 l 1042 974 q 960 849 1010 906 q 850 743 911 793 q 718 647 789 693 q 572 551 647 600 q 422 440 485 493 q 317 332 360 386 q 247 222 274 278 q 207 106 221 167 l 1042 106 l 1042 0 l 94 0 l 94 97 q 136 239 108 172 q 213 369 164 306 q 333 494 261 432 q 506 624 404 557 q 659 728 593 682 q 774 814 725 774 q 859 892 824 854 q 919 969 894 929 l 94 969 l 94 1074 l 1042 1074 m 488 1239 q 506 1282 488 1264 q 550 1300 524 1300 q 595 1282 578 1300 q 613 1239 613 1264 q 593 1192 613 1211 q 550 1174 574 1174 q 506 1192 524 1174 q 488 1239 488 1211 z "},"ż":{"ha":700,"x_min":56,"x_max":658,"o":"m 78 849 q 156 886 117 875 q 250 897 196 897 q 324 887 289 897 q 390 863 358 876 q 452 840 422 850 q 514 829 482 829 q 560 853 529 829 l 601 886 l 651 799 q 345 497 469 664 q 171 139 221 329 q 236 147 196 147 q 283 138 253 147 q 347 117 314 129 q 412 97 381 106 q 460 88 443 88 q 500 90 482 88 q 536 101 518 93 q 573 122 554 108 q 615 156 592 135 l 658 63 q 565 5 615 24 q 460 -14 514 -14 q 393 -6 431 -14 q 319 12 356 3 q 253 29 282 21 q 211 38 224 38 q 151 30 176 38 q 93 -1 125 22 l 56 88 q 99 247 64 157 q 186 428 133 336 q 307 604 239 519 q 453 749 375 689 q 411 756 435 749 q 361 773 388 764 q 308 790 335 782 q 260 797 282 797 q 190 788 219 797 q 119 756 160 779 l 78 849 m 288 1049 q 306 1092 288 1074 q 350 1110 324 1110 q 395 1092 378 1110 q 413 1049 413 1074 q 393 1002 413 1021 q 350 983 374 983 q 306 1002 324 983 q 288 1049 288 1021 z "},"Ž":{"ha":1100,"x_min":94,"x_max":1042,"o":"m 1042 1074 l 1042 974 q 960 849 1010 906 q 850 743 911 793 q 718 647 789 693 q 572 551 647 600 q 422 440 485 493 q 317 332 360 386 q 247 222 274 278 q 207 106 221 167 l 1042 106 l 1042 0 l 94 0 l 94 97 q 136 239 108 172 q 213 369 164 306 q 333 494 261 432 q 506 624 404 557 q 659 728 593 682 q 774 814 725 774 q 859 892 824 854 q 919 969 894 929 l 94 969 l 94 1074 l 1042 1074 m 440 1367 l 549 1213 l 658 1367 l 783 1367 l 604 1138 l 493 1138 l 315 1367 l 440 1367 z "},"ž":{"ha":700,"x_min":56,"x_max":658,"o":"m 78 849 q 156 886 117 875 q 250 897 196 897 q 324 887 289 897 q 390 863 358 876 q 452 840 422 850 q 514 829 482 829 q 560 853 529 829 l 601 886 l 651 799 q 345 497 469 664 q 171 139 221 329 q 236 147 196 147 q 283 138 253 147 q 347 117 314 129 q 412 97 381 106 q 460 88 443 88 q 500 90 482 88 q 536 101 518 93 q 573 122 554 108 q 615 156 592 135 l 658 63 q 565 5 615 24 q 460 -14 514 -14 q 393 -6 431 -14 q 319 12 356 3 q 253 29 282 21 q 211 38 224 38 q 151 30 176 38 q 93 -1 125 22 l 56 88 q 99 247 64 157 q 186 428 133 336 q 307 604 239 519 q 453 749 375 689 q 411 756 435 749 q 361 773 388 764 q 308 790 335 782 q 260 797 282 797 q 190 788 219 797 q 119 756 160 779 l 78 849 m 251 1176 l 360 1022 l 469 1176 l 594 1176 l 415 947 l 304 947 l 126 1176 l 251 1176 z "},"Ș":{"ha":1204,"x_min":69,"x_max":1143,"o":"m 117 188 q 203 151 146 169 q 332 119 261 133 q 480 97 403 106 q 626 89 557 89 q 935 148 829 89 q 1040 314 1040 207 q 994 413 1040 374 q 836 485 949 451 q 733 508 790 499 q 615 526 675 517 q 497 547 554 536 q 392 572 439 557 q 251 664 296 604 q 206 808 206 724 q 317 1018 206 947 q 643 1089 429 1089 q 1056 1011 875 1089 l 1013 915 q 838 969 929 951 q 642 986 746 986 q 399 939 486 986 q 313 808 313 892 q 342 719 313 750 q 428 669 371 689 q 535 643 478 653 q 650 626 592 633 q 764 610 708 619 q 868 588 819 601 q 1076 480 1010 544 q 1143 310 1143 415 q 1002 69 1143 153 q 596 -14 861 -14 q 441 -6 519 -14 q 292 17 363 3 q 163 52 221 32 q 69 94 104 72 l 117 188 m 588 -218 q 547 -188 563 -214 q 531 -135 531 -162 q 550 -71 531 -96 q 601 -46 569 -46 q 651 -69 629 -46 q 674 -139 674 -93 q 618 -300 674 -197 l 569 -300 l 588 -218 z "},"ș":{"ha":586,"x_min":15,"x_max":536,"o":"m 382 767 q 324 796 357 796 q 265 776 288 796 q 243 711 243 756 q 244 683 243 694 q 251 661 246 672 q 267 637 257 650 q 296 603 278 624 q 337 558 314 582 q 383 508 360 533 q 430 455 407 482 q 472 400 453 428 q 522 312 508 351 q 536 222 536 272 q 515 126 536 169 q 457 52 493 83 q 373 3 421 21 q 272 -14 325 -14 q 185 -3 226 -14 q 109 31 143 8 q 51 85 75 53 q 15 161 26 118 l 96 221 q 162 117 121 150 q 271 85 203 85 q 390 123 344 85 q 436 225 436 161 q 428 273 436 249 q 394 333 419 297 q 303 444 353 392 q 207 556 253 497 q 156 639 172 599 q 139 726 139 679 q 151 790 139 760 q 186 845 163 821 q 245 883 210 869 q 326 897 281 897 q 400 883 371 897 q 454 842 429 869 l 382 767 m 278 -218 q 237 -188 253 -214 q 221 -135 221 -162 q 240 -71 221 -96 q 292 -46 260 -46 q 342 -69 319 -46 q 364 -139 364 -93 q 308 -300 364 -197 l 260 -300 l 278 -218 z "},"Ț":{"ha":1068,"x_min":46,"x_max":1021,"o":"m 1021 1074 l 1021 969 l 579 969 l 579 160 q 619 26 579 83 l 538 -36 q 475 160 475 49 l 475 969 l 46 969 l 46 1074 l 1021 1074 m 519 -218 q 478 -188 494 -214 q 463 -135 463 -162 q 482 -71 463 -96 q 533 -46 501 -46 q 583 -69 561 -46 q 606 -139 606 -93 q 550 -300 606 -197 l 501 -300 l 519 -218 z "},"ț":{"ha":376,"x_min":17,"x_max":361,"o":"m 156 1176 q 214 1013 214 1103 l 214 883 l 361 883 l 361 783 l 214 783 l 214 136 q 223 77 214 104 q 251 26 232 50 l 169 -36 q 113 136 113 39 l 113 783 l 17 783 l 17 883 l 113 883 l 113 1013 q 78 1110 113 1067 l 156 1176 m 174 -218 q 133 -188 149 -214 q 117 -135 117 -162 q 136 -71 117 -96 q 188 -46 156 -46 q 238 -69 215 -46 q 260 -139 260 -93 q 204 -300 260 -197 l 156 -300 l 174 -218 z "},"ˆ":{"ha":613,"x_min":72,"x_max":540,"o":"m 361 1176 l 540 947 l 415 947 l 306 1100 l 197 947 l 72 947 l 250 1176 l 361 1176 z "},"ˇ":{"ha":613,"x_min":72,"x_max":540,"o":"m 197 1176 l 306 1022 l 415 1176 l 540 1176 l 361 947 l 250 947 l 72 1176 l 197 1176 z "},"˘":{"ha":594,"x_min":72,"x_max":522,"o":"m 176 1176 q 206 1087 179 1124 q 297 1050 232 1050 q 391 1087 364 1050 q 421 1176 418 1124 l 522 1176 q 506 1092 521 1132 q 462 1022 490 1051 q 392 974 433 992 q 297 956 351 956 q 202 973 243 956 q 133 1021 161 990 q 90 1092 106 1051 q 72 1176 74 1132 l 176 1176 z "},"˙":{"ha":269,"x_min":72,"x_max":197,"o":"m 72 1049 q 90 1092 72 1074 q 135 1110 108 1110 q 180 1092 163 1110 q 197 1049 197 1074 q 178 1002 197 1021 q 135 983 158 983 q 90 1002 108 983 q 72 1049 72 1021 z "},"˚":{"ha":450,"x_min":72,"x_max":378,"o":"m 72 1038 q 112 1135 72 1093 q 224 1176 151 1176 q 338 1135 297 1176 q 378 1038 378 1093 q 338 939 378 981 q 224 897 297 897 q 112 939 151 897 q 72 1038 72 981 m 143 1038 q 161 981 143 1004 q 224 958 179 958 q 288 981 268 958 q 308 1038 308 1004 q 288 1093 308 1071 q 224 1115 268 1115 q 161 1093 179 1115 q 143 1038 143 1071 z "},"˛":{"ha":521,"x_min":72,"x_max":449,"o":"m 375 0 q 273 -35 314 -18 q 207 -70 232 -53 q 171 -105 182 -87 q 160 -140 160 -122 q 180 -183 160 -167 q 238 -199 200 -199 q 313 -177 281 -199 q 368 -107 346 -156 l 449 -174 q 358 -268 417 -236 q 224 -300 299 -300 q 158 -289 186 -300 q 110 -259 129 -278 q 82 -218 92 -240 q 72 -172 72 -196 q 119 -73 72 -115 q 271 0 167 -31 l 375 0 z "},"˜":{"ha":590,"x_min":72,"x_max":518,"o":"m 72 1065 q 142 1094 114 1086 q 199 1103 169 1103 q 249 1098 226 1103 q 292 1088 271 1093 q 335 1077 313 1082 q 385 1072 357 1072 q 436 1080 411 1072 q 496 1101 461 1088 l 518 1004 q 452 976 481 985 q 392 968 424 968 q 334 974 358 968 q 290 985 310 979 q 252 997 269 992 q 217 1003 235 1003 q 161 996 183 1003 q 101 967 139 989 l 72 1065 z "},"˝":{"ha":649,"x_min":72,"x_max":576,"o":"m 576 1176 l 397 947 l 288 947 l 436 1176 l 576 1176 m 361 1176 l 183 947 l 72 947 l 221 1176 l 361 1176 z "},"Ẁ":{"ha":1565,"x_min":32,"x_max":1543,"o":"m 122 1110 q 244 876 188 993 q 347 636 301 758 q 428 385 393 514 q 483 115 463 256 q 532 369 506 250 q 590 603 558 489 q 659 833 622 718 q 738 1074 696 947 l 832 1074 q 913 835 875 950 q 984 604 951 719 q 1044 369 1017 489 q 1093 115 1071 249 q 1160 380 1124 254 q 1240 625 1196 506 q 1337 864 1285 744 q 1451 1110 1389 983 l 1543 1058 q 1431 828 1483 944 q 1330 585 1378 713 q 1238 313 1282 457 q 1149 0 1193 169 l 1024 0 q 957 304 988 168 q 899 553 926 440 q 843 759 871 665 q 786 936 815 853 q 732 759 758 853 q 678 553 706 665 q 617 306 650 442 q 544 0 585 169 l 419 0 q 340 322 381 175 q 253 597 300 469 q 153 837 207 724 q 32 1058 99 950 l 122 1110 m 707 1367 l 857 1138 l 746 1138 l 568 1367 l 707 1367 z "},"ẁ":{"ha":1104,"x_min":32,"x_max":1083,"o":"m 118 915 q 222 740 176 832 q 301 554 268 647 q 354 369 335 461 q 378 196 374 278 q 428 351 407 271 q 463 511 449 431 q 485 674 476 592 q 501 835 494 756 l 611 835 q 649 515 624 675 q 735 196 675 356 q 760 368 739 278 q 815 552 781 458 q 894 739 849 646 q 996 919 940 832 l 1083 865 q 978 681 1024 772 q 899 487 932 589 q 842 266 865 385 q 801 0 818 147 l 710 0 q 655 153 679 81 q 612 293 631 225 q 579 429 593 361 q 557 569 565 497 q 533 429 547 497 q 501 293 519 361 q 458 153 482 225 q 403 0 433 81 l 308 0 q 266 275 290 154 q 208 497 242 396 q 131 685 175 597 q 32 861 88 772 l 118 915 m 476 1176 l 626 947 l 515 947 l 338 1176 l 476 1176 z "},"Ẃ":{"ha":1565,"x_min":32,"x_max":1543,"o":"m 122 1110 q 244 876 188 993 q 347 636 301 758 q 428 385 393 514 q 483 115 463 256 q 532 369 506 250 q 590 603 558 489 q 659 833 622 718 q 738 1074 696 947 l 832 1074 q 913 835 875 950 q 984 604 951 719 q 1044 369 1017 489 q 1093 115 1071 249 q 1160 380 1124 254 q 1240 625 1196 506 q 1337 864 1285 744 q 1451 1110 1389 983 l 1543 1058 q 1431 828 1483 944 q 1330 585 1378 713 q 1238 313 1282 457 q 1149 0 1193 169 l 1024 0 q 957 304 988 168 q 899 553 926 440 q 843 759 871 665 q 786 936 815 853 q 732 759 758 853 q 678 553 706 665 q 617 306 650 442 q 544 0 585 169 l 419 0 q 340 322 381 175 q 253 597 300 469 q 153 837 207 724 q 32 1058 99 950 l 122 1110 m 996 1367 l 818 1138 l 707 1138 l 856 1367 l 996 1367 z "},"ẃ":{"ha":1104,"x_min":32,"x_max":1083,"o":"m 118 915 q 222 740 176 832 q 301 554 268 647 q 354 369 335 461 q 378 196 374 278 q 428 351 407 271 q 463 511 449 431 q 485 674 476 592 q 501 835 494 756 l 611 835 q 649 515 624 675 q 735 196 675 356 q 760 368 739 278 q 815 552 781 458 q 894 739 849 646 q 996 919 940 832 l 1083 865 q 978 681 1024 772 q 899 487 932 589 q 842 266 865 385 q 801 0 818 147 l 710 0 q 655 153 679 81 q 612 293 631 225 q 579 429 593 361 q 557 569 565 497 q 533 429 547 497 q 501 293 519 361 q 458 153 482 225 q 403 0 433 81 l 308 0 q 266 275 290 154 q 208 497 242 396 q 131 685 175 597 q 32 861 88 772 l 118 915 m 765 1176 l 588 947 l 476 947 l 625 1176 l 765 1176 z "},"Ẅ":{"ha":1565,"x_min":32,"x_max":1543,"o":"m 122 1110 q 244 876 188 993 q 347 636 301 758 q 428 385 393 514 q 483 115 463 256 q 532 369 506 250 q 590 603 558 489 q 659 833 622 718 q 738 1074 696 947 l 832 1074 q 913 835 875 950 q 984 604 951 719 q 1044 369 1017 489 q 1093 115 1071 249 q 1160 380 1124 254 q 1240 625 1196 506 q 1337 864 1285 744 q 1451 1110 1389 983 l 1543 1058 q 1431 828 1483 944 q 1330 585 1378 713 q 1238 313 1282 457 q 1149 0 1193 169 l 1024 0 q 957 304 988 168 q 899 553 926 440 q 843 759 871 665 q 786 936 815 853 q 732 759 758 853 q 678 553 706 665 q 617 306 650 442 q 544 0 585 169 l 419 0 q 340 322 381 175 q 253 597 300 469 q 153 837 207 724 q 32 1058 99 950 l 122 1110 m 900 1300 q 947 1282 928 1300 q 965 1239 965 1264 q 945 1192 965 1211 q 900 1174 925 1174 q 858 1192 876 1174 q 839 1239 839 1211 q 858 1282 839 1264 q 900 1300 876 1300 m 600 1239 q 618 1282 600 1264 q 663 1300 636 1300 q 708 1282 690 1300 q 725 1239 725 1264 q 706 1192 725 1211 q 663 1174 686 1174 q 618 1192 636 1174 q 600 1239 600 1211 z "},"ẅ":{"ha":1104,"x_min":32,"x_max":1083,"o":"m 118 915 q 222 740 176 832 q 301 554 268 647 q 354 369 335 461 q 378 196 374 278 q 428 351 407 271 q 463 511 449 431 q 485 674 476 592 q 501 835 494 756 l 611 835 q 649 515 624 675 q 735 196 675 356 q 760 368 739 278 q 815 552 781 458 q 894 739 849 646 q 996 919 940 832 l 1083 865 q 978 681 1024 772 q 899 487 932 589 q 842 266 865 385 q 801 0 818 147 l 710 0 q 655 153 679 81 q 612 293 631 225 q 579 429 593 361 q 557 569 565 497 q 533 429 547 497 q 501 293 519 361 q 458 153 482 225 q 403 0 433 81 l 308 0 q 266 275 290 154 q 208 497 242 396 q 131 685 175 597 q 32 861 88 772 l 118 915 m 669 1110 q 716 1092 697 1110 q 735 1049 735 1074 q 715 1002 735 1021 q 669 983 694 983 q 627 1002 646 983 q 608 1049 608 1021 q 627 1092 608 1074 q 669 1110 646 1110 m 369 1049 q 388 1092 369 1074 q 432 1110 406 1110 q 477 1092 460 1110 q 494 1049 494 1074 q 475 1002 494 1021 q 432 983 456 983 q 388 1002 406 983 q 369 1049 369 1021 z "},"Ỳ":{"ha":1217,"x_min":32,"x_max":1194,"o":"m 97 1110 q 264 958 179 1043 q 421 784 349 874 q 545 606 493 694 q 613 442 597 517 q 673 578 633 501 q 775 742 713 656 q 925 923 838 829 q 1131 1110 1013 1017 l 1194 1029 q 996 853 1090 953 q 828 649 901 753 q 713 448 756 546 q 669 278 669 350 l 669 146 q 711 26 669 89 l 628 -36 q 564 160 564 57 l 564 278 q 538 402 564 335 q 469 541 513 469 q 371 684 426 613 q 256 820 315 756 q 139 938 197 885 q 32 1029 81 992 l 97 1110 m 533 1367 l 683 1138 l 572 1138 l 394 1367 l 533 1367 z "},"ỳ":{"ha":717,"x_min":32,"x_max":696,"o":"m 118 919 q 285 587 224 754 q 365 250 346 419 q 408 459 383 365 q 462 632 432 553 q 528 781 492 711 q 608 919 564 850 l 696 865 q 613 721 649 790 q 550 577 578 651 q 501 419 522 503 q 460 233 479 336 q 416 43 439 121 q 361 -92 393 -35 q 286 -197 329 -150 q 183 -293 243 -243 l 133 -204 q 216 -135 181 -171 q 277 -56 251 -99 q 319 40 303 -12 q 346 157 336 92 l 292 153 q 281 256 292 197 q 250 378 269 314 q 205 509 231 442 q 151 640 179 576 q 92 762 122 704 q 32 865 61 819 l 118 919 m 283 1176 l 433 947 l 322 947 l 144 1176 l 283 1176 z "},"–":{"ha":507,"x_min":51,"x_max":453,"o":"m 453 517 l 453 415 l 51 415 l 51 517 l 453 517 z "},"—":{"ha":926,"x_min":51,"x_max":874,"o":"m 874 517 l 874 419 l 51 419 l 51 517 l 874 517 z "},"‘":{"ha":303,"x_min":72,"x_max":215,"o":"m 189 861 l 143 861 l 99 969 q 78 1033 83 1004 q 72 1086 72 1063 q 94 1151 72 1124 q 144 1178 117 1178 q 194 1150 172 1178 q 215 1086 215 1122 q 200 1035 215 1058 q 157 1006 185 1013 l 189 861 z "},"’":{"ha":301,"x_min":72,"x_max":214,"o":"m 129 1003 q 88 1035 104 1010 q 72 1083 72 1060 q 91 1149 72 1121 q 142 1176 110 1176 q 192 1149 169 1176 q 214 1083 214 1122 q 191 976 214 1036 q 144 858 168 917 l 97 858 l 129 1003 z "},"‚":{"ha":301,"x_min":72,"x_max":214,"o":"m 129 -7 q 88 25 104 0 q 72 74 72 50 q 91 139 72 111 q 142 167 110 167 q 192 140 169 167 q 214 74 214 113 q 191 -33 214 26 q 144 -151 168 -93 l 97 -151 l 129 -7 z "},"“":{"ha":606,"x_min":72,"x_max":518,"o":"m 189 861 l 143 861 l 99 969 q 78 1033 83 1004 q 72 1086 72 1063 q 94 1151 72 1124 q 144 1178 117 1178 q 194 1150 172 1178 q 215 1086 215 1122 q 200 1035 215 1058 q 157 1006 185 1013 l 189 861 m 492 861 l 446 861 l 401 969 q 381 1033 386 1004 q 375 1086 375 1063 q 397 1151 375 1124 q 447 1178 419 1178 q 497 1150 475 1178 q 518 1086 518 1122 q 503 1035 518 1058 q 460 1006 488 1013 l 492 861 z "},"”":{"ha":603,"x_min":72,"x_max":515,"o":"m 129 1003 q 88 1035 104 1010 q 72 1083 72 1060 q 91 1149 72 1121 q 142 1176 110 1176 q 192 1149 169 1176 q 214 1083 214 1122 q 191 976 214 1036 q 144 858 168 917 l 97 858 l 129 1003 m 431 1003 q 390 1035 406 1010 q 374 1083 374 1060 q 392 1149 374 1121 q 443 1176 411 1176 q 493 1149 471 1176 q 515 1083 515 1122 q 492 976 515 1036 q 446 858 469 917 l 399 858 l 431 1003 z "},"„":{"ha":603,"x_min":72,"x_max":515,"o":"m 129 -7 q 88 25 104 0 q 72 74 72 50 q 91 139 72 111 q 142 167 110 167 q 192 140 169 167 q 214 74 214 113 q 191 -33 214 26 q 144 -151 168 -93 l 97 -151 l 129 -7 m 431 -7 q 390 25 406 0 q 374 74 374 50 q 392 139 374 111 q 443 167 411 167 q 493 140 471 167 q 515 74 515 113 q 492 -33 515 26 q 446 -151 469 -93 l 399 -151 l 431 -7 z "},"†":{"ha":521,"x_min":57,"x_max":464,"o":"m 215 918 l 215 1074 l 306 1074 l 306 918 l 464 918 l 464 828 l 306 828 l 306 0 l 215 0 l 215 828 l 57 828 l 57 918 l 215 918 z "},"‡":{"ha":521,"x_min":57,"x_max":464,"o":"m 215 918 l 215 1074 l 306 1074 l 306 918 l 464 918 l 464 828 l 306 828 l 306 246 l 464 246 l 464 156 l 306 156 l 306 0 l 215 0 l 215 156 l 57 156 l 57 246 l 215 246 l 215 828 l 57 828 l 57 918 l 215 918 z "},"•":{"ha":800,"x_min":53,"x_max":744,"o":"m 744 299 l 53 299 l 393 960 l 744 299 z "},"…":{"ha":1142,"x_min":94,"x_max":1047,"o":"m 164 135 q 216 110 196 135 q 236 50 236 86 q 216 -11 236 14 q 164 -36 196 -36 q 114 -11 133 -36 q 94 50 94 14 q 114 110 94 86 q 164 135 133 135 m 569 135 q 622 110 601 135 q 642 50 642 86 q 622 -11 642 14 q 569 -36 601 -36 q 519 -11 539 -36 q 500 50 500 14 q 519 110 500 86 q 569 135 539 135 m 975 135 q 1027 110 1007 135 q 1047 50 1047 86 q 1027 -11 1047 14 q 975 -36 1007 -36 q 925 -11 944 -36 q 906 50 906 14 q 925 110 906 86 q 975 135 944 135 z "},"‰":{"ha":1517,"x_min":75,"x_max":1451,"o":"m 307 1092 q 399 1072 356 1092 q 473 1017 442 1051 q 522 936 504 982 q 540 840 540 890 q 522 742 540 788 q 473 661 504 696 q 399 606 442 626 q 307 586 357 586 q 216 606 258 586 q 142 660 174 626 q 93 741 111 694 q 75 840 75 788 q 93 937 75 892 q 142 1017 111 982 q 216 1072 174 1051 q 307 1092 258 1092 m 307 1022 q 244 1008 274 1022 q 192 969 214 994 q 158 911 171 944 q 146 840 146 878 q 158 769 146 803 q 192 711 171 736 q 244 672 214 686 q 307 658 274 658 q 370 672 340 658 q 422 711 400 686 q 457 769 444 736 q 469 840 469 803 q 457 911 469 878 q 422 969 444 944 q 370 1008 400 993 q 307 1022 340 1022 m 926 1074 l 179 0 l 94 0 l 838 1074 l 926 1074 m 713 483 q 804 463 761 483 q 878 408 847 443 q 928 328 910 374 q 946 232 946 282 q 928 133 946 179 q 878 53 910 88 q 805 -2 847 18 q 713 -22 763 -22 q 622 -2 664 -22 q 548 52 579 18 q 499 133 517 86 q 481 232 481 179 q 499 328 481 283 q 548 408 517 374 q 622 463 579 443 q 713 483 664 483 m 713 414 q 649 400 679 414 q 598 361 619 386 q 564 303 576 336 q 551 232 551 269 q 564 161 551 194 q 598 103 576 128 q 649 64 619 78 q 713 50 679 50 q 776 64 746 50 q 828 103 806 78 q 863 161 850 128 q 875 232 875 194 q 863 303 875 269 q 828 360 850 336 q 776 399 806 385 q 713 414 746 414 m 1218 483 q 1310 463 1267 483 q 1384 408 1353 443 q 1433 328 1415 374 q 1451 232 1451 282 q 1433 133 1451 179 q 1384 53 1415 88 q 1310 -2 1353 18 q 1218 -22 1268 -22 q 1127 -2 1169 -22 q 1053 52 1085 18 q 1004 133 1022 86 q 986 232 986 179 q 1004 328 986 283 q 1053 408 1022 374 q 1127 463 1085 443 q 1218 483 1169 483 m 1218 414 q 1155 400 1185 414 q 1103 361 1125 386 q 1069 303 1082 336 q 1057 232 1057 269 q 1069 161 1057 194 q 1103 103 1082 128 q 1155 64 1125 78 q 1218 50 1185 50 q 1281 64 1251 50 q 1333 103 1311 78 q 1368 161 1356 128 q 1381 232 1381 194 q 1368 303 1381 269 q 1333 360 1356 336 q 1281 399 1311 385 q 1218 414 1251 414 z "},"‹":{"ha":333,"x_min":51,"x_max":281,"o":"m 281 806 l 281 681 l 126 572 l 281 463 l 281 338 l 51 517 l 51 628 l 281 806 z "},"›":{"ha":333,"x_min":51,"x_max":281,"o":"m 281 628 l 281 517 l 51 338 l 51 463 l 206 572 l 51 681 l 51 806 l 281 628 z "},"⁄":{"ha":222,"x_min":-304,"x_max":528,"o":"m 528 1074 l -219 0 l -304 0 l 439 1074 l 528 1074 z "},"⁰":{"ha":579,"x_min":57,"x_max":522,"o":"m 289 1092 q 381 1072 338 1092 q 455 1017 424 1051 q 504 936 486 982 q 522 840 522 890 q 504 742 522 788 q 455 661 486 696 q 381 606 424 626 q 289 586 339 586 q 198 606 240 586 q 124 660 156 626 q 75 741 93 694 q 57 840 57 788 q 75 937 57 892 q 124 1017 93 982 q 198 1072 156 1051 q 289 1092 240 1092 m 289 1022 q 226 1008 256 1022 q 174 969 196 994 q 140 911 153 944 q 128 840 128 878 q 140 769 128 803 q 174 711 153 736 q 226 672 196 686 q 289 658 256 658 q 352 672 322 658 q 404 711 382 686 q 439 769 426 736 q 451 840 451 803 q 439 911 451 878 q 404 969 426 944 q 352 1008 382 993 q 289 1022 322 1022 z "},"⁴":{"ha":490,"x_min":43,"x_max":440,"o":"m 392 1086 l 392 665 l 440 665 l 440 594 l 392 594 l 392 481 l 322 481 l 322 594 l 46 594 l 43 661 q 114 717 81 682 q 174 797 147 753 q 216 887 200 840 q 235 976 232 933 l 306 965 q 284 874 299 919 q 250 789 269 829 q 206 717 231 749 q 154 665 181 685 l 322 665 l 322 1086 l 392 1086 z "},"⁵":{"ha":411,"x_min":24,"x_max":363,"o":"m 343 1086 l 343 1015 l 158 1015 l 139 969 q 169 981 154 978 q 203 983 185 983 q 269 969 240 983 q 319 933 299 956 q 351 880 340 910 q 363 817 363 850 q 281 635 363 724 q 54 479 200 547 l 24 543 q 220 675 149 603 q 292 817 292 747 q 267 885 292 857 q 201 913 243 913 q 141 903 171 913 q 94 874 111 893 l 38 894 l 108 1086 l 343 1086 z "},"⁶":{"ha":422,"x_min":43,"x_max":378,"o":"m 313 1172 q 201 1031 246 1100 q 133 894 156 961 q 228 928 171 928 q 336 880 294 928 q 378 763 378 832 q 328 633 378 679 q 196 586 278 586 q 136 601 164 586 q 88 642 108 617 q 55 699 67 667 q 43 768 43 732 q 99 993 43 879 q 261 1219 156 1107 l 313 1172 m 211 860 q 145 831 172 860 q 118 757 118 801 q 147 683 118 713 q 211 653 175 653 q 276 683 249 653 q 304 757 304 713 q 277 829 304 799 q 211 860 250 860 z "},"⁷":{"ha":389,"x_min":39,"x_max":350,"o":"m 350 1086 l 350 1036 l 331 1018 q 288 969 317 1006 q 231 869 260 933 q 181 713 203 806 q 158 492 158 619 l 86 492 q 101 681 86 596 q 141 833 117 767 q 194 944 165 899 q 247 1015 222 990 l 39 1015 l 39 1086 l 350 1086 z "},"⁸":{"ha":392,"x_min":46,"x_max":339,"o":"m 136 860 q 87 909 106 879 q 68 971 68 939 q 101 1059 68 1026 q 193 1092 133 1092 q 285 1059 251 1092 q 318 971 318 1026 q 251 860 318 903 q 339 731 339 803 q 301 624 339 663 q 193 586 263 586 q 85 624 125 586 q 46 731 46 663 q 136 860 46 815 m 193 899 q 233 933 219 914 q 246 971 246 953 q 193 1026 246 1026 q 139 971 139 1026 q 152 933 139 953 q 193 899 165 914 m 193 825 q 132 776 146 796 q 118 731 118 757 q 193 658 118 658 q 268 731 268 658 q 265 755 268 744 q 253 776 261 765 q 230 798 244 786 q 193 825 215 810 z "},"⁹":{"ha":431,"x_min":47,"x_max":381,"o":"m 113 507 q 224 650 178 575 q 292 783 269 725 q 197 751 251 751 q 135 765 163 751 q 88 802 107 779 q 58 855 68 825 q 47 917 47 885 q 94 1046 47 1000 q 218 1092 140 1092 q 285 1077 256 1092 q 336 1038 315 1063 q 369 982 357 1014 q 381 915 381 950 q 366 806 381 863 q 324 690 351 749 q 256 572 296 631 q 164 458 215 513 l 113 507 m 213 1026 q 147 996 175 1026 q 119 921 119 965 q 148 847 119 876 q 213 817 176 817 q 279 847 251 817 q 307 921 307 878 q 279 995 307 964 q 213 1026 251 1026 z "},"₀":{"ha":579,"x_min":57,"x_max":522,"o":"m 289 483 q 381 463 338 483 q 455 408 424 443 q 504 328 486 374 q 522 232 522 282 q 504 133 522 179 q 455 53 486 88 q 381 -2 424 18 q 289 -22 339 -22 q 198 -2 240 -22 q 124 52 156 18 q 75 133 93 86 q 57 232 57 179 q 75 328 57 283 q 124 408 93 374 q 198 463 156 443 q 289 483 240 483 m 289 414 q 226 400 256 414 q 174 361 196 386 q 140 303 153 336 q 128 232 128 269 q 140 161 128 194 q 174 103 153 128 q 226 64 196 78 q 289 50 256 50 q 352 64 322 50 q 404 103 382 78 q 439 161 426 128 q 451 232 451 194 q 439 303 451 269 q 404 360 426 336 q 352 399 382 385 q 289 414 322 414 z "},"₁":{"ha":251,"x_min":44,"x_max":181,"o":"m 158 478 l 158 68 q 181 6 158 36 l 124 -37 q 89 68 89 13 l 89 407 l 44 407 l 44 478 l 158 478 z "},"₂":{"ha":446,"x_min":49,"x_max":396,"o":"m 63 350 q 123 446 81 408 q 225 483 165 483 q 331 442 288 483 q 374 333 374 401 q 311 188 374 260 q 147 60 249 117 l 396 60 l 396 -14 l 49 -14 l 49 68 q 165 144 117 110 q 244 208 214 178 q 289 268 275 239 q 303 328 303 297 q 281 391 303 367 q 224 415 260 415 q 162 389 188 415 q 124 322 136 363 l 63 350 z "},"₃":{"ha":376,"x_min":56,"x_max":319,"o":"m 319 478 l 319 419 q 289 331 313 374 q 225 256 265 288 q 284 202 261 240 q 307 119 307 164 q 255 -17 307 40 q 90 -124 203 -75 l 63 -57 q 190 11 144 -36 q 235 119 235 58 q 208 190 235 163 q 154 217 182 217 q 140 211 146 217 l 119 265 q 160 284 139 271 q 199 316 181 297 q 231 358 217 335 q 251 407 244 381 l 56 407 l 56 478 l 319 478 z "},"₄":{"ha":490,"x_min":43,"x_max":440,"o":"m 392 478 l 392 57 l 440 57 l 440 -14 l 392 -14 l 392 -128 l 322 -128 l 322 -14 l 46 -14 l 43 53 q 114 109 81 74 q 174 188 147 144 q 216 278 200 232 q 235 368 232 325 l 306 357 q 284 266 299 311 q 250 181 269 221 q 206 108 231 140 q 154 57 181 76 l 322 57 l 322 478 l 392 478 z "},"₅":{"ha":411,"x_min":24,"x_max":363,"o":"m 343 478 l 343 407 l 158 407 l 139 361 q 169 372 154 369 q 203 375 185 375 q 269 361 240 375 q 319 324 299 347 q 351 272 340 301 q 363 208 363 242 q 281 27 363 115 q 54 -129 200 -61 l 24 -65 q 220 67 149 -6 q 292 208 292 139 q 267 276 292 249 q 201 304 243 304 q 141 294 171 304 q 94 265 111 285 l 38 286 l 108 478 l 343 478 z "},"₆":{"ha":422,"x_min":43,"x_max":378,"o":"m 313 564 q 201 422 246 492 q 133 286 156 353 q 228 319 171 319 q 336 272 294 319 q 378 154 378 224 q 328 24 378 71 q 196 -22 278 -22 q 136 -7 164 -22 q 88 33 108 8 q 55 91 67 58 q 43 160 43 124 q 99 385 43 271 q 261 611 156 499 l 313 564 m 211 251 q 145 222 172 251 q 118 149 118 193 q 147 74 118 104 q 211 44 175 44 q 276 74 249 44 q 304 149 304 104 q 277 221 304 190 q 211 251 250 251 z "},"₇":{"ha":389,"x_min":39,"x_max":350,"o":"m 350 478 l 350 428 l 331 410 q 288 361 317 397 q 231 261 260 325 q 181 104 203 197 q 158 -117 158 11 l 86 -117 q 101 73 86 -12 q 141 224 117 158 q 194 336 165 290 q 247 407 222 382 l 39 407 l 39 478 l 350 478 z "},"₈":{"ha":392,"x_min":46,"x_max":339,"o":"m 136 251 q 87 301 106 271 q 68 363 68 331 q 101 451 68 418 q 193 483 133 483 q 285 451 251 483 q 318 363 318 418 q 251 251 318 294 q 339 122 339 194 q 301 16 339 54 q 193 -22 263 -22 q 85 16 125 -22 q 46 122 46 54 q 136 251 46 207 m 193 290 q 233 325 219 306 q 246 363 246 344 q 193 418 246 418 q 139 363 139 418 q 152 325 139 344 q 193 290 165 306 m 193 217 q 132 168 146 188 q 118 122 118 149 q 193 50 118 50 q 268 122 268 50 q 265 147 268 136 q 253 167 261 157 q 230 190 244 178 q 193 217 215 201 z "},"₉":{"ha":431,"x_min":47,"x_max":381,"o":"m 113 -101 q 224 42 178 -33 q 292 175 269 117 q 197 143 251 143 q 135 157 163 143 q 88 194 107 171 q 58 247 68 217 q 47 308 47 276 q 94 438 47 392 q 218 483 140 483 q 285 469 256 483 q 336 430 315 454 q 369 374 357 406 q 381 307 381 342 q 366 197 381 254 q 324 81 351 140 q 256 -37 296 22 q 164 -150 215 -96 l 113 -101 m 213 418 q 147 388 175 418 q 119 313 119 357 q 148 238 119 268 q 213 208 176 208 q 279 239 251 208 q 307 313 307 269 q 279 387 307 356 q 213 418 251 418 z "},"€":{"ha":915,"x_min":36,"x_max":851,"o":"m 172 628 q 235 736 196 686 q 323 822 274 786 q 431 877 372 857 q 554 897 489 897 q 663 881 611 897 q 761 838 715 865 l 715 746 q 554 796 642 796 q 396 750 467 796 q 282 628 325 704 l 658 628 l 613 538 l 249 538 q 239 490 242 514 q 236 442 236 467 q 250 342 236 388 l 515 342 l 471 251 l 288 251 q 399 132 329 176 q 554 88 469 88 q 681 117 622 88 q 782 196 739 146 l 851 119 q 719 22 796 57 q 554 -14 642 -14 q 431 6 489 -14 q 323 60 372 25 q 235 144 274 94 q 172 251 196 193 l 36 251 l 64 342 l 144 342 q 135 442 135 386 q 144 538 135 494 l 36 538 l 64 628 l 172 628 z "},"™":{"ha":1603,"x_min":68,"x_max":1565,"o":"m 561 1074 l 561 1000 l 347 1000 l 347 521 q 376 425 347 467 l 317 382 q 272 521 272 443 l 272 1000 l 68 1000 l 68 1074 l 561 1074 m 743 1074 q 892 939 829 1003 q 998 812 954 875 q 1069 684 1042 749 q 1113 547 1096 619 q 1159 683 1133 621 q 1224 807 1185 746 q 1323 932 1264 868 q 1472 1074 1382 996 l 1535 1074 l 1535 521 q 1565 425 1535 468 l 1506 382 q 1473 447 1485 413 q 1461 521 1461 482 l 1461 978 q 1244 708 1324 843 q 1151 431 1165 574 l 1076 431 q 1049 569 1071 501 q 987 703 1028 636 q 886 838 946 769 q 744 978 826 906 l 744 521 q 751 470 744 494 q 775 425 758 446 l 714 382 q 669 521 669 443 l 669 1000 l 601 1000 l 601 1074 l 743 1074 z "},"⅓":{"ha":986,"x_min":75,"x_max":921,"o":"m 286 1086 l 286 676 q 308 614 286 644 l 251 571 q 217 676 217 621 l 217 1015 l 172 1015 l 172 1086 l 286 1086 m 907 1074 l 160 0 l 75 0 l 818 1074 l 907 1074 m 921 478 l 921 419 q 890 331 914 374 q 826 256 867 288 q 885 202 863 240 q 908 119 908 164 q 856 -17 908 40 q 692 -124 804 -75 l 664 -57 q 791 11 746 -36 q 836 119 836 58 q 810 190 836 163 q 756 217 783 217 q 742 211 747 217 l 721 265 q 761 284 740 271 q 800 316 782 297 q 832 358 818 335 q 853 407 846 381 l 657 407 l 657 478 l 921 478 z "},"⅔":{"ha":1079,"x_min":75,"x_max":1014,"o":"m 89 958 q 149 1054 107 1017 q 251 1092 192 1092 q 357 1051 314 1092 q 400 942 400 1010 q 338 797 400 868 q 174 668 275 725 l 422 668 l 422 594 l 75 594 l 75 676 q 192 752 143 718 q 271 817 240 786 q 315 876 301 847 q 329 936 329 906 q 308 999 329 975 q 250 1024 286 1024 q 188 997 214 1024 q 150 931 163 971 l 89 958 m 1000 1074 l 253 0 l 168 0 l 911 1074 l 1000 1074 m 1014 478 l 1014 419 q 983 331 1007 374 q 919 256 960 288 q 978 202 956 240 q 1001 119 1001 164 q 949 -17 1001 40 q 785 -124 897 -75 l 757 -57 q 884 11 839 -36 q 929 119 929 58 q 903 190 929 163 q 849 217 876 217 q 835 211 840 217 l 814 265 q 854 284 833 271 q 893 316 875 297 q 925 358 911 335 q 946 407 939 381 l 750 407 l 750 478 l 1014 478 z "},"⅛":{"ha":972,"x_min":75,"x_max":907,"o":"m 286 1086 l 286 676 q 308 614 286 644 l 251 571 q 217 676 217 621 l 217 1015 l 172 1015 l 172 1086 l 286 1086 m 907 1074 l 160 0 l 75 0 l 818 1074 l 907 1074 m 685 251 q 635 301 654 271 q 617 363 617 331 q 649 451 617 418 q 742 483 682 483 q 833 451 800 483 q 867 363 867 418 q 800 251 867 294 q 888 122 888 194 q 849 16 888 54 q 742 -22 811 -22 q 634 16 674 -22 q 594 122 594 54 q 685 251 594 207 m 742 290 q 781 325 768 306 q 794 363 794 344 q 742 418 794 418 q 688 363 688 418 q 701 325 688 344 q 742 290 714 306 m 742 217 q 681 168 694 188 q 667 122 667 149 q 742 50 667 50 q 817 122 817 50 q 813 147 817 136 q 801 167 810 157 q 778 190 793 178 q 742 217 764 201 z "},"⅜":{"ha":972,"x_min":75,"x_max":907,"o":"m 382 1086 l 382 1028 q 351 939 375 982 q 288 864 328 896 q 347 810 324 849 q 369 728 369 772 q 317 591 369 649 q 153 485 265 533 l 125 551 q 252 619 207 572 q 297 728 297 667 q 271 798 297 771 q 217 825 244 825 q 203 819 208 825 l 182 874 q 222 892 201 879 q 261 924 243 906 q 293 966 279 943 q 314 1015 307 989 l 118 1015 l 118 1086 l 382 1086 m 907 1074 l 160 0 l 75 0 l 818 1074 l 907 1074 m 692 251 q 642 301 661 271 q 624 363 624 331 q 656 451 624 418 q 749 483 689 483 q 840 451 807 483 q 874 363 874 418 q 807 251 874 294 q 894 122 894 194 q 856 16 894 54 q 749 -22 818 -22 q 641 16 681 -22 q 601 122 601 54 q 692 251 601 207 m 749 290 q 788 325 775 306 q 801 363 801 344 q 749 418 801 418 q 694 363 694 418 q 708 325 694 344 q 749 290 721 306 m 749 217 q 688 168 701 188 q 674 122 674 149 q 749 50 674 50 q 824 122 824 50 q 820 147 824 136 q 808 167 817 157 q 785 190 800 178 q 749 217 771 201 z "},"⅝":{"ha":972,"x_min":75,"x_max":907,"o":"m 414 1086 l 414 1015 l 229 1015 l 210 969 q 240 981 225 978 q 274 983 256 983 q 340 969 311 983 q 390 933 369 956 q 422 880 411 910 q 433 817 433 850 q 352 635 433 724 q 125 479 271 547 l 94 543 q 291 675 219 603 q 363 817 363 747 q 338 885 363 857 q 272 913 314 913 q 212 903 242 913 q 165 874 182 893 l 108 894 l 179 1086 l 414 1086 m 907 1074 l 160 0 l 75 0 l 818 1074 l 907 1074 m 692 251 q 642 301 661 271 q 624 363 624 331 q 656 451 624 418 q 749 483 689 483 q 840 451 807 483 q 874 363 874 418 q 807 251 874 294 q 894 122 894 194 q 856 16 894 54 q 749 -22 818 -22 q 641 16 681 -22 q 601 122 601 54 q 692 251 601 207 m 749 290 q 788 325 775 306 q 801 363 801 344 q 749 418 801 418 q 694 363 694 418 q 708 325 694 344 q 749 290 721 306 m 749 217 q 688 168 701 188 q 674 122 674 149 q 749 50 674 50 q 824 122 824 50 q 820 147 824 136 q 808 167 817 157 q 785 190 800 178 q 749 217 771 201 z "},"⅞":{"ha":990,"x_min":75,"x_max":925,"o":"m 433 1086 l 433 1036 l 414 1018 q 372 969 400 1006 q 315 869 343 933 q 264 713 286 806 q 242 492 242 619 l 169 492 q 185 681 169 596 q 224 833 200 767 q 277 944 249 899 q 331 1015 306 990 l 122 1015 l 122 1086 l 433 1086 m 907 1074 l 160 0 l 75 0 l 818 1074 l 907 1074 m 722 251 q 673 301 692 271 q 654 363 654 331 q 687 451 654 418 q 779 483 719 483 q 871 451 838 483 q 904 363 904 418 q 838 251 904 294 q 925 122 925 194 q 887 16 925 54 q 779 -22 849 -22 q 672 16 711 -22 q 632 122 632 54 q 722 251 632 207 m 779 290 q 819 325 806 306 q 832 363 832 344 q 779 418 832 418 q 725 363 725 418 q 738 325 725 344 q 779 290 751 306 m 779 217 q 718 168 732 188 q 704 122 704 149 q 779 50 704 50 q 854 122 854 50 q 851 147 854 136 q 839 167 847 157 q 816 190 831 178 q 779 217 801 201 z "},"−":{"ha":521,"x_min":57,"x_max":464,"o":"m 464 517 l 464 426 l 57 426 l 57 517 l 464 517 z "},"≈":{"ha":521,"x_min":36,"x_max":483,"o":"m 36 674 q 106 703 78 694 q 163 711 133 711 q 211 706 189 711 q 254 696 233 701 q 298 685 275 690 q 349 681 321 681 q 399 688 375 681 q 458 710 424 696 l 482 613 q 416 585 444 593 q 356 576 388 576 q 298 582 322 576 q 253 594 274 588 q 216 606 233 600 q 181 611 199 611 q 151 610 164 611 q 125 604 138 608 q 98 593 113 600 q 64 575 83 586 l 36 674 m 38 314 q 107 343 79 335 q 164 351 135 351 q 213 347 190 351 q 256 336 235 342 q 299 326 276 331 q 350 321 322 321 q 401 328 376 321 q 460 350 425 336 l 483 253 q 417 225 446 233 q 357 217 389 217 q 299 222 324 217 q 255 234 275 228 q 217 246 235 240 q 182 251 200 251 q 152 250 165 251 q 126 244 139 249 q 99 233 114 240 q 65 215 85 226 l 38 314 z "},"≠":{"ha":521,"x_min":53,"x_max":464,"o":"m 288 660 l 356 829 l 451 829 l 382 660 l 464 660 l 464 569 l 346 569 l 267 374 l 464 374 l 464 282 l 231 282 l 144 69 l 53 69 l 138 282 l 57 282 l 57 374 l 174 374 l 251 569 l 57 569 l 57 660 l 288 660 z "},"≤":{"ha":521,"x_min":57,"x_max":464,"o":"m 464 750 l 464 649 l 132 464 l 464 286 l 464 183 l 57 406 l 57 521 l 464 750 m 464 93 l 464 3 l 57 3 l 57 93 l 464 93 z "},"≥":{"ha":521,"x_min":57,"x_max":464,"o":"m 464 521 l 464 406 l 57 183 l 57 286 l 389 464 l 57 649 l 57 750 l 464 521 m 464 93 l 464 3 l 57 3 l 57 93 l 464 93 z "},"Ư":{"ha":1508,"x_min":88,"x_max":1513,"o":"m 1478 1065 q 1506 1018 1500 1053 q 1493 950 1513 983 q 1421 869 1469 910 q 1324 788 1372 828 l 1324 686 q 1268 417 1324 544 q 1119 194 1213 290 q 902 42 1025 99 q 644 -14 779 -14 q 456 19 542 -14 q 310 110 371 51 q 217 251 250 169 q 183 429 183 332 l 183 969 l 88 969 l 88 1074 l 289 1074 l 289 429 q 315 289 289 351 q 388 182 340 226 q 501 114 435 138 q 646 90 567 90 q 864 139 760 90 q 1047 269 968 188 q 1174 459 1126 351 q 1221 686 1221 567 l 1221 1074 l 1324 1074 l 1324 857 l 1381 921 q 1360 969 1361 940 q 1369 1019 1358 999 q 1419 1067 1389 1053 q 1478 1065 1450 1081 z "},"Ơ":{"ha":1436,"x_min":63,"x_max":1443,"o":"m 1408 1065 q 1437 1018 1431 1053 q 1424 950 1443 983 q 1358 874 1403 911 q 1268 797 1313 836 q 1288 668 1288 735 q 1258 501 1288 585 q 1178 342 1229 418 q 1056 201 1126 267 q 901 88 985 136 q 726 13 818 40 q 538 -14 633 -14 q 348 20 435 -14 q 197 113 261 54 q 98 251 133 172 q 63 422 63 331 q 91 585 63 504 q 170 741 119 667 q 291 878 221 815 q 445 989 361 942 q 622 1063 529 1036 q 814 1089 715 1089 q 1078 1024 964 1089 q 1247 849 1192 958 l 1311 921 q 1290 969 1292 940 q 1300 1019 1289 999 q 1350 1067 1319 1053 q 1408 1065 1381 1081 m 542 90 q 776 141 661 90 q 983 273 892 192 q 1129 457 1074 354 q 1185 663 1185 560 q 1156 796 1185 736 q 1078 897 1128 856 q 958 961 1028 939 q 808 983 889 983 q 576 935 690 983 q 370 808 461 886 q 224 629 279 729 q 168 426 168 529 q 194 293 168 354 q 270 187 221 232 q 388 116 319 142 q 542 90 457 90 z "},"ư":{"ha":903,"x_min":51,"x_max":906,"o":"m 771 910 q 833 938 800 935 q 888 917 867 942 q 899 863 906 897 q 864 803 893 828 q 778 755 832 775 q 669 715 724 735 l 669 204 q 679 123 669 169 q 707 14 689 76 q 642 3 681 8 q 560 -6 603 -1 q 477 -12 518 -10 q 406 -14 436 -14 q 165 78 242 -14 q 89 336 89 171 l 89 747 q 51 858 89 813 l 135 919 q 192 747 192 843 l 192 357 q 243 159 192 232 q 390 86 294 86 q 586 106 485 86 q 568 238 568 169 l 568 729 q 625 919 568 846 l 707 858 q 671 772 676 817 l 747 814 q 744 866 736 838 q 771 910 753 894 z "},"ơ":{"ha":826,"x_min":61,"x_max":831,"o":"m 813 917 q 824 863 831 897 q 789 803 818 828 q 726 764 764 781 q 644 732 688 747 q 697 601 678 674 q 715 442 715 528 q 691 258 715 342 q 623 115 667 175 q 519 20 579 54 q 390 -14 460 -14 q 258 20 318 -14 q 153 115 197 54 q 85 258 110 175 q 61 442 61 342 q 86 625 61 542 q 155 769 111 708 q 259 863 199 829 q 390 897 319 897 q 512 867 456 897 q 611 781 568 836 l 672 814 q 669 866 661 838 q 696 910 678 894 q 758 938 725 935 q 813 917 792 942 m 390 86 q 477 113 436 86 q 548 186 518 139 q 596 299 578 233 q 614 442 614 364 q 597 585 614 519 q 549 697 579 650 q 478 769 518 743 q 390 794 438 794 q 303 769 344 794 q 231 697 261 743 q 182 585 200 650 q 164 442 164 519 q 182 299 164 364 q 231 186 200 233 q 303 113 263 139 q 390 86 344 86 z "},"Ớ":{"ha":1436,"x_min":63,"x_max":1443,"o":"m 1408 1065 q 1437 1018 1431 1053 q 1424 950 1443 983 q 1358 874 1403 911 q 1268 797 1313 836 q 1288 668 1288 735 q 1258 501 1288 585 q 1178 342 1229 418 q 1056 201 1126 267 q 901 88 985 136 q 726 13 818 40 q 538 -14 633 -14 q 348 20 435 -14 q 197 113 261 54 q 98 251 133 172 q 63 422 63 331 q 91 585 63 504 q 170 741 119 667 q 291 878 221 815 q 445 989 361 942 q 622 1063 529 1036 q 814 1089 715 1089 q 1078 1024 964 1089 q 1247 849 1192 958 l 1311 921 q 1290 969 1292 940 q 1300 1019 1289 999 q 1350 1067 1319 1053 q 1408 1065 1381 1081 m 542 90 q 776 141 661 90 q 983 273 892 192 q 1129 457 1074 354 q 1185 663 1185 560 q 1156 796 1185 736 q 1078 897 1128 856 q 958 961 1028 939 q 808 983 889 983 q 576 935 690 983 q 370 808 461 886 q 224 629 279 729 q 168 426 168 529 q 194 293 168 354 q 270 187 221 232 q 388 116 319 142 q 542 90 457 90 m 1003 1367 l 825 1138 l 714 1138 l 863 1367 l 1003 1367 z "},"Ờ":{"ha":1436,"x_min":63,"x_max":1443,"o":"m 1408 1065 q 1437 1018 1431 1053 q 1424 950 1443 983 q 1358 874 1403 911 q 1268 797 1313 836 q 1288 668 1288 735 q 1258 501 1288 585 q 1178 342 1229 418 q 1056 201 1126 267 q 901 88 985 136 q 726 13 818 40 q 538 -14 633 -14 q 348 20 435 -14 q 197 113 261 54 q 98 251 133 172 q 63 422 63 331 q 91 585 63 504 q 170 741 119 667 q 291 878 221 815 q 445 989 361 942 q 622 1063 529 1036 q 814 1089 715 1089 q 1078 1024 964 1089 q 1247 849 1192 958 l 1311 921 q 1290 969 1292 940 q 1300 1019 1289 999 q 1350 1067 1319 1053 q 1408 1065 1381 1081 m 542 90 q 776 141 661 90 q 983 273 892 192 q 1129 457 1074 354 q 1185 663 1185 560 q 1156 796 1185 736 q 1078 897 1128 856 q 958 961 1028 939 q 808 983 889 983 q 576 935 690 983 q 370 808 461 886 q 224 629 279 729 q 168 426 168 529 q 194 293 168 354 q 270 187 221 232 q 388 116 319 142 q 542 90 457 90 m 713 1367 l 863 1138 l 751 1138 l 574 1367 l 713 1367 z "},"Ứ":{"ha":1508,"x_min":88,"x_max":1513,"o":"m 1478 1065 q 1506 1018 1500 1053 q 1493 950 1513 983 q 1421 869 1469 910 q 1324 788 1372 828 l 1324 686 q 1268 417 1324 544 q 1119 194 1213 290 q 902 42 1025 99 q 644 -14 779 -14 q 456 19 542 -14 q 310 110 371 51 q 217 251 250 169 q 183 429 183 332 l 183 969 l 88 969 l 88 1074 l 289 1074 l 289 429 q 315 289 289 351 q 388 182 340 226 q 501 114 435 138 q 646 90 567 90 q 864 139 760 90 q 1047 269 968 188 q 1174 459 1126 351 q 1221 686 1221 567 l 1221 1074 l 1324 1074 l 1324 857 l 1381 921 q 1360 969 1361 940 q 1369 1019 1358 999 q 1419 1067 1389 1053 q 1478 1065 1450 1081 m 976 1367 l 799 1138 l 688 1138 l 836 1367 l 976 1367 z "},"Ừ":{"ha":1508,"x_min":88,"x_max":1513,"o":"m 1478 1065 q 1506 1018 1500 1053 q 1493 950 1513 983 q 1421 869 1469 910 q 1324 788 1372 828 l 1324 686 q 1268 417 1324 544 q 1119 194 1213 290 q 902 42 1025 99 q 644 -14 779 -14 q 456 19 542 -14 q 310 110 371 51 q 217 251 250 169 q 183 429 183 332 l 183 969 l 88 969 l 88 1074 l 289 1074 l 289 429 q 315 289 289 351 q 388 182 340 226 q 501 114 435 138 q 646 90 567 90 q 864 139 760 90 q 1047 269 968 188 q 1174 459 1126 351 q 1221 686 1221 567 l 1221 1074 l 1324 1074 l 1324 857 l 1381 921 q 1360 969 1361 940 q 1369 1019 1358 999 q 1419 1067 1389 1053 q 1478 1065 1450 1081 m 749 1367 l 899 1138 l 788 1138 l 610 1367 l 749 1367 z "},"ớ":{"ha":826,"x_min":61,"x_max":831,"o":"m 813 917 q 824 863 831 897 q 789 803 818 828 q 726 764 764 781 q 644 732 688 747 q 697 601 678 674 q 715 442 715 528 q 691 258 715 342 q 623 115 667 175 q 519 20 579 54 q 390 -14 460 -14 q 258 20 318 -14 q 153 115 197 54 q 85 258 110 175 q 61 442 61 342 q 86 625 61 542 q 155 769 111 708 q 259 863 199 829 q 390 897 319 897 q 512 867 456 897 q 611 781 568 836 l 672 814 q 669 866 661 838 q 696 910 678 894 q 758 938 725 935 q 813 917 792 942 m 390 86 q 477 113 436 86 q 548 186 518 139 q 596 299 578 233 q 614 442 614 364 q 597 585 614 519 q 549 697 579 650 q 478 769 518 743 q 390 794 438 794 q 303 769 344 794 q 231 697 261 743 q 182 585 200 650 q 164 442 164 519 q 182 299 164 364 q 231 186 200 233 q 303 113 263 139 q 390 86 344 86 m 625 1176 l 447 947 l 336 947 l 485 1176 l 625 1176 z "}}}
